<svg version="1.2" xmlns="http://www.w3.org/2000/svg" viewBox="0 0 1547 653" width="1547" height="653"><style>.a{fill:#1c4f78}</style><path class="a" d="m1459.6 264.4c-10.6 9.4-16 14.1-27.6 19.8-11.3 5.8-22.8 8.4-41.1 8.2-23.4 0.2-37.1-4-52.9-14.1-15.6-11.5-25.4-27.7-25.1-48.1-0.8-26.6 11.7-44.9 34.1-55.7 25.3-12.5 53.9-17.9 105-19.3q0-0.6 0.2-2.3c0.1-1.1 0.1-1.9 0.1-2.5-0.2-10.5-2.5-18-7.5-23.2-4.2-4.3-7.5-5.8-16-6.4-8.4 0.1-13 2.2-18.1 7.8-3.3 5.2-4.3 8.3-6.2 15.7h-81c1.3-22.9 9-39.7 25.4-51.1 15.4-11.9 42.3-21 76.1-22.3 40.8-0.7 67.2 9.4 86.5 25.5 16 14.8 24 34.9 24 61.6v91.6c1.8 14.6 4.4 27.6 8 40.7h-80q-2.1-7.4-3-14.9c-0.6-5.1-0.9-5.6-0.9-11zm-9.4-63.2c-21.7 0.6-32.1 2.8-40.8 6.8-8.9 6.1-12.7 10.1-11.9 19.7 2.9 7.4 4.4 8.4 9.8 11.3 5.6 1.9 6.9 2.3 14.7 2.3 9.9-2 8.5-1.3 17.2-5.8 10.1-7.8 11.5-16.3 11-31.6zm-165.8-137.9h-80.5v-63h80.5zm-119.4 246.9h1.6q6.7 0.8 9.7 0.8c10.6 0 17.6-3.4 21.6-9.6 3.9-6.1 6-17.2 6-35.7v-183.4h80.6v209.3c0 28.6-12.7 49.1-25 60-16.1 11.8-28.1 16-56.5 17.5-4.2 0-10.3 0.1-15.9-0.5-5.4-0.5-13.3-1.5-22.1-4zm-1.2-227.8l0.2 208.1h-74.3l-1.9-23.8c-9.7 10.6-13.8 14.2-24.7 20.3-11.8 5.9-22.2 8.3-36.1 8.5-24.5 0-44.3-8-57.1-24-15.8-21.5-17.9-29.7-17.9-70.2v-118.9h78.9l0.6 116.2c1.2 15.7 2.5 22.3 7.5 29.7 4.1 4.4 6.9 7 17.2 7 6.7-0.3 11.4-1 17.3-7 7.3-8.8 8.6-22.9 9.1-42.7v-103.2zm-458.1-82.1h79.4v101c9.4-9.8 13.9-13 24.9-18.9 11-5.8 23-7.5 36.1-7.5 27.2 3.1 40.4 12.2 55.8 33 15.4 20.7 23.1 49.4 21.3 83.7 0 31.3-10.6 56.9-24.6 75.7-15.2 18.8-31.8 27.6-57.1 27.6-13.8 0-26.6-1.7-37.8-8.2-11.3-6.5-14.4-10.9-22.6-19.6l-2.3 23.4h-72.7zm130.6 187.9c0-18.2-3.5-33.4-9.8-42.7-6.2-8.6-11.5-10.8-20.2-11.4-5.6 0.6-10.3 0.4-18.1 9.1-7.4 11-9.7 25.4-9.7 44.7 1.2 18.2 2.3 22.6 6.6 33.3 6.7 9.9 10.8 13.2 22.8 13.9 9.5-1.4 13.7-4.2 20.5-14.7 4.7-9.7 6.6-14.1 7.9-32.2zm-496.3 102.3l-0.2-208h76.2c0.8 4.2 1.1 10.5 1.3 16 0 2.5 0.8 2.3 2 1.8 18-15 18.7-15.3 30.3-20.2 12.9-5.4 27.2-4.1 35.1-3.3 13.7 1.3 24.2 5.5 34.4 12.2 10.2 8.6 8.9 7.5 17.7 17.9 11.6-14.4 22.6-22.5 32.6-25.9 14.3-5.6 26.3-5.4 39.7-5 23 2.1 37.8 11.2 50.7 25.5 11.9 14.4 16.4 33.7 16.4 60.2v128.8h-81.3l-0.1-122.1c-0.4-12.5-2.2-20.7-6.7-27.2-4.5-4.5-8-5.8-16.3-5.6-2.6 0.1-10.6 1.7-15.6 10.5-5 9.5-6.6 22.7-6.6 42.4v102h-81.1v-121.6c0-12-2.3-21.2-6.8-27.8-5.3-4.2-6.6-4.5-14.2-5.3-5.1 0.8-9.2 1.3-16.1 9.6-5.1 9.6-7.7 23.6-7.7 43.1v102zm-237.9 0h-92.8l104.7-289.9h109.7l99.9 289.9h-93.6l-16.1-46.9h-95.1zm89.6-118.1l-25.1-107.7-26.8 107.7z"/><path class="a" d="m95 475.6c-2.8 14.3-5.9 54.6 3.5 75.2 29.5 59.1 90 23.1 88.5-17.2h87.7c-0.6 7.1-1.2 9.5-2.2 16.6-1.5 8.7-3.5 16.8-6.5 25.1q-1.7 4.3-3.6 8.6c-4.8 9.9-10.6 18.6-17.9 27l-3.9 4.1c-9.3 8.9-19.6 16.3-30.9 22.3-6.8 3.4-13.5 6-20.8 8.2-7.1 1.9-14.1 3.2-21.5 4.2-21 2.4-42.6 2.5-63.5-1.3-6.7-1.4-13.2-3.1-19.7-5.3-6.1-2.3-11.8-4.9-17.6-8.1-7.5-4.4-14.2-9.2-20.7-14.8-5-4.5-9.5-9.1-13.9-14.1-5.1-6.2-9.4-12.4-13.3-19.4-3.8-7.1-6.9-14.3-9.5-22-2.2-6.9-3.9-13.8-5.3-20.9-4.6-27.7-3.8-56.5 2.4-83.8q1.4-5.6 3.1-11.1c3.4-10.5 7.7-20.2 13.3-29.8 1.8-3.1 3.8-6 5.8-8.9 6.5-10.3 14.7-19.1 26.4-27.1 5.5-4 11-7.6 16.9-10.9 6.2-3.2 12.4-5.8 19-8.1 7-2.2 13.9-3.8 21.1-5.1 9.4-1.5 18.5-2.2 28-2.4q5.9-0.1 11.9 0.1c11.9 0.7 23.2 2.5 34.7 5.6 8.2 2.5 16 5.4 23.7 9 8.6 4.2 16.6 9 24.4 14.5l4.7 3.5c5.1 5.3 9.8 10.6 14 16.6 3.9 5.7 7.1 11.4 9.9 17.7 2.7 6.5 4.6 13.1 6.1 19.9 1.3 6.6 1.6 8.3 2.1 14.9l0.9 13.9h-87.7c-5.4-64.7-83.2-61.2-89.6 3.3zm350 105h84.1c-8 31.8-33.1 56-66.2 66.2-10.1 3.1-20.9 4.5-31.4 5.5-8.1 0.7-16.2 0.9-24.3 0.4-11.5-1-22.7-2.4-33.8-5.4-3.2-0.9-6.2-1.9-9.2-3-15.5-6.1-28.5-15.7-39.4-28.2-4.1-4.8-7.6-9.8-10.8-15.3-3.9-6.9-6.9-13.8-9.3-21.3-1.9-6.1-3.2-12-4.2-18.3-1.1-8.9-1.3-17.5-0.8-26.5 0.7-8.3 2-16.1 4.2-24.1 2.2-7.5 4.9-14.3 8.5-21.2 3.5-6.5 7.4-12.3 12.1-18.1 5.8-6.6 12-12.3 19.1-17.6 5-3.5 10.1-6.6 15.6-9.3 7.5-3.5 15.1-6 23.2-7.9 21.3-4.5 43.7-4.4 65.1-0.5 8.7 1.7 17 4.1 25.2 7.5 6 2.7 11.1 5.7 16.6 9.5 2.2 1.6 4.6 3.3 6.7 5 6.9 6.4 12.6 13.8 17.6 21.7 3.7 6.1 6.7 12.2 9.3 18.9 1.3 3.5 2.4 7.1 3.4 10.7 3.2 12.7 4.4 25.2 4.5 38.2v14.6h-145.9c-3.1 41.8 45.5 52.4 60.1 18.5zm-59.1-64.5h60c-1.3-42.6-60.5-35.7-60 0zm336.9-73.5l4.8 2.6c7.2 4.7 14.3 12.8 19.3 19.7 4.7-6.4 12.6-14.7 19-19.5 3.2-2.2 6.2-3.9 9.8-5.4 4.2-1.7 4-2.9 8.5-3.7 10.3-1.7 20.9-1.8 31.3-1.3 5 0.5 14 1.3 18.8 2.5 3.4 1.1 6.4 2.2 9.6 3.7l5.8 3.5c6.8 5 12.6 10.7 17.4 17.7l2.1 3.3c7.5 13.6 10.3 28.5 11.1 43.9q0.2 4.5 0.3 9.1v125.1h-78.6v-121.5c-0.1-8.4-0.9-13.7-4.3-21.2-2.2-5.4-9.3-9.3-13-9.4-26.5-1-25.2 31.3-25.3 50.9v101.2h-79v-121c-0.2-6.3-0.6-13.1-3.2-19-2-8.6-9.6-11.6-16.6-11.6-21.5 3-21.8 30.9-22.3 47.4v104.2h-78.4l0.1-204.6h72.2l0.8 22.4c1.9-1.9 9.1-9.3 11.1-11 6.7-5.2 14.4-9.4 22.4-12.2 4.6-1.4 9-2.3 13.8-2.7 14.4-0.7 29.2 1.1 42.5 6.9zm327.8 137h83.8c-9.2 47.3-57.8 71.1-96.2 71.3-8.1 0.7-16.1 0.9-24.2 0.3-11.5-0.9-22.7-2.3-33.8-5.3-3.2-0.9-6.2-1.9-9.2-3-15.5-6.1-28.4-15.6-39.3-28.1-4.1-4.8-7.6-9.8-10.8-15.3-3.9-6.8-6.9-13.7-9.4-21.1-1.8-6.1-3.1-12.1-4.1-18.3-1.1-8.9-1.3-17.5-0.8-26.4 0.7-8.3 2-16.1 4.2-24.1 2.2-7.4 4.9-14.2 8.4-21.1 3.6-6.4 7.5-12.3 12.2-17.9 5.8-6.7 11.9-12.4 19-17.6 5-3.6 10.1-6.6 15.6-9.3 7.5-3.5 15.1-6 23.2-7.9 21.3-4.4 43.6-4.4 65-0.5 8.7 1.7 16.9 4.1 25.2 7.5 6 2.7 11.5 5.7 16.9 9.4 2.2 1.6 4.3 3.3 6.4 5.1 6.8 6.4 12.5 13.7 17.6 21.6 3.6 6 6.6 12.2 9.2 18.8 1.3 3.5 2.4 7.1 3.4 10.7 3.2 12.6 4.4 25.1 4.5 38v14.9h-146.5c-1.3 40.8 44.2 53.1 59.7 18.3zm-58.7-64.2h60.1c-3.5-44.8-61.6-33.8-60.1 0zm304.2-83.6c6.9-0.1 13.5 0.3 20.4 1.3 4.2 0.8 8.2 1.7 12.3 2.9 3.9 1.4 7.5 3 11.2 4.8l6.8 4.3c5.6 4.2 10.3 8.7 14.5 14.3 3.3 4.9 4.8 7 6.9 12.6 6 16.7 7.2 34.5 7.3 52.2v119.9h-78.8l-0.2-119.7c1.5-22.4-12.7-42.6-37.8-30-4.4 2.4-8 6.5-10 11.1-3.5 9.4-3.8 19.9-4.1 29.9l-0.1 108.7h-77.7l0.2-207 70.7 0.1 1.2 23.8 11.1-10.9c5.1-4.3 10.2-7.8 16.2-10.9 5.5-2.6 11-4.5 17-5.9 4.3-0.8 8.5-1.3 12.9-1.5zm133.5 62.9h-31.9v-55.4h32.2v-53.9l77.8-0.1v54h36.8v55.4h-36.1l0.2 71c3.7 24.3 24 21.4 38.2 20.1v56.6c-4.5 1-11.9 2.2-16.4 3.1-64.6 9.9-103.4-9.4-100.8-80.4z"/></svg>