<svg version="1.2" xmlns="http://www.w3.org/2000/svg" viewBox="0 0 1543 808" width="1543" height="808">
	<title>dalmia-bharat-group-vector-logo-svg</title>
	<defs>
		<clipPath clipPathUnits="userSpaceOnUse" id="cp1">
			<path d="m1181.21 400.16c-22.53 4.08-46.51 3.84-27.57 17.99 17.27 12.94 40.76 28.29 86.55 44.83 45.32 16.31 50.83 13.67 47.23 35.97-3.83 23.25-11.5 47.47-8.87 57.78 1.92 7.19 5.76 2.64 13.19-6 25.65-29.73 114.84-164.95 50.83-239.52 19.42 23.02-49.87 69.05-161.36 88.95z"/>
		</clipPath>
		<linearGradient id="g1" x1="1105" y1="503.6" x2="1449.6" y2="366.4" gradientUnits="userSpaceOnUse">
			<stop offset="0" stop-color="#959c98"/>
			<stop offset=".25" stop-color="#959c98"/>
			<stop offset=".347" stop-color="#9ea5a1"/>
			<stop offset=".507" stop-color="#b7bdba"/>
			<stop offset=".709" stop-color="#e0e3e2"/>
			<stop offset=".75" stop-color="#e9eceb"/>
			<stop offset=".904" stop-color="#f5f6f6"/>
			<stop offset="1" stop-color="#ffffff"/>
		</linearGradient>
		<clipPath clipPathUnits="userSpaceOnUse" id="cp2">
			<path d="m1172.58 174.55c-20.14 8.15-45.55 20.14-83.19 50.83-37.4 30.21-37.88 36.2-55.38 21.58-18.46-15.11-35.49-34.05-45.8-36.93-7.19-2.16-5.27 3.6-1.67 14.15 12.94 36.92 84.87 181.98 182.21 165.67-29.73 4.56-34.29-77.92 5.51-182.7 6.48-17.74 16.31-34.76 6.72-34.76-1.92 0-4.56 0.72-8.4 2.16z"/>
		</clipPath>
		<linearGradient id="g2" x1="1117.7" y1="88.7" x2="1060.2" y2="451.6" gradientUnits="userSpaceOnUse">
			<stop offset="0" stop-color="#00321e"/>
			<stop offset=".122" stop-color="#00582c"/>
			<stop offset=".25" stop-color="#00843d"/>
			<stop offset=".321" stop-color="#0b893c"/>
			<stop offset=".448" stop-color="#299539"/>
			<stop offset=".614" stop-color="#5aa934"/>
			<stop offset=".75" stop-color="#87bc2f"/>
			<stop offset=".782" stop-color="#93c243"/>
			<stop offset=".849" stop-color="#b0d377"/>
			<stop offset=".942" stop-color="#e0eec9"/>
			<stop offset="1" stop-color="#ffffff"/>
		</linearGradient>
		<clipPath clipPathUnits="userSpaceOnUse" id="cp3">
			<path d="m1190.09 201.88c10.78-27.81 85.35 9.11 157.75 94.95 14.87 17.26 26.61 38.12 29.49 14.86 2.88-21.34 4.8-49.15-3.35-96.62-8.16-47-13.19-50.35 8.39-58.27 22.29-8.39 47.47-13.66 55.14-21.09 1.2-1.2 1.92-2.4 1.92-3.12v-0.24c-0.24-2.4-5.52-3.6-13.67-5.04-11.27-2.15-33.08-4.55-58.98-4.55-63.29 0-152.48 13.9-176.69 79.12z"/>
		</clipPath>
		<linearGradient id="g3" x1="1453.2" y1="339.6" x2="1164.7" y2="108.5" gradientUnits="userSpaceOnUse">
			<stop offset="0" stop-color="#983e17"/>
			<stop offset=".05" stop-color="#a44814"/>
			<stop offset=".139" stop-color="#c2620c"/>
			<stop offset=".25" stop-color="#f18a00"/>
			<stop offset=".36" stop-color="#f39400"/>
			<stop offset=".543" stop-color="#f7ad00"/>
			<stop offset=".75" stop-color="#fdd200"/>
			<stop offset=".789" stop-color="#fdda2e"/>
			<stop offset=".867" stop-color="#feea87"/>
			<stop offset=".93" stop-color="#fff5c8"/>
			<stop offset=".976" stop-color="#fffcf0"/>
			<stop offset="1" stop-color="#ffffff"/>
		</linearGradient>
	</defs>
	<style>
		.s0 { fill: #0054a6 } 
		.s1 { fill: #959c98 } 
		.s2 { fill: url(#g1) } 
		.s3 { fill: #005c32 } 
		.s4 { fill: url(#g2) } 
		.s5 { fill: #f39500 } 
		.s6 { fill: url(#g3) } 
	</style>
	<g id="Layer">
		<path id="Layer" fill-rule="evenodd" class="s0" d="m53.9 414.5h116.8c46.5 0 105.2 28.8 100.9 110.6-4.3 83.7-57.3 140.2-145.3 140.2h-125.4zm39.1 186.3h37.6c51.1 0 62.9-52.2 62.9-75.5 0-37.6-19.5-46.7-45.8-46.7h-28.8z"/>
		<path id="Layer" fill-rule="evenodd" class="s0" d="m290.5 538c11.1-48.4 48.9-59.7 94-59.7 33.3 0 89.4 4.3 89.4 48.5 0 28.5-22.2 110.2-22.2 122.2 1.4 13.9 0 7.7 2.8 16.1h-68.8c-1.9-5.8-2.9-11.5-2.4-17.5h-0.7c-12.5 14.6-36.2 22.1-56.8 22.1-31.7 0-59.7-13.7-59.7-48.5 0-48.2 36.2-61.1 89.2-65 19.9-1.4 51.5 1.5 51.5-21 0-12.8-11.3-15.9-22-15.9-14.2 0-24.3 5.1-28.1 18.7zm68.3 90.7c23.8 0 33.4-17.3 37.7-44.4-11.3 5.8-24.5 7-37.4 8.2-11.8 0.9-22.8 6.9-22.8 20.3 0 12.7 11 15.9 22.5 15.9z"/>
		<path id="Layer" class="s0" d="m530 414.5h70.5l-52.7 250.8h-70.3z"/>
		<path id="Layer" class="s0" d="m615.2 482.9h68.3l-5 24h0.7c14.1-17.3 34.5-28.6 58-28.6 24.2 0 45.1 7.7 49.9 30.2 15.1-18.9 35.9-30.2 60.4-30.2 35.9 0 59 16.6 59 54.2 0 8.4-2.9 20.6-4.4 28.8l-22.3 104h-70.2l18.7-87c0.7-3.6 4.3-21.3 4.3-26.6 0-11.5-6.7-17.5-18.2-17.5-13.9 0-23.7 7.7-26.6 21.1l-24.2 110.3h-70.3l21.4-97.6c0.9-4.6 2.8-12 2.8-16.8 0-11.7-6.4-16.8-17.7-16.8-17.5 0-26.4 11.3-29.5 27.1l-22.8 104.3h-70.7z"/>
		<path id="Layer" class="s0" d="m1021.5 463.2h-70.2l10.3-48.9h70.2zm-74.3 19.7h70.3l-38.4 182.2h-70.2z"/>
		<path id="Layer" fill-rule="evenodd" class="s0" d="m1042.4 538c11-48.4 48.9-59.7 94.2-59.7 33.3 0 89.4 4.3 89.4 48.5 0 28.5-22.5 110.2-22.5 122.2 1.5 13.9 0 7.7 2.9 16.1h-69.1c-1.6-5.8-2.8-11.5-2.4-17.5h-0.7c-12.4 14.6-36.2 22.1-56.8 22.1-31.6 0-59.7-13.7-59.7-48.5 0-48.2 36.2-61.1 89.2-65 19.9-1.4 51.5 1.5 51.5-21 0-12.8-11.2-15.9-22-15.9-14.2 0-24.2 5.1-28.1 18.7zm68.1 90.7c23.8 0 33.3-17.3 37.7-44.4-11.3 5.8-24.5 7-37.4 8.2-11.8 0.9-22.8 6.9-22.8 20.3 0.2 12.7 11.3 15.9 22.5 15.9z"/>
		<path id="Layer" fill-rule="evenodd" class="s0" d="m794 719.5h35.7c5.3 0 10.1 0.5 13.9 1.5 3.9 0.9 7.2 2.1 9.9 3.8 2.6 1.7 4.5 3.8 5.7 6.2 1.2 2.4 1.9 5.3 1.9 8.4 0 2.9-0.4 5.8-1.4 8.2-1 2.4-2.4 4.3-4.1 6.2-1.6 1.7-3.8 3.1-6.2 4.3-2.4 1.2-5.3 2.2-8.2 2.7 2.9 0.4 5.6 1.2 7.7 2.4 2.2 1.2 4.1 2.6 5.5 4.3 1.5 1.7 2.7 3.6 3.4 5.5 0.7 2.2 1.2 4.3 1.2 6.7 0 5-1 9.4-3.1 12.7-2.2 3.4-4.8 6.2-8.4 8.2q-5.4 2.8-12.2 4.3c-4.6 0.9-9.6 1.2-14.9 1.2h-43.2zm3.9 73.3h20.1q5.8 0 10.1-0.7 4.3-0.7 7.2-2.1c1.9-1 3.3-2.4 4-4.1q1.5-2.5 1.5-6.5c0-3.6-1.5-6.5-4.1-8.6q-4.3-2.9-13.7-2.9h-20.1zm7.4-38.3h18c3.6 0 6.5-0.3 9.1-0.8 2.4-0.4 4.6-1.2 6.3-2.1 1.6-1 2.6-2.2 3.3-3.9 0.7-1.4 1-3.3 1-5.5 0-1.9-0.3-3.3-1-4.5q-1.1-1.8-2.9-2.9c-1.2-0.7-2.8-1.2-4.8-1.4-1.9-0.3-4-0.5-6.4-0.5h-18.5z"/>
	</g>
	<g id="Layer">
		<path id="Layer" class="s0" d="m909.3 714.7l-4.8 25c-0.2 0.9-0.2 1.9-0.4 2.8-0.3 1-0.5 2-0.8 3.2q-0.3 1.4-0.7 2.8c-0.2 1-0.5 1.7-0.5 2.7h0.3c1.2-1.7 2.6-3.4 4.1-4.8 1.4-1.5 3.1-2.9 5-4.1 1.9-1.2 3.8-2.2 6-2.6 2.1-0.8 4.8-1 7.4-1 6.3 0 10.8 1.4 13.9 4.6 3.1 3.1 4.6 7.4 4.6 12.9 0 0.7 0 1.7-0.3 2.6 0 1-0.2 2-0.2 2.9-0.2 1-0.2 1.9-0.5 2.7-0.2 0.9-0.2 1.4-0.5 2.1l-7.6 40.3h-16.8l7.2-36.7c0.2-0.7 0.2-1.7 0.5-2.6 0.2-1 0.4-1.9 0.4-2.9 0.3-1 0.3-1.9 0.5-2.6 0-1 0.3-1.5 0.3-2.2 0-2.6-0.8-4.5-2.4-6-1.5-1.4-3.9-2.1-7-2.1-1.9 0-3.8 0.4-5.7 1.2-2 0.7-3.6 1.9-5.3 3.6-1.7 1.4-3.1 3.3-4.3 5.5-1.2 2.1-2.2 4.5-2.7 7.2l-7.2 37.4h-17l17.3-91.6h17.2z"/>
		<path id="Layer" fill-rule="evenodd" class="s0" d="m1020.1 805.8c-1.7 0.8-3.4 1-5 1.2-1.7 0.3-3.6 0.3-5.3 0.3-4.1 0-7.2-1-9.4-2.7-2.1-1.6-3.3-4-3.3-6.7 0-0.7 0-1.2 0-1.9 0-0.7 0.2-1.4 0.2-1.9h-0.5c-1.4 2.2-2.8 4.1-4 5.7-1.5 1.7-2.9 3.2-4.8 4.4-1.7 1.2-3.6 2.1-5.8 2.6-2.1 0.7-4.5 1-7.4 1-3.1 0-6-0.5-8.2-1.5-2.4-0.9-4.3-2.4-5.7-4.1-1.5-1.6-2.7-3.6-3.4-5.7-0.7-2.2-1.2-4.6-1.2-6.7q0-5.1 1.5-8.7c0.9-2.4 2.1-4.5 3.8-6.2 1.7-1.7 3.4-3.1 5.5-4.1 2.2-0.9 4.3-1.9 6.7-2.4 2.4-0.7 5.1-0.9 7.7-1.2 2.6-0.2 5.3-0.4 7.7-0.4l11.5-0.3 0.5-2.1c0.2-1.2 0.4-2.4 0.7-3.2 0.2-0.9 0.2-1.6 0.2-2.6 0-2.6-0.7-4.5-2.1-6-1.5-1.2-3.4-1.9-5.6-1.9-1.2 0-2.3 0-3.5 0.2-1.2 0.3-2.4 0.5-3.6 1.2-1.2 0.5-2.2 1.5-3.2 2.7-0.9 1.2-1.6 2.6-2.1 4.5l-15.8-1.9c0.7-2.6 1.6-5.3 3.1-7.4q2.1-3.3 5.7-5.8c2.4-1.7 5.1-2.9 8.4-3.6 3.4-0.9 7-1.2 11.3-1.2 8.4 0 14.4 1.5 18.4 4.6 3.9 2.9 5.8 7.4 5.8 13.4 0 1.2-0.2 2.9-0.5 4.6-0.2 1.6-0.7 3.3-0.9 5l-4.4 21.6c-0.2 0.7-0.2 1.4-0.2 2.1 0 0.8-0.2 1.5-0.2 2.2q0 1.4 0.7 2.2c0.5 0.4 0.9 0.9 1.4 1.2 0.5 0.2 1 0.4 1.7 0.4 0.5 0 1 0 1.2 0 0.5 0 1.2 0 1.7 0 0.5 0 1.2-0.2 2.1-0.4zm-21.3-30h-9.8c-4.8 0-8.4 0.9-11.3 2.9-2.6 1.9-4.1 4.5-4.1 7.9 0 1.6 0.3 2.8 0.7 4 0.5 1.2 1.2 2.2 2 2.9 0.7 0.7 1.6 1.2 2.8 1.7 1 0.2 2.2 0.5 3.4 0.5 1.2 0 2.4-0.3 3.8-0.7 1.5-0.5 2.9-1.2 4.4-2.4 1.4-1.2 2.6-2.7 3.8-4.4 1.2-1.9 2.1-4 2.9-6.9z"/>
		<path id="Layer" class="s0" d="m1082 754.5q-1.5-0.3-2.9-0.7c-1-0.2-2.4-0.2-3.9-0.2-4.8 0-8.8 1.7-11.7 5.2-3.1 3.6-5.3 8.9-6.7 16.4l-6 31.4h-16.6l9.6-50.6q0.4-2.2 0.8-4.3c0.2-1.5 0.4-2.9 0.7-4.1 0.2-1.5 0.5-2.7 0.5-3.9 0.2-1.2 0.2-2.1 0.4-3.1h15.9c0 1-0.3 1.9-0.5 3.1-0.3 1.2-0.3 2.4-0.5 3.6-0.2 1.2-0.2 2.4-0.5 3.6-0.2 1.2-0.2 2.2-0.5 2.9h0.3c1.4-2.4 2.6-4.8 4.1-6.5 1.4-1.9 2.6-3.3 4-4.5 1.5-1.2 2.9-2.2 4.6-2.7 1.7-0.4 3.3-0.9 5.5-0.9 0.5 0 1 0 1.7 0 0.5 0 1.2 0.2 1.7 0.2 0.4 0 1.2 0.3 1.6 0.3 0.5 0 1 0.2 1.2 0.2z"/>
		<path id="Layer" fill-rule="evenodd" class="s0" d="m1150 805.8c-1.6 0.8-3.3 1-5 1.2-1.7 0.3-3.6 0.3-5.3 0.3-4 0-7.2-1-9.3-2.7-2.2-1.6-3.4-4-3.4-6.7 0-0.7 0-1.2 0-1.9 0-0.7 0.3-1.4 0.3-1.9h-0.5c-1.4 2.2-2.9 4.1-4.1 5.7-1.4 1.7-2.9 3.2-4.8 4.4-1.7 1.2-3.6 2.1-5.7 2.6-2.2 0.7-4.6 1-7.5 1-3.1 0-6-0.5-8.1-1.5-2.4-0.9-4.3-2.4-5.8-4.1-1.4-1.6-2.6-3.6-3.3-5.7-0.7-2.2-1.2-4.6-1.2-6.7q0-5.1 1.4-8.7c1-2.4 2.2-4.5 3.8-6.2 1.7-1.7 3.4-3.1 5.6-4.1 2.1-0.9 4.3-1.9 6.7-2.4 2.4-0.7 5-0.9 7.6-1.2 2.7-0.2 5.3-0.4 7.7-0.4l11.5-0.3 0.5-2.1c0.2-1.2 0.5-2.4 0.7-3.2 0.3-0.9 0.3-1.6 0.3-2.6 0-2.6-0.8-4.5-2.2-6-1.4-1.2-3.3-1.9-5.5-1.9-1.2 0-2.4 0-3.6 0.2-1.2 0.3-2.4 0.5-3.6 1.2-1.2 0.5-2.2 1.5-3.1 2.7-1 1.2-1.7 2.6-2.2 4.5l-15.8-1.9c0.7-2.6 1.7-5.3 3.1-7.4q2.2-3.3 5.8-5.8c2.4-1.7 5-2.9 8.4-3.6 3.3-0.9 6.9-1.2 11.2-1.2 8.4 0 14.4 1.5 18.5 4.6 3.8 2.9 5.7 7.4 5.7 13.4 0 1.2-0.2 2.9-0.4 4.6-0.3 1.6-0.8 3.3-1 5l-4.3 21.6c-0.2 0.7-0.2 1.4-0.2 2.1 0 0.8-0.3 1.5-0.3 2.2q0 1.4 0.7 2.2c0.5 0.4 1 0.9 1.5 1.2 0.5 0.2 0.9 0.4 1.7 0.4 0.4 0 0.9 0 1.1 0 0.5 0 1.2 0 1.7 0 0.5 0 1.2-0.2 2.2-0.4zm-21.4-30h-9.8c-4.8 0-8.4 0.9-11.3 2.9-2.6 1.9-4 4.5-4 7.9 0 1.6 0.2 2.8 0.7 4 0.5 1.2 1.2 2.2 1.9 2.9 0.7 0.7 1.7 1.2 2.9 1.7 0.9 0.2 2.1 0.5 3.3 0.5 1.2 0 2.4-0.3 3.9-0.7 1.4-0.5 2.9-1.2 4.3-2.4 1.4-1.2 2.6-2.7 3.8-4.4 1.2-1.9 2.2-4 2.9-6.9z"/>
	</g>
	<g id="Layer">
		<path id="Layer" class="s0" d="m1194.6 805.8c-1.4 0.5-3.1 0.8-4.8 1-1.9 0.2-3.8 0.5-5.7 0.5-2.2 0-4.3-0.3-6.2-1-2-0.5-3.4-1.4-4.8-2.6-1.5-1.2-2.4-2.7-3.2-4.3-0.7-1.7-0.9-3.9-0.9-6 0-1.9 0-3.6 0.2-5.3q0.4-2.5 0.7-4.3l5.8-32.4h-8.4l2.2-11.7h9.3l7.9-15.6h10.1l-2.6 15.6h11.5l-1.9 11.7h-11.8l-6 32.9c-0.2 0.7-0.2 1.9-0.5 2.8-0.2 1.2-0.2 2.2-0.2 2.9 0 1.7 0.5 3.1 1.4 3.9 1 0.9 2.2 1.2 3.6 1.2 1 0 1.9 0 2.9-0.3 1-0.2 2.2-0.2 3.4-0.5z"/>
		<path id="Layer" class="s1" d="m1342.3 310.7c-18-17.7-60.6-30.9-91.6-25.9-5 0.8-7.6 2.2-3.6 6.5 9.9 10.6 62.4 42.7 12.5 88.7 55.6-19.2 100.2-50.1 82.7-69.3z"/>
	</g>
	<g id="Layer">
		<g id="Clip-Path" clip-path="url(#cp1)">
			<path id="Layer" class="s2" d="m1171.9 657.4l321.7-128-123.9-311.5-321.8 128.1z"/>
		</g>
	</g>
	<g id="Layer">
		<path id="Layer" class="s3" d="m1169.7 389.6c24.5-6.2 57.8-35.7 69.3-64.5 1.9-4.8 1.9-7.7-3.8-6.5-14.2 3.2-69.1 31.2-83.7-34.7-11.5 57.3-7.4 111 18.2 105.7z"/>
	</g>
	<g id="Layer">
		<g id="Clip-Path" clip-path="url(#cp2)">
			<path id="Layer" class="s4" d="m986.1 140l-41.3 260.4 240.7 38.1 41.3-260.4z"/>
		</g>
	</g>
	<g id="Layer">
		<path id="Layer" class="s5" d="m1189.8 202.6c-6.4 24.2 2.9 67.6 22.3 91.6 3.4 4.1 5.8 5.5 7.7-0.3 4.3-13.6 6.7-74.8 71.9-54.6-44.6-38.1-93.7-61.4-101.9-36.7z"/>
	</g>
	<g id="Layer">
		<g id="Clip-Path" clip-path="url(#cp3)">
			<path id="Layer" class="s6" d="m1543 205.7l-255.3-204.7-201.2 251 255.6 204.5z"/>
		</g>
	</g>
</svg>