<svg version="1.2" xmlns="http://www.w3.org/2000/svg" viewBox="0 0 1544 695" width="1544" height="695">
	<title>logo (10)-svg</title>
	<style>
		.s0 { fill: #58ab40 } 
		.s1 { fill: #f58220 } 
		.s2 { fill: #000000 } 
		.s3 { fill: #636467 } 
	</style>
	<g>
		<path fill-rule="evenodd" class="s0" d="m1029.3 274.1c-30.3 78.8 17.2 40.5 171-49 140.1-81.3 228.8-142.2 272.4-225 6.2 134.9-64.9 210.5-317.7 366.1-152.4 93.8-206.2 113.6-190.3 55.5 9.1-33.1 16.7-55.8 23.8-76.2-0.3 1.1 0.5-1.1 0 0 20.9-37.4 28.6-48.7 40.8-71.4z"/>
		<path fill-rule="evenodd" class="s1" d="m911.2 171c25.5-8.2 59.7-16.2 93.4-23.8 94-21 61.7 51.5 24.1 128.3-11.6 23.8-19.3 32.6-39.9 70 14.7-45.9 32-71.7-2-66-35.1 5.7-73.4 16.7-103.9 26.3z"/>
		<path fill-rule="evenodd" class="s2" d="m309.2 567.1c-9.9-4-20.4-6.3-30.9-6.3-21.2 0-42.4 13.4-42.4 36.9 0 35.7 43.9 31.2 43.9 57.5 0 10.8-8.3 23-27.8 23-9.1 0-19.5-3.4-27.2-8.3l-5.9 17c10.5 4 20.9 7.4 35.9 7.4 30.9 0 44.5-22.1 44.5-41.4 0-33.7-43.9-34-43.9-55.5 0-15.3 13.3-20.1 25.5-20.1 9.9 0 17.3 2.5 23.5 6.2z"/>
		<path class="s2" d="m423 563.1h-98.5l-3.4 16.5h39.9l-24.1 112.4h18.5l24.3-112.4h39.9z"/>
		<path class="s2" d="m413.4 692h72.8l3.4-16.1h-53.8l9.3-42.5h48.1l3.4-16.4h-47.8l8.2-37.4h51l3.7-16.5h-70z"/>
		<path class="s2" d="m515.3 692h72.5l3.7-16.1h-54.1l9.4-42.5h48.4l3.1-16.4h-47.9l8.3-37.4h50.9l3.7-16.5h-69.9z"/>
		<path class="s2" d="m616.1 692h72.5l3.1-16.1h-53.2l24.4-112.8h-18.7z"/>
		<path fill-rule="evenodd" class="s2" d="m821.1 657.2c9.1-9.9 13.1-22.4 15.6-34.6h16.4c-3.1 17.9-8.7 35.1-22.9 48.2l14.2 21.5h-20.4l-6.3-9.9c-8.7 7.1-21.5 11.9-33.9 11.9-27.2 0-43.9-13-43.9-36.3 0-21.5 18.1-34.2 36.8-38.5-6.5-8.5-9.9-17-9.9-27.8 0-19 18.7-30.6 35.6-30.6 17.9 0 34.6 8 34.6 28.4 0 21.5-18.7 30.6-36.3 37.1zm-36.8-25.2c-12.1 3.1-26.3 9.9-26.3 25.2 0 14.1 11.3 22.9 24.6 22.9 7.1 0 17.3-2.8 26.4-10.7zm36.5-41.7c0-11-8.2-15.6-17.8-15.6-10.5 0-19.3 6.8-19.3 18.7 0 8.3 4.3 14.8 8.8 21 11-2.8 28.3-10.2 28.3-24.1z"/>
		<path fill-rule="evenodd" class="s2" d="m944.9 563.1h32c19.2 0 41.3 8 41.3 33.7 0 25.5-18.7 43.7-53.2 43.7h-18.4l-11.4 51.5h-18.4zm5.1 61.2h9.9c19 0 38.8-3.7 38.8-24.6 0-17.9-13.6-20.1-29.1-20.1h-9.7z"/>
		<path fill-rule="evenodd" class="s2" d="m1097.8 561.1c32.8 0 52.1 19.3 52.1 52.2 0 40.8-24.1 81-70.8 81-35.4 0-54.1-19-54.1-54.7 0-36.5 25.5-78.8 72.8-78.5zm-17.9 117.1c31.7 0 50.4-34.3 50.4-62.4 0-24.6-11-38.5-33.1-38.5-31.7 0-52.7 30-52.7 62.9 0 22.9 12.2 37.7 35.4 38z"/>
		<path class="s2" d="m1180.5 692h24.3l51.3-111.6h0.5l2.6 111.6h24l67.4-128.9h-19.8l-55.5 110.5h-0.6l-3.1-110.5h-24.6l-51.3 110.2h-0.2l-7.1-110.2h-18.4z"/>
		<path class="s2" d="m1340.7 692h72.8l3.4-16.1h-53.8l9.3-42.5h48.2l3.1-16.4h-47.6l8.2-37.4h51l3.7-16.5h-70z"/>
		<path fill-rule="evenodd" class="s2" d="m1470.1 563.1h25.2c18.1 0 48.2 0 48.2 31.5 0 17.5-14.2 32.3-31.5 34.8 9.6 6 12.5 25.5 15 35.4l7.1 27.2h-19.5l-7.7-33.7c-4.8-20.7-7.9-23.5-17.5-23.5h-16.5l-11.8 57.2h-18.4zm7 55.9h14.5c13 0 32.5-4.3 32.5-21.6 0-13.6-7.6-17.8-21.8-17.8h-17.2z"/>
		<path class="s3" d="m266.2 514.7l33.4-159.8h43.3l66.5 86.4h1.2l18.1-86.4h47.8l-33.7 159.8h-45l-65.7-84.2h-0.5l-17.9 84.2z"/>
		<path fill-rule="evenodd" class="s3" d="m472.3 514.7l33.4-159.8h84.4c52.4 0 79.3 32.5 68.5 84.1-12.2 58.4-54.6 75.7-112.7 75.7zm80.7-124.1l-18.7 88.1h8.8c36.8-0.6 52.7-10.8 59.5-43.4 7-34-8-44.7-41.1-44.7z"/>
		<path class="s3" d="m634.3 514.7l107-159.8h58.9l28.9 159.8h-60.6l-13.9-97.5-0.6-0.3-60.6 97.8z"/>
		<path class="s3" d="m838.1 514.7l33.7-159.8h55l-26.4 123.8h64.3l-7.4 36z"/>
		<path class="s3" d="m182.1 514.7l33.7-159.8h54.6l-33.7 159.8z"/>
		<path class="s3" d="m634.3 514.7l107-159.8h58.9l28.9 159.8h-60.6l-13.9-97.5-0.6-0.3-60.6 97.8z"/>
		<path fill-rule="evenodd" class="s3" d="m13 501.6c79.3 17 85.3-26.6 90.3-47.9 5.1-21.2 29.8-138.5 29.8-138.5h61.7c0 0-16.4 77.6-31.1 147.9-10.8 49-48.2 85.9-114.4 81.3-19.6-1.4-35.7-7.9-43.4-13.9 0 0-4.5-3.1-5.1-3.7l7.7-26.3c0.6 0.3 3.4 0.9 4.5 1.1z"/>
	</g>
</svg>