<svg version="1.2" xmlns="http://www.w3.org/2000/svg" viewBox="0 0 1554 1677" width="1554" height="1677"><style>.a{fill:#023f88}</style><path class="a" d="m415.8 1217.6c-8.4-7.2-14.4-12.2-20.6-17.4-45-37.1-81.6-81.5-113.5-129.5-19.6-29.5-34.9-61.2-48.2-94-14-35.1-23-71.3-31.6-108-15.5-67.1-12.5-134.7-2-201.6 5.2-33.2 14.2-66.4 26.3-98 20.9-55.1 50.8-105.7 86.9-152.8 33.4-43.6 73.2-80.9 117.1-113.9 41-31 86.6-53.4 134.4-72 33.3-13 67.8-20.8 102.9-27.8 41.5-8.2 83.3-11.5 125.2-11.3 30.2 0.2 60.7 4.4 90.3 10.2 32.2 6.1 64.1 14.3 94.9 25 30.5 10.8 60 24.9 88.9 39.2 37.2 18.1 68.9 44.3 100.5 70.6 28 23.4 53 49.7 76 77.9 23.5 29.2 44.3 60.3 60.5 94.1 9.7 20.2 20.4 40.4 27.3 61.6 9.7 29.5 17.2 59.9 23.7 90.1 5.2 24.1 9 48.6 10.6 73.1 1.7 23 0.4 46.2-0.5 69.2-0.9 18.5-2.3 37.1-5.6 55.3-5.1 27.8-9.9 56-18.5 82.7-15.7 48.4-38.5 93.9-68 135.6-23.3 32.8-48.7 64.4-77.9 92.6-14.5 14.1-30.8 26.7-46.5 39.6-3 2.6-6.7 4.1-10.2 6.2 0.9 1.5 1.8 2.8 2.8 4.2 3.1 0.4 6.3 1 9.5 1 68.5 0 136.9-0.4 205.4-0.2 14.4 0 14.4 0.3 14.4 14.6 0 141.6 0 283.3 0 424.8 0 19.1 1.9 18-17.9 17.8-108-0.2-216.1 0-324.1 0q-381.8 0-763.8 0c-20.9 0-41.6-0.4-62.6 0-8.6 0.2-12.1-2.2-12.1-11.5 0.4-145.2 0.4-290.5 0.2-435.9 0-7.8 2.4-10.4 10.1-10.4 68.5 0.2 136.9 0.4 205.4 0.4 2.4 0.2 5-0.6 10.3-1.5zm394.6-893.3c7.8 3.3 9.5 8.9 7.7 16.5-0.6 2.6 0 6.5 1.6 8.1 1.2 1.3 6.2 0.8 7.5-0.5 1.5-1.7 0.8-5.4 1.3-8 0.6-3 0.8-6.3 2.3-8.7 0.9-1.5 5.2-2.8 5.9-2 2.5 2.4 4.5 5.5 5.8 8.7 0.8 1.6-1.3 4.6-0.5 6.3 1.3 2.4 3.9 4.2 5.9 6.5 1.9-2.1 4.3-3.7 5.3-6 0.7-2-1.5-5.3-0.6-7.2 1.9-3.7 4.9-6.9 7.3-10.4 2.6 3.4 5.4 6.3 7.5 10 0.9 1.5-0.6 4.3-0.4 6.3 0 2.1 0.2 4.9 1.3 5.6 1.3 0.9 4.7 1.1 6 0.2 1.5-1.3 1.8-4.1 2-6.3 0.2-2.4-1.5-5.6-0.4-7.2 1.9-3 5.1-5.2 7.7-7.7 2.4 3.6 5.2 6.9 7.3 10.8 0.5 1.1-1.9 3.7-1.5 5.2 0.7 2.4 2.6 4.4 3.9 6.7 1.5-1.9 3.9-3.5 4.1-5.4 0.4-6.7 0.6-13.5 0-20.2-0.3-5.4 2.3-7.6 6.4-6 4.5 1.9 9.9 4.5 12.1 8.4 3.4 5.9 5.8 13.3 6.2 20 1.1 31.6 1.1 62.9 1.8 94.4 0.2 7.6 1.5 15.2 3 22.9 3 16.1 6.6 32.2 9.9 48.4 1 4.4 2.5 8.9 4 13.3 3.3 9.7 7.4 18.9 10 28.6 4 14.6 6.8 29.7 10.1 44.5 3.4 14.7 7.1 29.3 10.3 44 2.2 10.2 1.9 21.3 6.3 30.2 5.8 11.3 9 22.8 9.8 35.1 0.5 10.5 0.3 20.7 8.7 29.1 2.6 2.6 3.6 7.2 4.5 10.9 4.3 17.5 5.6 35.8 17.2 51 3 4.1 1.5 11.4 2.4 17.1 1 5.4 2.3 10.8 3.9 16 3.6 10.9 7.3 21.8 11.1 32.8 5.4 16.3 3.1 35 17 48.6 1.5 1.5 1.3 4.6 2 6.8 1 2.8 2.3 5.8 3.6 8.6 2.8 6.3 7.6 12.2 8.4 18.7 2.6 23 17.2 39.2 30.8 55.9 4.1 4.8 7.3 11.8 7.6 17.9 1.4 17.8 1.4 35.7 1.2 53.7-0.2 8.7 3 12 11.9 12.2 33.6 0.7 67.2 2.2 100.7 2.4 5 0 11.4-3.3 14.7-7.2 9.4-11 18.5-22.5 26-34.7 13.4-22.3 27.4-44.7 38.1-68.5 11-24.4 19.4-50.4 26.9-76.2 6.9-23.7 12.1-48.2 16-72.7 3.2-19.3 4.5-39.3 4.3-58.8-0.1-36.4-3.9-72.7-11.5-108.5-3.6-16.2-5.6-33-11.2-48.4-9.9-27.5-20.6-54.8-33.3-81.1-12.5-25.8-25.9-51.4-42.6-74.6-19.2-26.9-41.4-51.7-63.7-76.4-22.4-24.8-48.3-45.8-75.8-64.9-34.5-23.9-71.3-43.8-110.2-60.1-63.8-26.9-130.1-42.9-199.8-43.2-12.7 0-25.6-1-38.3 0.2-26.3 2-52.8 3.3-78.8 7.7-38.1 6.7-75.8 16.2-111.1 32.7-30.3 14.1-61.3 27.1-90 43.8-42.6 24.6-78.7 57.7-113 92.5-32.3 32.7-57.5 70.5-80.5 110-24.5 42.1-40.5 87.9-53.2 134.5-10.9 39.9-14.6 81.4-15.2 122.8-0.3 27.3 2.3 54.9 5.6 82 3 24.3 6.8 49 14.4 72.1 10.5 31.8 24.1 62.6 37.7 93.2 12.4 27.6 29.4 52.6 49.2 75.6 1.4 1.9 5.6 3.8 7.1 3 9.5-4.6 18.6-10.2 28-15.2 5-2.8 10.4-5 15.7-7.4 5-2.2 8-0.2 10.6 4.2 4.7 8 6.9 8.2 13.8 2.1 9.2-8.4 29.3-4.1 32.5 8.1 3 11.7 12.3 15.8 20.7 20.8 4.7 2.8 9.8 2.1 9.9-5.7 0.4-18.6 2.5-37.1 1-55.5-1.7-18.7 8-30.6 19.6-42.8 3.2 3.5 6.5 7 9.7 10.4 6.7-5.8 6.3-5.6 2.2-11.2-3.9-5.4-11-10.7-6.7-18.5 5.2-9.3 6.4-18.9 7.1-29.1 0.9-12.1 0.9-26.4 7.3-35.7 8.6-12.4 11.4-24.6 12.1-38.7 0.4-7.8 2.3-15.8 4.3-23.4 3.4-12.1 11.1-23.9 10.7-35.6-0.6-20.2 9.9-37.1 12.5-56.2 1.7-12.6 7.6-24.5 10.1-36.9 4.6-23.2 8.2-46.8 12.1-70 0.6-3.3 1.5-6.6 2.4-9.8 3.8-14.3 7.9-28.6 11.1-43 2.9-13.9 5.2-27.9 7.6-41.8 3.6 3.4 7.5 8.6 6.4 10.2-5.4 8-0.2 12.3 3.9 17.8 1.7 2.3 2 5.8 2.4 8.8 1 5.7-0.2 12.4 8.8 12.4 7.7 0 15.5 1.1 18.3-9.5 3.2-11.5 16.6-18 24.8-14.3-0.7 5.2-1.5 10.1-2.2 14.9 1.1 0.5 2.4 1.1 3.5 1.7 3-11.7 9.2-18.4 21.5-15.4 0.8 0.1 2.1-0.2 2.6-0.6 11.1-8.2 21.1 1.3 31.6 1.7 5.8 0.2 11.6-1 17.2-2.3 1.1-0.1 2.6-5 2.4-5-4.1-2.2-8.4-4.4-12.7-6.1-1.7-0.7-3.7-0.4-5.6-0.4-13.1 0-26.1 0.2-39.2 0-6.2 0-12.5-0.7-18.7-1.1 0-0.9 0-1.8 0-2.6 16.3-4.6 33.6 1.9 49.9-3.5-6.7-2.2-13.3-2.2-20-2.2-9.9 0-21.5 3.3-23.2-13.6-3.5 4.5-5.6 7.3-7.6 9.9-3.2-3-5.3-6-8.2-7.3-4.9-1.8-10.5-1.6-15.2-3.9-5.2-2.6-7.4-7.2-2.2-12.9 2.2 2 4.1 3.9 6.3 5.9 3.2-2.6 5.8-4.8 6.6-5.4 7.1 1.9 12.3 3.9 17.3 4.1 5.8 0.2 8.3 3 9.4 8 2.2 9.6 7.3 11.8 17.5 7.4-0.7-2.8-1.6-5.6-2.4-8.5q-0.8 0.8-1.7 1.6c-2.8-2-5.4-3.9-8.2-5.9 1.7-1.7 3.7-5.2 5.1-5 9.1 1.5 20.7-6.9 26.3 6.1 6.7-2.8 12.1-6.1 18.1-7.4 4.9-0.9 12.1-2.8 12.7 5.9 0.4 6 3.6 9.3 8.8 7.6 3-0.9 5.2-5.4 6.9-8.7 1.9-3.7 1.9-8.9 4.5-11.9 5.6-6.3 31.3-6.6 38.8-1.3 0.2 0.2 0 1.2-0.2 2.3-7.6 0-15.1 0-22.8 0-9.9 0-15.5 5-16 14.8-0.8 11.5-2.3 12.6-14.8 12.8-2 0-3.9 2.6-5.8 3.9 1.9 2 3.6 4.3 5.8 5.8 3 1.8 8.2 1.8 9.2 4.2 2.8 6.1 3.7 13 5.8 19.5 0.7 2.2 2.6 4.3 4.1 6.3 1.5-2 3.5-3.9 4.3-6.1 0.7-2.6-0.2-5.6 0.5-8.2 0.8-2.6 2.7-6.8 4-6.8 3.5 0 7.6 1.3 10.4 3.3 2.1 1.7 2.1 5.6 3.2 8.3 1.3 3.2 2.8 6.2 4.3 9.3q3.4-3.3 6.7-6.7c0.4-0.3 1.1-0.3-0.9 0.2 7.6 2.8 13.1 5.2 18.8 6.5 1 0.2 4.3-5.2 4.5-8 0.2-10.3-7.8-12-16.2-13.7 2.8-1.7 5.4-3.1 8.8-5.2-3.2-2-5.7-3.7-9-5.7 13.6-4.9 13.8-4.9 12.7-18.4-0.4-5.6-1.7-10.9-2.3-16.5-0.7-7.4-4.6-11.3-11.9-11.3-13.1 0-26.2-0.2-39.2 0.5-6.7 0.4-13.3 2.3-19.8 3.9-4.9 1.3-9.4 3.2-14 4.9-0.2-0.8-0.6-1.7-0.8-2.5 1.9-2 3.6-3.9 6-6.3-2.1-0.5-3-1.1-3.9-1.1-9.4 1.1-20.8-5.4-27.1 7.4-0.7 1.5-6.7 0.6-11 0.8 0.7-3.5 1.3-5.6 1.8-7.8-0.7-0.6-1.6-0.9-2.4-1.5-1.8 2.6-3.5 5.2-6.1 9.1-12.4-0.7-25.8-1.9-39.3-2.2-9.9-0.4-19.9 0-29.8 0.3-1.7 0-3.4 1.9-4.9 3 0.9 1.1 1.7 3.2 2.6 3.2 7.9 0 9.7 5.2 10.5 11.5 0.7 6.8-1.3 12.6-9 15 0.8-3.5 3.7-6.1 4.5-9.3 0.7-3.3-0.8-7-1.5-12.8-9.2 7.1-15.7 12.1-23.5 18.2 1.8-5.9 3.5-10.9 5.2-16.1 1.9-5.6 4.1-11 5.2-16.6 1.9-9.8 2.6-19.8 4.1-29.6 1.9-12.5 5.1-24.7 6.2-36.9 1.1-13.8 0.7-27.7 0.9-41.4 0.2-6.7 0.8-13.4 0.2-19.9-1.5-18.1-7.8-36.3-1.3-54.7 5.6-16.1 7.9-24.1 23.4-18.9-4.9 26.3-4.9 26.3 1.8 26.9 0-4.3-1.3-9.1 0.4-12.6 1.7-3.4 6.2-5.2 9.5-7.8 1.7 4.1 3.6 8.3 4.9 12.4 0.2 0.8-1.9 2.1-1.9 3 0 2.8-0.6 6.9 0.9 8.2 1.9 1.4 6 1.4 8.4 0.3 1.4-0.5 1.5-4.6 1.7-7 0.2-1.5-1.3-3.4-0.7-4.5 1.8-3.5 4.3-6.7 6.5-9.8 2.6 2.4 6.2 4.6 7.9 7.6 1.1 2-0.6 5.4-0.2 8.2 0.5 2.7 1.5 5.5 3.3 7.6 0.8 0.9 4.9 0.5 5.6-0.4 1.2-2 2.1-5.2 1.2-7.1-3-6.8 1.5-11.3 4.8-15.7 2.3-3 6.9-4.7 8.4 1.1 1.5 5.6 1.7 11.3 3 16.9 0.6 2.2 2.2 4.2 3.6 6.3 1.8-1.7 4.8-3.2 5.6-5.2 1.1-3.4-0.4-7.8 0.9-11 1.5-3.7 5-6.5 7.6-9.6 2.1 3.1 4.5 6.1 6 9.5 1.1 2.7 0.8 6.1 1.7 9 0.8 2.6 2.4 5.1 3.7 7.5 1.3-2.4 3.8-4.9 3.8-7.1-0.2-6.8 1.7-13.9 8.6-13.9 8 0 7.6 7.4 7.2 14.1-0.1 2.6 3.4 5.4 5.3 8.2 1.7-3 5.4-6.5 4.8-8.9-1.8-8.4 2.6-12.7 8.1-16.9 12.5 11.3 12.3 15.7 0.5 25.9-3 2.6-4.8 6.2-7.1 9.5-2.8 4.3-5.4 8.7-8.4 12.8-4.1 5.8-8.6 11.1-13.8 18-1.5-1.7-3.9-5-6.9-7.6-2.2-1.9-6.7-4.6-7.5-4.1-6.9 6.1-9.5-0.4-13.4-3.7-2.3-2-6.2-5-7.7-4.3-2.8 1.3-4.6 5-6.3 8-1.2 2.1-1.3 4.7-2.6 9.3-3.6-5.4-5.6-8.5-7.7-11.7-7.8 4.5-10.1 3.3-13.6-7.2-0.6-1.5-0.2-3.4-0.2-5q2.5 0 5 0c3-0.2 6-0.4 9.2-0.6 2-0.2 4.1 0.2 5.9-0.4 2.7-0.5 5.1-1.6 7.5-2.6-1.8-1.6-3.5-4.4-5.4-4.6-16.4-1.3-32.9-2.8-49.3-2.8-15.5 0-19.6 5.6-17.9 21 0.2 2.2 1.5 4.4 0.9 6.3-1.1 4.6-3 9.1-4.7 13.5-1.3 3.2-4.1 6.3-3.9 9.1 0.2 1.7 5.2 3.7 8.2 4.1 21.5 1.5 42.8 3 64.3 3.7 3.3 0.2 6.9-2.8 10.4-4.1 2.1-0.7 5.8-2.2 5.8-2 4.5 11.1 9.5 1.8 14.2-0.2 6.4 6.3 12.7 10 19.6 1.1 0.8-1.1 2.8-2 4.1-1.8 12.2 1.8 14.2-5.2 13.9-14.9-0.4-6.7 3.9-11.1 10-10.6 3.6 0.4 6.8 5.4 10.3 8.6-4.7 0.9-8.8 0.9-9 1.8-0.5 3.2-0.1 6.5 0.8 9.7 0.2 0.7 3.5 0.3 5.4 0.7 1.1 0.2 2.3 0.6 3.2 1.1 6.9 4.5 12.3 3.2 15.1-4.6 1.7-4.8 1.1-10.4 2.4-15.2 1.2-3.9 3.6-7.4 5.3-11.3 3 3.3 7.3 6.3 8.4 10.2 1.3 3.7-0.6 8.3-1.1 12.6-0.6 3-1.7 5.9-2.1 8.9-0.7 9.1 4.1 12.4 12.5 9.1 2.6-1 6.2 0.2 9.4 0.5 1.4 0.2 2.8 1.3 4.1 1.3 5.6 0.4 11 0.6 16.6 0.6 3 0 6-0.8 9.1-0.9 7.1-0.8 14.6-3 21.1-1.5 8.4 1.8 11.1-0.8 11.4-8 0.2-7.2 0-14.5 0-21.9 11.2 3.2 11.4 3.9 7.7 13.6-2.1 5.1-2.1 11.1-3.2 16.8 1.1 0.4 2.4 0.8 3.6 1.3 1.8-2 4.8-3.9 5.4-6.3 2.2-10.7 4.5-21.5 5-32.2 1-15.1-0.5-16.6-15.9-16.7-32.6-0.4-65.3-0.2-98-0.2-8.6 0-13.5 8.5-10.1 16.7 0.6 1.3 0.8 2.9 1.7 6.3-7.5-5.2-11-9.7-9.5-17.3 1.6-8.7 1.8-17.8 4.3-26.1 1.1-3.6 6.5-5.8 10-8.8q2.3 5.9 4.5 11.7c0.2 0.4-0.5 1.3-0.3 1.7 0.7 2.8 0.9 5.9 2.4 8.2 0.5 0.9 5 0.9 5.8 0 1.3-2.1 2.4-5 1.8-7.5-0.7-7.4 2.1-12.4 7.7-17zm106.6 618c-6.7-7-12.1 3.2-19 0.2 0.7 7.3-3.2 15.2 7.5 16.7 4.1-5.9 7.8-11.5 11.7-17 0.8 6.1 3.6 12.9 1.5 17.9-3.3 9.1 1.1 9.5 7.5 9.7 22.6 0.5 45.2 1.1 68 1.3 2.6 0 6.5-2.4 7.6-4.6 4.1-8.2 8.1-15.1 19.4-11.9 2.7 0.7 7-2.8 9.8-5.2 0.7-0.8-1-4.3-1.5-6.3-3.4 0.9-6.6 1.7-9.9 2.6-0.6 0.2-1.2 0.4-1.9 0.7-0.6-0.5-1.3-1.3-2.1-1.6-3.1-1.9-6.5-3.8-9.7-5.6-1.6 3-4.1 5.7-4.6 8.9-1 5.4-3.4 7.4-8.6 7.4-2.5 0-6 0.2-6.9 1.7-6.2 9.8-15.7 6.5-24.5 6.8-7.3 0.4-9.7-2.7-9.9-10-0.2-7.4-1.9-15-3.7-22.4-1.3-5.2-12.9-10.4-18.9-10 2.2-2.8 5.2-5.8 8.2-6 13.5-0.3 26.7 6.1 40.5 0.8 1.4-0.6 3.4 1.1 5.3 1.6 2 0.6 4.3 1.7 6.1 1.2 9.6-2.6 18.2-2.8 22.6 5.5 6.2-2 11.8-3.1 16.5-5.7 3.5-1.9 6.3-5.6 9.3-8.4-3.4-1.3-6.7-3.7-10.3-3.9-14.2-0.2-28.5 0.6-42.7 0.4q-38.7-0.3-77.3-1.1c-7.1-0.2-10.9 1.5-8.6 9.4 1.6 6.2-1 10.1-7.1 11.7-2.5 0.8-4.9 1.9-9.4 3.7 10.5 5.2 18.7 3.4 26.9 0.2-3.7-10.7-3.3-11.8 2.8-13.5 2.1 4.1 3 8.7 5.8 10.6 4.1 2.6 9.5 3.3 14.4 4.8 3 0.9 6 1.6 8.2 2.2-4.7 4.5-8 8-11.9 11.7q-2.1-3.9-4.2-7.8c-2.6 1.1-4.6 2.2-6.9 3.3zm-28.7-390.4c-10.5 0.2-22.6-4.7-28.6 9.3-0.6 1.3-3.9 1.6-6 1.8-3.7 0.4-7.4 0.2-11.2 0.4-5.8 0.4-10.6 1.1-12.3 8.3-1.5 6.9 2 10 6.5 13.2 10.9-7.1 10.7-6.9 18.9 1.3 0.9 0.9 5.6 0 6-1.1 2.6-7.3 5.8-7.1 10.1-1.5 8.2 10.4 9.9 10.2 18.8 0.6 3.6-0.2 6.6-1.3 9.7-2.3 2.6-0.7 5.3-2 7.7-1.6 1.9 0.1 3.2 2.7 4.8 4.2-1.6 0.8-3.5 2.1-5.2 1.9-8-0.8-7.5 6.1-9 10.4-0.3 1.5 3 4.8 5.5 6.3 5.6 3.7 9.1 1.6 10-4.8 9.9 1.8 15.7-5.6 14.6-18 3.4 0.5 6.7 0.9 9.7 1.4 1.3 4.1 3 7.5 3.8 11.2 1.3 6.1-2.5 10.5-7.7 10.7-6.5 0.2-6.9 4.1-9.1 8.2-1.9 3.3-5.8 7.4-9.2 7.8-11.2 1.5-22.4 1.7-33.8 2.2-1.9 0-3.9-1.3-5.8-1.8-3-1.2-6.2-3.4-9-3.2-11.2 1.1-22.4 2.8-33.6 4.5-1.5 0.1-2.8 2.4-4.1 3.7 1.7 0.7 3.4 1.8 5.2 2.4 2.7 0.7 5.3 1.3 8.3 1.8-1.7 3.9-2.8 6.5-4 8.9q1.2 0.9 2.3 1.7c2.6-2.6 5.6-4.8 7.6-7.6 5.8-7.6 9.6-8 16.5-2 2.2 1.8 5.6 3.7 8.4 3.5 5.6-0.6 11.2-2.4 18.3-4.1 1.1 0.9 3.7 3.2 7.1 5.7 4.8-8.1 9.5-6.6 17.2-3.7 7.8 3 16.8 10.1 26.7 2.8 0.9-0.7 4.5 0.9 6.3 2.2 4.7 3.4 7.9 3.2 9.9-2.5 1-2.6 2.8-5.6 2.3-8-0.6-2.4-3.4-6-5.3-6-7.3-0.1-14.5 1-21.8 1.2-1.5 0-3.2-1.9-5.3-3.2 1.9-1.7 2.7-2.8 3.6-3.2 5-1.1 10.3-2 15.7-2.9-1.9-1.1-3.6-2.2-5.6-3.5 11.9-7.3 13.6-9.1 12.1-16.9-1.1-5.2-3.7-10.2-5.4-15.4-2.2-6.7-5.2-13.2-6-20.1-1.1-11.1-5.6-14.1-17.2-9 2.8 1.4 5.8 2.2 7.3 4 2.1 2.8 2.8 6.5 4.3 9.7-1.8 0.7-4.5 2.6-5.6 2-2.6-1.6-4.6-4.2-6.7-6.7-1.1-1.3-2.1-2.9-4.1-6.1-1.1 5.4-1.7 8.6-2.4 12.1-14.6 0-28.8 0-41.5 0 3.7-3.9 7.1-7.6 10.5-11.3 1.6 1.3 4.4 3.9 4.6 3.7 7.5-6.9 12.4 0 19.1 3.7 1.3-6.1 6.5-12.1-3.6-15.6-1.6-0.6-3.7-3.5-3.7-5.4-0.2-10-4.5-12-11.8-8.1-1.7 6.1-3.1 10-3.9 13.9-1.3 3.5-0.9 6.3-0.9 8.9zm153.7 430.1c-1.3 3.9-2.8 7.6-3.6 11.5-0.3 2.3 0.4 4.9 0.6 7.1 2.4-1.1 5.2-1.9 7.1-3.5 4.1-3.8 7.8-8 11.6-12.1 0.9-0.9 2.4-3 2.2-3.3-0.9-1.3-2.8-3-3.9-2.8-4.7 0.7-9.4 2-14 3.3-4.1-2.6-8.6-4.8-12.2-8.1-4.1-3.8-7.6-7.1-13.6-3.2 1.9 2.8 3.6 5 6.7 9.5-12.9-2.3-23.9-5-35.3-0.2 4 3.5 6.6 6.1 10.1 9.4-4.7 1.9-7.8 3.2-11 4.5-0.2 1.1-0.2 2.4-0.4 3.5 4.5 1.1 9.5 3.9 13.3 2.6 3.9-1.3 6.5-6.3 10.8-10.7 4.5 2.9 10.7 6.8 16.5 10.7 4.8-6.3 10-12.2 15.1-18.2zm-260.9 266.6v0.2c-183.4 0-366.6 0-550 0-11.4 0-12.2 0.7-12.2 11.8 0 123 0.2 246.2 0.2 369.2 0 18.5 0 18.5 18.9 18.5 364.2 0 728.3 0 1092.3 0.2 7.9 0 11.2-2.2 11.2-10.6-0.1-127-0.1-254.1-0.1-381.2 0-6.6-2.5-8.3-8.8-8.3-183.8 0.2-367.6 0.2-551.5 0.2zm-69.5-349.9c-1.3-0.3-2.6-0.5-3.9-0.9-1 2.2-2.3 4.5-2.4 6.9-0.4 7-0.4 14.3-0.4 21.3 0.4 13.7 5.4 18.6 19.4 18.6 7.1 0 11.2-2.3 10.8-10.2-0.2-7.5 0.6-14.9 1-23.6 2.4 1.9 3.3 2.2 3.3 2.6 0.4 7.4 0.4 14.8 0.8 22.1 0.2 2.6 0.5 5.7 2.2 7.4 3.6 3.5 18.5 2.2 21.7-1.3-1-11.9-1.5-23.6-0.8-35.4 0.6-7.3 8.1-10 19.6-9.5 7.7 0.4 8.3 5.4 8.3 11 0 7 0.1 14.2 0 21.3-0.6 14.5-0.6 14.5 12.8 19.8-33 0-64.4 0-95.6 0 0 0.8-0.2 1.7-0.2 2.4 9.4 1 18.7 1.9 28.2 2.8 0 1-0.1 2.1-0.1 3-10.1 0-20-0.2-30.1 0.2-2.4 0-5.4 1.1-7.1 2.8-0.8 0.7 0.5 5.2 2 6.1 2.1 1.1 5.3 0.4 7.9 0.5 2.6 0.2 6.5-0.7 7.8 0.8 4.3 4.8 7.3 3.9 11.4 0 5.6-5.4 11.6-8.4 20-4.1 7.5 3.9 15.9 4.1 23.9-2.2-2.6-2.3-4.5-3.9-7.8-6.5 6.3-0.4 11.2-0.9 16-0.8 6.9 0.4 14.8-0.3 16.6 9.7 0.2 1.3 4.9 3 6.8 2.4 9.3-3.5 10.2 2.4 10.2 8.9 0.2 7-1.1 14.3-0.1 21.1 0.3 3.2 4.1 5.8 6.3 8.8 1.5-3.2 3.7-6.2 4.1-9.3 1-8.9 0.6-18 1.9-26.7 0.9-7.3 3.7-13.7 13.6-12.6 3 0.3 6.2-1.5 10.8-3-4.1-1.9-6.3-2.8-10.2-4.6 3.7-0.6 5.2-1.2 6.7-1.2 9.2 1 12-3.1 11-12-1.1-10.8-0.9-21.5-1.3-32.5-0.2-5.9-1.9-10-9.1-9.8-7.7 0-8.6 4.1-8.6 10 0.2 8.9 0 17.8 0 26.9-1.2 0-2.5 0-3.6 0.2-0.4-8.7-0.7-17.4-0.9-26.2-0.2-5.5-0.8-10.7-8-11.3-20.2-1.6-40.6-3.5-60.9-5.2-2.6-0.2-6.2-0.5-8.1 1-9.1 6.3-19.4 5.2-29.7 5.2-5.2 0-8.5 1.3-10 7.2-1.3 5.7-4.1 10.9-6.2 16.5-0.6-0.2-1.1-0.2-1.7-0.4 0.8-6.1 1.1-12 1.7-18.2zm22.4 118c-0.4 0.9-0.5 1.7-0.9 2.6-11.4 2.6-22.8 5.2-34.2 7.6-6.5 1.5-12.7 4.5-11.6 11.7 0.4 2.4 7.5 5.4 11.6 5.6 63.1 1.8 126.3 3.3 189.4 4.8 12.1 0.4 24.3 0.4 36.4-0.2 2.4-0.2 6.3-3.3 6.7-5.7 0.6-2.6-1.5-6.5-3.7-8.4-1-0.9-5.8 0.8-7.5 2.6-5.8 6.1-10.6 3.7-15.9-0.4-4.3-3.3-8.6-7.8-13.4-9-12.5-3.2-25.4-4.5-37.9-7.1-3.8-0.7-6.7-3.9-10.5-5.4-2.6-1.1-6.5-2.4-8.2-1.3-13.1 8.6-25.2 8.6-38.5-0.3-4.6-3.2-11.9-3.4-17.7-3-2.4 0.2-4.1 5.7-6.7 8.1-1.5 1.5-4.1 2.5-6.4 2.6-3.7 0.2-7.5-0.3-11.2-0.3-11.2-0.2-12.7-1.7-12.9-12.8-0.2-10.8 0-21.7-0.2-32.5-0.2-6.8-2.4-8.1-8.6-3.9-3.1 2.2-8.2 4.3-11.3 3.2-13.9-4.5-15.7-3.7-15.9 10.5q0 4.2 0 8.4c0.2 14.1 0.4 13.9 14 16.7 5.4 0.9 10.3 3.7 15.1 5.9zm-279.2 193.1c1.1 0.4 2.4 0.8 3.6 1.1 1.1-2 3.1-4.2 3.1-6.3-0.3-16.9-0.9-33.9-1.8-50.8-0.2-2.2-2.1-5.6-4-6.3-6.9-2.4-14-3.7-21.1-5.8-2.8-0.9-5.4-2.7-8.2-4 1.9-3.4 3.2-7.3 5.8-9.7 2.6-2.4 6.5-3.3 9.7-5.2 7.9-4.4 9.2-11.7 3-18.3-1.9-2.1-3.9-3.9-6.3-5.6-6.8-4.5-11.8-9.3-12.7-18-0.8-7.4-19.1-13.2-24.3-8.2-12 11.4-20.6 24.2-18.9 42 0.6 5.9-1.5 16.5-5 17.8-8.8 3.1-12-7.4-17.4-12.5-1.5-1.4-2-5.5-1.1-7.8 0.9-2.2 4.7-5.3 6.3-4.8 8.1 2.3 10.9-1.5 12.2-8.3 0.5-3 1.8-6 3-8.7 3.5-9.3-0.6-15.8-8.3-23.8-7.1 7.4-13.4 14.3-20.1 20.6-1.5 1.5-4.3 1.7-6.6 2.4-2.9 0.9-8.2 1.3-8.4 3-0.9 3.9-1.3 9.6 1.2 12.4 13.4 16 27.6 31.4 41.4 46.9 4.1 4.7 7.9 4.1 11.2-1.1 0.8-1.1 2.8-1.5 4.3-2 0.6 1.7 1.1 3.1 1.3 4.8 0.4 2.2 0.4 4.5 0.4 6.7 2.2-0.9 5.4-1.5 6.7-3.2 4.9-5.9 7.3-3.7 9.7 1.9 2.1 4.4 4.3 8.9 6.8 13.2 2.6 5 5.4 7 10.8 2.6 1.9-1.5 7.3-2.1 8.8-0.6 7.2 7.4 14.7 15.2 14.5 26.7 0.4 3 0.4 6 0.4 8.9zm196.1-177.3c-0.4-0.6-0.7-1.3-0.9-1.9 1.1-0.9 2.4-1.8 3.5-3.1q3.4-3.9 6.7-7.8c-3.3-0.8-6.7-2.2-10-2.1-4.5 0.2-9 2.3-13.3 2.1-6.9-0.4-13.6-2.4-20.4-2.6-45.3-1.3-90.7-2.6-136.1-3.5-9-0.2-12.1 3.7-12 12.6 0.2 12.4 2.3 15.2 12 15.4 16.8 0.3 33.6 0.5 50.4 0.9 46 0.6 92.1 1.3 138 1.7 2.6 0 7.5-2.4 7.5-3.6-0.4-8.5 6.2-10.9 11.6-14.6 1.5-0.9 3.2-4.5 2.8-5.2-1.1-1.7-3.8-3-5.8-3.2-8.2-1.4-12.7 3.6-15.3 10.4-1.9 4.5-4.1 6.5-9.2 4.9-3.3-1.2-6.5-0.4-9.5-0.4zm120.1-262.7c-1.5-0.9-2.2-1.8-3-1.8-15.5-0.4-31-1-46.5-0.8-2.2 0-5.8 3-6.4 5.2-2 8.7-4.4 17.5-4.4 26.4-0.2 11.7 4.8 17 15.3 15.4 6.5-1.1 13.6 0 20.3 0 16.8 0.1 33.7 0.1 50.5 0.1 3.3 0 6.7-0.5 10-0.1 9.4 0.9 18.7 2.6 28.1 3.3 5.8 0.6 8.2-2.4 7.4-8.5-0.7-6.7-0.7-13.6-0.3-20.2 0.5-9-3.4-19.5-7.9-18.6-8.8 1.7-9.9 9.3-10.6 16.3-0.6 4.7-0.8 9.3-1 13.9-0.9 0-2 0.2-3 0.2-1.4-8.9-2.8-18-4.2-27.6 0 0 1.8-1.1 3.5-2.1-0.2-0.9-0.4-1.8-0.4-2.6-6.9 0-14-0.5-20.9 0.2-12.3 1.3-12.7 2.6-11.6 14.7 0.6 7 0.4 14.3-1.1 21.1-0.5 2.6-5.2 5.6-8.4 6-4.7 0.3-9.7-1.5-14.6-2.4 2.7-13.2-3.9-27.5 9.2-38.1zm127.2-293.4c0-0.4 0.2-0.9 0.2-1.3 7.1-0.4 14.2-0.9 22.2-1.3-6.4-8.2-94.9-9.7-103.7-1.9 20.9 0 40.7 0.2 60.4 1.9 0 0.9-0.2 1.7-0.2 2.6-21.5 0.9-43.2 1.8-64.6 2.8-0.4 1.5-0.6 2.9-1 4.6 4.5 2.2 9.2 4.1 13.5 6.5 9.3 5 18.5 7.4 28.2 0.2 1.5-1.1 7.6 1.3 7.6 1.5-1.1 7.6-2.8 15.2-4.5 22.8-1.1-0.2-2.4-0.2-3.5-0.4-1.5-4.3-3-8.7-5.2-15.2-4.1 5.4-6.9 9.3-10.1 13.4-9.2-13.8-16.1-18.2-23.4-14.9 3.4 4.8 6.8 9.8 10.7 15.4-3.8 1.5-6 2.4-11 4.5 5 2.2 7.6 4.2 10.6 4.4q19.3 1.4 38.7 1.7c19.8 0.4 39.7 0.5 59.5 0.5 2.5 0 6-0.7 7.3-2.4 6.9-9.4 0.2-23.3-11.4-26.3-4.5-1.1-8.4-4.8-14.7-8.4 7.3-1.8 11.7-2.9 16-4 0-1 0-2.1 0-3-7.1-1.3-14.3-2.4-21.6-3.7zm-306.9 396.8c2.1 3.8 3.9 7.2 5.6 10.3 4.3-12-0.7-24.6 6.8-35.8 12.1 12.1 19.8 11.9 32.1 1 1.8-1.7 5.8-2.6 8.6-2.1 8.2 1.7 16.4 16.9 14.3 25.4-2.2-1.8-4.2-4.6-6.9-5.5-1.5-0.6-5.8 2.6-5.6 2.9 1.5 4.9 2.6 11.2 6.2 13.8 3.4 2.4 11.2 3.1 14 0.9 3.7-3.2 5.2-9.7 6.5-14.8 0.6-2.1-2.2-4.9-3.3-7.3-1.1-2.8-2.3-5.5-3.2-8.5 0.6-0.6 0.9-1.3 1.5-1.9 9 5.6 18.1 9.9 28.4 1.3-4.7-2-8.4-3.5-12.9-5.3 7.7-2.5 7.7-2.5 23 5.9 3.1-8.9-1-14.3-10.7-14.3-25.6 0-51.1-0.4-76.5-0.5-20.2-0.2-40.4-0.4-60.6-0.8-6.7 0-10.6 2.2-10 9.8 0.1 2.8-0.2 6.9-2.1 8.6-7.1 6.3-8.2 14.1-7.7 22.8 0.4 7.6-3.1 11.3-11.2 11.1-2.6 0-5 2.6-7.6 3.9 3.2 1.7 6.2 4.8 9.3 5 9.2 0.2 18.5-0.9 27.7-1.6 0.7 0 1.5-1.2 3.3-2.6-3.3-2.6-6.3-4.9-9.1-7.5-1.1-1.1-1.9-3.1-1.9-4.6 0-0.7 2.4-2.4 3.6-2 7.8 1.6 11.3-3.6 15.1-9.7 1.7 3 1.7 5.9 3 8.2 0.9 1.6 3.5 2.2 5.4 3.3 0.9-3.1 2.6-6.3 2.6-9.4 0-2.3-2.1-6-3.9-6.5-6.4-1.9-12.9-2.5-19.4-3.6 2-8.5 11-19.8 16.8-20-0.8 3.3-2.1 6.5-2.3 9.8-0.2 2.4 1.3 4.9 1.9 7.3 1.9-1.3 3.9-2.4 5.6-4.1 1.1-0.9 1.1-3.4 2.2-3.9 3-1.3 6.4-2 9.4-3-0.2 3.2 0.7 8.2-1 9.3-8.6 5.9-5.6 13-3.7 21.5 2.6-2.8 4.5-4.6 6.7-6.8zm477.4 267.4c0.2-0.7 0.2-1.5 0.4-2.2 5.7 0 12.8-5 16.4 4.8 0.9 2.6 2.4 5.2 4.3 7.1 0.5 0.5 4.8-1 5.2-2.1 1-3.3 2.1-8.9 0.6-10-4.3-3.3-9.7-6.3-15-6.5-8.6-0.3-16.8 1-24.8-5-3.9-2.9-10.8-1.6-16.4-2.4 12.7 7.6 12.7 7.6 9.1 13.2-11.4-7.6-22-5.2-32.5 4.1 4.5-7.8 4.9-14.3-2.4-18.4-9.2-5-7.1 6.7-12.9 9.3-2.2-3.4-4.1-7.1-6.9-9.7-1.5-1.3-5-0.3-7.7-0.3 0 3.5 0 7 0 11.3-9.5 0-20.3 0-31.2 0 2.9-1.9 5.8-2.3 8.5-3.6 2.4-1.1 4.4-3.3 6.7-5.1-2.6-1.7-5.1-4.3-7.9-4.5-11.7-0.9-23.5-1.3-35.5-1.3-7.8 0-14.1 3.3-18.4 12.4 10.6 0 20.1 0 29.7 0 0 0.8 0 1.7 0 2.4-3.2 0-6.2-0.3-9.4 0.2-2.4 0.4-4.7 1.9-7.1 3 1.3 2.2 2.3 4.6 3.9 6.3 1.9 1.9 4.3 3.3 6.4 4.8-0.4 0.8-0.9 1.5-1.3 2.2-3.2-0.9-6.2-2.5-9.4-2.5-2.4 0-5 2.2-7.4 3.3 1.5 2 2.4 5 4.5 5.9 9.1 4.3 18.4 1.7 24.8-5.9 1.5-1.7 3.9-4.1 5.6-3.7 9.3 1.6 18.9 2.9 27.6 6.3 7.1 2.6 13.1 7.8 19.5-0.8 0.7-0.9 3.3-0.7 5.2-0.7 23.5-0.4 46.9-0.4 70.4-0.9 2.4 0 4.9-2.4 7.3-3.5-2.1-2.1-3.9-4.1-6.2-6-0.5-0.9-2.2-0.9-3.7-1.5zm-281.1-316c0.6 12.2 0.8 23.3 1.9 34.3 0.7 8.5-4.3 10-10.9 10.2-6.9 0.2-15.1 0.7-15.5-8.9-0.3-11.9 1-24 1.7-37.1-1.1 0-6.1-1.3-7.3 0.2-7.6 10.5-18.6 5-28 7-4.3 0.9-9.1 3.7-11.5 7.2-7.3 10.2-4 21.9-3 33.1 0.1 1.3 4.3 3.3 6.5 3.1 14.6-1.3 18.3-5.4 19-20.2 0-1.3 0-2.6 0.4-3.7 1.3-2.4 2.8-4.7 4.3-6.9 1.5 2.2 4.1 4.5 4.3 6.9 0.6 7.6 0.2 15.4 0.2 23.2-3.5 0.3-6.4 0.7-9.2 1.1 13.7 3.5 27.1 4.8 40.6 5.9 12.5 1.1 19-4.4 20.3-16.9 0.6-4.8 1.9-9.4 2.8-14.2 1 0.1 1.7 0.1 2.6 0.3 1.7 5.2 3.6 10.6 6 17.8 7.1-9.8 0-21.7 12.7-28 1.3 6.3 3.2 11.5 3.2 16.9 0.2 16.5 2.4 18.9 19.6 18.4 0.2-1.5 0.8-3.4 0.2-4.5-4.3-9.1-4.7-17.8-0.9-27.6 2.2-6-1.9-10-8.4-10.2-7.9-0.2-15.5 0.2-23.4-0.6-4.7-0.4-10.4-1.1-13.4-4.1-4.7-4.2-9.6-4.6-14.8-2.7zm250.1 229.6c0 0.4 0 0.9 0 1.3 16.4 0 32.9 0.2 49.3-0.2 2.6 0 7.6-2 7.6-2.8q-0.8-12-3.3-23.7c-0.2-0.9-3.8-1.7-5.8-1.7-30.4-0.2-60.9-0.2-91.3-0.4-5.3 0-6.9 2.1-7.3 7.1-0.2 2.6-2.8 5-4.5 7.6-1.7-2.6-3.2-5-4.9-7.6-1.4-2.4-2.6-6.5-4.4-6.7-10.7-1.7-21.5-3-32.3-3.5-7-0.4-8.6 3.7-4.9 9.4 1.9 2.8 4.5 5.8 4.5 8.9 0.4 7.1 4.3 7.5 9.9 7.8 29.1 1.2 58.2 2.8 87.4 4.5zm-458-75.3c-2.9-3.5-5.2-8.6-8-8.9-11-0.9-22.4-0.8-33.4-0.4-6.7 0.2-9 3.7-5.2 9.8 2.2 3.6 4.3 7.3 7.4 13-12.5 1.9-23.3 3.2-34 4.8-1.8 0.4-3.9 1.2-5.2 2.5-0.6 0.5-0.2 3.1 0.6 4 0.7 1 3.1 1.3 4.1 0.8 6.5-3.5 12.5-2.1 19.2-0.2 6.9 2 14.4 2.6 21.5 3 5.6 0.1 11.2-2.1 16.6-1.9 11.8 0.6 11.6 0.9 10.1-10.8-0.2-1.4 0.6-3.8 1.7-4.8 1.3-0.9 4.1-1.1 5-0.2 1.1 1.2 1.7 3.6 1.5 5.4-0.7 8.7 6 14.3 14.4 11.7 2.2-0.7 4.9-0.7 7.1-1.5 2.4-0.7 4.7-1.8 6.9-2.9-2.1-1.9-4.1-3.6-6-5.4-1.8-1.9-3.5-3.7-5.4-5.6 2.8-1.3 6.7-4.6 7.9-3.9 5.9 3.9 10 0.8 15.6-1.1 8.1-2.8 15.4 9.8 25.3 4.1 0.3-0.2 1.8 1.7 2.9 2.8-0.1 0.9-0.1 1.8-0.3 2.7-4.3 0-8.8-0.5-12.9 0.2-2.6 0.6-5.1 3-7.5 4.7 2.4 1.3 4.5 3.3 7.1 3.9 6.2 1.4 12.5 2.6 18.9 3.7 6.5 1.1 13 2 16.6-6-0.9-1.1-1.7-2.6-2.6-2.7-8.8-1-9.9-6-8.6-13.4 1.7-9.6-2.3-14.3-12.5-13.7-3.6 0.2-7.3-1.9-10.9-2.1-9.3-0.5-19.2-3.7-25.9 6.7-3.2 4.8-6.7 3-8-1.5-2.7-9.1-8.6-6.5-14.1-4.1-3.9 2.1-7.2 5.2-9.9 7.3zm257.4 226.1c0.6 0 1.3 0 1.9 0.2 0.3 2.2 0 4.8 1.1 6.7 1.3 2.6 3.5 4.8 5.2 7.2 2.3-2.2 5.2-4.1 6.4-6.7 1.3-3 0.3-6.8 1.3-10 0.7-2.6 2.8-5 4.5-7.4 2.6 2.2 5.8 4.1 7.6 6.7 1.1 1.6 1 4.8 0.6 7.2-0.8 7.6 2.2 10.9 10.1 10 2.8-0.4 5.6 0.7 8.4 0.7 11.4 0 12.5-0.7 11.5-12-1.1-14.3-3.9-28.6-4.3-42.9-0.1-6.1 0.8-12.2-6.3-12.4-14.6-0.4-29.1 0.4-43.7 1.7-2.1 0.2-3.6 5.9-5.2 9.3 3 0.7 6.1 1.8 9.1 2 2.3 0.2 4.5-1.3 6.6-2 0.3 0.7 0.5 1.4 0.9 2.2-3.9 3.1-9.3 5.6-11.6 9.4-1.9 3.4 0 8.8 0.4 13-3.9-7.4-5.4-15.2-7.7-22.8-0.5-1.8-3.3-3-5-4.3-0.9 1.9-2.6 3.6-2.6 5.4-0.2 15.8-0.2 31.6 0.2 47.3 0 1.9 2.2 3.7 3.5 5.4 1.9-1.7 4.7-2.8 5.6-4.8 1.1-2.6 0.9-6 1.5-9.1zm-22.2-468.7c0.5 3.3 1.3 5.2 0.7 6.3-3.7 7.9 0.4 13.3 6.4 16.7 3.5 2 10.1 2.9 12.7 0.9 2.4-1.9 1.8-8.2 1.8-12.4 0-4.5-1.5-8.9-1.5-13.6 0-5.9-2.4-9.6-8.5-10-7.1-0.4-14.4-0.6-21.5-0.6-21.5 0-21.7 0-23 21-0.6 7.6-3.9 11.3-11.8 10.9-10.2-0.3-7.4-8.1-7.4-13.7-0.4-19.1-3.9-22.1-23.2-18.9-2 0.4-4.3 0.7-6.5 0.9-8.1 1.1-13.3 6.9-13.3 15.1 0 4 0.8 7.9 0.8 12 0.2 7.4 4.3 9.1 11 9.1 17.2 0 34.3-0.2 51.5 0.9 17.6 1.1 25.4-4.1 28.6-20.6 0.4-0.7 1.5-1.4 3.2-4zm-298.1 186.6c4.9-4.3 8.4-7.5 13.1-11.5 0.2 4.8 0.4 7 0.5 11.1 20.4-13.7 39.5-12.1 57.6 3.7 0.5-14.8 1.1-15 14.9-10.9 2.6 0.7 5.8-1 8.8-1.2 1.9-0.1 3.9 0.6 5.8 1-0.4 1.5-0.6 3.1-1 4.6-0.3 1.3-0.7 2.8-1.1 4.1 0.6 0.7 1.3 1.7 1.9 2.4 3.9-2.4 7.8-5.4 11.9-7.4 3-1.5 7.7-3.4 9.8-2.1 2.4 1.5 3.5 6.3 3.3 9.7 0 1.1-5.2 2.8-8.2 3-5.8 0.3-11.8-0.6-17.7-0.4-1.7 0-4.2 1.8-4.7 3.3-0.6 1.5 0.4 4.1 1.7 5.6 2.4 3.1 5.4 6.1 10.1 11.1 5.6-1.8 13.4-4.2 20.9-6.5-0.8 1.7-1.9 4.3-3 6.9 14.2 6.1 16.8 4.6 15.5-9.3-0.4-4.8-2.8-9.6-4.7-14.3-1.5-3.9-5-9.2 1.5-10.2 11-1.3 22.4-0.2 33.4-0.5 4.1-0.2 8.3-1.7 12.2-3 0.3-0.2 0.5-3.7 0.2-3.9-4.1-1.8-8.4-3.3-12.7-4.8-0.6-0.2-1.3 0-1.9 0.2-13.8 3.9-27.5 4.1-41.7 0-5.2-1.5-11.3 0.3-17.1 0.9-2.5 0.2-4.7 1.1-7.1 0.9-32.9-0.5-65.8-1.1-98.6-1.5-1.9 0-4.9 3.4-5.1 5.2-0.2 3.9 1 8.2 1.5 13.8zm432-173.1q-2.5 0.3-5.1 0.6c-1.6 4.2-4.6 8.5-4.8 12.8-0.8 9.2-0.4 18.5 0.2 27.8 0.2 1.5 4.5 3.5 7.1 3.9 3 0.5 6.3-0.4 10.8-0.8-5.6 8-9.9 14.1-14.4 20.4-3.9-3.5-8.2-7.6-13.1-11.1-1.8-1.5-6.3-2.6-7.2-1.7-9 9.7-19.5 8.8-31 6-13.9-3.4-14.2-3-6.4-15.1 3.9-6.1 1.5-9-4.1-9.4-5-0.4-10.3 0.9-15.1 2.6-5.3 1.8-5.1 5.9-2.6 10.6 1.3 2.6 1.8 6.6 0.7 9.2-2.4 6.5-0.4 10.8 6 11.7 18.1 2.4 36.2 3.9 54.5 5.8 1.7 0.2 3.6-1 5.4-1 3.6-0.1 7.5-0.7 10.9 0.4 7.6 2.4 10.4 0.9 11.7-7 0.4-2.6 1.3-5.6 3-7.5 1.5-1.4 4.7-1.4 7.1-2.2 0 2.4 0.6 5 0 7.4-0.5 2.1-2.4 3.7-3.9 5.8 12.5 3.9 17.4 2.8 21.8-6.7 3.2-6.7 6.2-11.7 14.8-11.3 1.7 0.2 4.5-3.2 5.2-5.4 0.8-1.8-0.3-6.3-1.1-6.5-6.3-0.9-12.9-2.2-19.2-1.1-2.8 0.4-5.1 5.6-7.5 8.5-19.2-8.5-26-25-23.7-46.7zm-332.8-281.9c12.9 1.2 25.8 2.5 40.1 4-3.1 0.8-5 1.5-6.7 1.5-6 0.4-11.8 0.8-17.7 0.9-6.8 0.2-13.7-0.3-20.2 0.2-2.1 0.2-4.3 3-5.6 5.2-0.6 1 0.7 4.5 1.5 4.5 1.9 0.3 3.9-0.8 6-1.1q4.4-0.9 8.9-1.7c-0.2 4.6 1.5 11.1-0.9 13.7-6 6.1-3 11.9-1.7 17.8 0.2 1 4.9 2.1 5.2 1.5 3.4-4.8 8.8-10 8.8-15.2-0.2-14.7-1.1-14.7 13.8-15.8 1.5-0.2 3.2-0.3 4.7-0.3 13.1 0.3 17 4.8 17.2 17.6 0 3.3 1.5 6.7 2.4 9.8 1.7-0.2 3.2-0.5 4.9-0.7-0.6-6.7-1.3-13.2-1.7-19.9-0.2-2.2 0-4.8 0.9-6.7 0.4-0.9 4.7-0.9 4.7-0.7 1.7 5.2 3.2 10.4 4.1 15.6 0.4 2.2-1.7 6.7-0.9 7 4.3 2.1 8.9 3.9 13.6 4.5 1.1 0.2 3.9-5.4 3.9-8-0.2-2.6-3.5-5-4.8-7.8-1.3-2.8-2.1-5.7-3-8.7 2.4 0 4.8-0.2 7.3-0.2 1.1 0 2.4 1.1 3.3 0.8 10.7-3.9 19.8-1.9 27.1 7 5.8-10.4 2.3-17.1-8.2-17.4-6.9-0.2-13.6 0.3-20.6 0-3.5-0.2-7-1.5-10.4-2.3 0.2-1.1 0.4-2.2 0.4-3.3 12.3 0 24.6 0 38.4 0-6.1-5.2-102.7-7.4-114.8-1.8zm49.7 264.1c3.5 2.6 6.3 5.9 8.2 5.6 6.5-1.3 12.9-3.8 19-6.2 1.1-0.3 2.3-2.4 2.3-3.5 0-1.1-1.7-2.8-2.6-3-10.5-1.1-20.8-2.2-31.2-2.7-7.1-0.4-14.2 1.3-21.3 0.9-10.7-0.6-21.1-2.4-31.8-3-13.1-0.5-25.9-0.2-39-0.2-4.1 0-9.7-2-8.4 5.6 0.9 5.4 0.2 11.7 9.9 10.9 13.6-1.1 27.3-0.1 41.4-0.1-2.6 9.8-9.3 11.6-18.4 8.5-3.8-1.3-9.4-1.3-12.6 0.5-3.7 2.1-0.1 18.6 4.2 22.5 5.4-8 11.9-5.2 18.1-1.3 4.4 2.8 7.1 4.4 9.1-2.6 2.4-7.8 6.7-14.5 17-14.1 2.8 0.2 5.8-3 8.6-4.6-0.2-1-0.6-2.1-0.7-3-4.2-0.4-8.1-0.6-12.2-1.1-6.3-0.8-6.9-2.8-2.8-9.1 2.3 1.5 4.5 3.1 6.7 4.6 7.9-1.6 16.1-2.6 23.2-0.3 6.3 2.2 10.5 2.4 13.3-4.3zm-50.7-297c-0.7 4.7-2.6 8-1.6 10.4 2 5.4 1.5 13 11.5 12.6 28.1-0.7 56.1-0.4 84.1-0.7 3.2 0 6.1-1.9 9.3-2.8-1.7-3.5-2.6-8.4-5.4-10.6-6.7-5.5-13.4-10.4-14.9-20-0.4-2.1-7.3-3-11.2-4.5-0.4 3-1.5 6-1.2 8.8 0.4 2.2 3 4 3.6 6.3 0.7 2.7 0.2 5.7 0.2 8.7-7.1-8.7-8.6-20.8-23-19.3-3 0.4-8.4-0.9-9 0.2-2.2 4.8 0.8 7.6 5.6 9.4 7.7 3 8.1 5.8 3.4 11.5-5-0.7-9.5-1.3-14.4-2-1.8-7.1-3.7-14.8-6.3-24.9-2.3 5.6-3.4 8.6-4.5 11.4-3-1.3-6-2.5-9-3.8-4.5-2-8.7-4.4-13.4-5.7-1.9-0.6-4.5 1.1-6.9 1.7 1.5 2.4 2.4 5.5 4.6 7 2.5 1.5 6.8 0.6 8.6 2.4 1.9 1.7 1.9 5.6 2.6 8.4-2.6 0-5.2 0.3-7.6 0-0.6-0.2-1.7-1.9-5.1-4.5zm448.6 641.1c-7.6 0.5-13.8 2.8-15.8-7.3-0.4-2.4-7.1-4.6-11.1-4.8-2.2 0-4.6 4.5-7 6.9q-2.6 2.8-5.1 5.6c-1.9-2.1-3.9-3.9-5.8-6-2.2-2.4-4.1-4.8-6.3-7.2-2.3 2.6-6 5-6.8 8-2.8 10.9-5.9 13.5-16.8 14.6-3.3 0.4-7.2 3.5-8.9 6.3-0.8 1.5 3 7.8 4.8 8 3.4 0.2 7.1-2.4 10.3-4.3 2.8-1.5 5-4.8 7.7-5 1.8-0.2 3.9 3.7 5.7 5.8 1.2 1.3 1.9 2.6 2.9 3.9 1.1-0.2 2-0.2 3.1-0.4 0-4.3-0.3-8.5 0.2-12.8 0.2-2 2.3-5.2 3.4-5.2 2.4 0 5 1.9 7.4 3-4.3 7 6.4 8.7 5.5 14.8-0.2 0.9 2.8 2.8 4.6 3.2 6.4 1.1 10.7-2.1 13.7-7.3 3.3-5.7 6.5-4.4 9.1 0.6 0.9 1.8 2.1 3.5 3 5.2 0.9 0 1.9 0 2.6 0.2 0.6-3.2 2.6-6.9 1.5-9.1-1.3-2.6-4.8-5.2-8-5.8-4.9-1.1-9.9-0.7-15-0.9 0-0.7 0-1.7 0.2-2.4q18.8 0 37.6 0c0.3 1.1 0.7 2.2 0.9 3.3q-4.8 2.2-9.5 4.5c0.9 0.7 1.7 1.6 2.6 2.4 15.1-0.4 15.5 0 14.4 15.9 0 1.3-0.8 3.2-0.2 3.6 1.5 0.9 4.1 2.2 4.8 1.6 7.1-5.2 5.8-22.4-2.2-27 1.3-1.9 2.6-3.8 4.5-6.4-5.3-2.7-9.7-5.1-14.2-7.7 0.4-1 0.5-1.9 0.9-2.8 4.5 0 9 0 15.5 0-8.2-10.8-17.3-8.9-26.5-7.6-6.9 1.3-8.4 5.5-7.7 12.6zm-191.2 16.5c-3.7-5.8-7.1-10.8-10.3-15.6-1.3-1.8-2.6-3.5-4.1-5.2-1.7 1.9-3.5 3.5-4.8 5.6-1.5 2.2-2.5 7-3.6 7-7.6 0.2-8.4 5.8-9.1 10.8-1 6.3-0.8 13-1.5 19.3-1 7.8 1.1 13 9.7 14.8 2.8 0.6 6.3 3.5 7.5 6.1 4.2 10.8 12.3 13.4 22.7 12.3 8.1-0.9 16.1-0.9 23.9-2.2 1.9-0.4 4-3.8 4.5-6 0.2-1.1-3-2.9-4.5-4.6-2-2.1-5-3.9-5.6-6.3-1.5-7.1-6.1-8.4-12.1-8.9-11-1-22-2.4-35.3-3.9 11-4.8 22.4 2.6 32.5-8.7-9-1.9-15.5-3.2-22.4-4.7-1.5-9.8 7.5-8 12.5-9.8zm-102.7-583.6c0 0.2 0 0.4 0 0.4q11.2 0 22.4 0c5.2 0 8.4-1.7 8.6-7.2 0.2-9.7 0.7-19.1 0.7-28.8 0-6.7-3.9-11.5-10.8-11.7-16.1-0.3-32.3 0-48.4 0-5.4 0-7.6 2.8-5.4 7.8 4.1 9.5 3.9 19.1 1.5 29-1.7 6.4 1.7 10.2 8.2 10.3 7.5 0.4 15.3 0.2 23.2 0.2zm101.4 179c0.9-4.2 1.5-6.8 2.4-11.1 3.6 3.2 6.2 5.2 7.7 6.5 3.7-2 8.8-5.8 9.5-5 7.3 7 14.2 5.9 22.2-0.9 1.3 4.8 1.5 9.2 3.6 11.6 4.6 5.2 19.6 1.2 23.1-4.8 1.5-2.6 5.1-3.9 7.7-5.7 5.4 9.4 10.3 2.8 14.9-1 8.8 11 5.8 18-9.7 23.4-2.8-5.2-6.5-9.6-12.9-4.8-2.6 2-4.1 5.2-5.9 8 0.9 0.7 1.6 1.5 2.6 2 2.2-1.1 4.5-2.2 7.3-3.5 3.5 8.7 10.2 6.5 16.6 5.7 3.3-0.3 6.9 0 10.3 0q5.3 0 10.6 0c-0.9-4.2-0.6-9.8-3.2-12.8-3.2-3.5-4.3-5.7-4.1-10.7 0.2-3.7-4.7-10.4-7.8-11-14.8-2-29.5-2.6-44.5-3.1-24.4-0.9-48.9-0.9-73.4-2.2-7.3-0.4-10.1 3.1-7.6 8.3 2.2 4.5 7.2 9.1 12.1 10.6 5.4 2 12 0.5 18.5 0.5zm-237.2-5.2c-5.6-5.9-8.6-4.8-10.3 2.3-2.4 10.9 3 18.3 15.4 20.7 2.8 0.6 7 1.9 7.4 3.6 1.7 9.8 9.2 6.3 14.8 6.8 6.7 0.6 8-4.1 9.1-9.3 0.6-2.5 2.6-4.6 4.1-7.2 3.2 6.1 5.6 11 8.3 15.8 1.6-0.6 3.1-1.1 4.8-1.7-1.3-7.2-2.8-14.5-4.3-22.1-4.3 1.7-8 4.3-9.5 3.4-10.1-6.3-17.2-4.1-23.5 6.8-3.4-6.5-5.8-12.6-6.8-19.1-0.2-1.3 4.3-4 7.1-4.8 3-0.9 6.4-0.5 10.5-0.7 1.5 7.2 8 7 14.7 6.3 6-0.8 11.8-3.2 18.2-0.2 1.8 0.9 7.8-1.9 8-3.2 0.4-3.5-0.9-7.8-2.8-10.7-1.1-1.7-5.1-1.9-7.7-2.1-12.5-0.7-25.2-1.8-37.9-1.6-10.6 0.2-21.5 1.6-32.1 2.6 4.1 5.5 15.1 2 12.5 14.4zm273.2 78.3c-4.8-2.2-8.7-4.8-12.8-5.4-7.1-0.9-10.3-3.7-10.1-11.1 0.2-5.2 0.9-8.7 6.3-10.8 1.5-0.5 3-2.9 3.4-4.8 0.2-0.9-2.3-3.3-3.4-3.3-4.8 0.2-9.9 0.4-14.6 1.7-4.6 1.3-7.6 3.9-1.1 7.7 5.3 3.2 4.5 7.1-0.7 9.5-5.1 2.2-10.7 3.5-15.9 5.8-1.7 0.7-3.7 2.2-4.5 4-4.1 8.9 5.8 24.3 15.7 24.7 8 0.2 16.1 0 24.1 0.4 9 0.3 17.7 1.1 26.7 1.3 1.7 0 3.9-2.1 4.9-3.5 2.6-4.3 5.2-8.6 6.5-13.2 1.1-3.9 1.5-8.9-0.4-12.1-1.1-2-6.9-1.3-11-1.8-0.4 7.2 4.9 14.3-3.5 17.8-4.7-1.1-2.5-14.3-9.6-6.9zm2.1 308.9c-7.9 8.5-6.5 15.9-2.1 21.5 2.1 2.6 8.6 3.1 12.9 2.4 7.9-1.3 13.8 0 17 7.6 7.3-3 4.7-23.9 19.6-8.9 1.7-7.4 1.7-7.2-3.9-8.2-3.2-0.5-7.3-1.3-9-3.3-2.2-2.8-2.6-7.1-3.1-11 0-0.7 3.9-1.6 6.9-2.9-2.3 12.4-2.3 12.2 8.9 12.4 3 0 6 0.9 8.6 1.5 0.4 1.3 0.8 2 0.6 2.4-1.7 4.1-2.8 8.5 3 9.1 1.7 0.2 3.7-4.8 6.1-6.5 4-2.6 8.3-4.8 12.7-6.5 1.9-0.6 4.5 0.9 7 1.5-0.6-4.8-0.4-8.9-1.7-12.4-1-2.8-3.6-6.9-5.8-6.9-21.5-1.3-43.2-1.9-64.6-2.4-1.9 0-4 2.6-5.8 4.1 2 0.7 4.3 2.6 6 2.2 5.9-1.5 8 1.1 8.4 7.4-8.6-3.3-7 2.8-7 7.1-4.1 1.4-7.6 2.7-11.2 4-0.9-4.4-2-8.3-3.5-14.2zm-244.5-436.7c10.3-8 10.3-8 16.6-0.4 8.6-2 17-3.9 24.5-5.5 3.2 3.9 6 9.8 8 9.6 9.6-1.1-0.3-11.9 6.4-15.2-1.5-1.7-2.8-4.4-4.5-4.4-6.3-0.6-12.9-0.6-19.2-0.6-17.6 0-35.3 0.4-52.9 0.4-2.4 0-4.8-1.9-7.3-3 1-2 1.9-4.1 3-6.5-6.3 0-12.9-0.4-19.4 0.2-4.1 0.4-9.9 0.4-12 3-4.4 5.7-9.3 5.9-15.5 5-11.2-1.5-15.6 3.1-14.5 14.6 12.9-1.5 25.9-2.9 38.5-4.2 1.6 4.2 2.6 6.6 3.5 9.2q1.4 0.3 2.8 0.6c1.5-3.7 2.8-7.4 4.3-11.3 7.7 9.3 7.5 9.3 15.9 0.5 1.1-1.1 3.7-2 4.8-1.5 5.4 2.5 10.3 5.6 17 9.5zm-52.3 492.9c2.8 4.4 4.3 9.4 6.6 9.8 2.8 0.6 6.1-3.2 9.3-4.6 2.2-1 4.7-2.1 7.1-1.9 3.4 0.2 6.5 1.9 9.9 1.9q25.2 0.2 50.4 0c3.8 0 7.5-0.4 11-1.7 9.6-3.4 7.1-12.1 7.1-18.9 0-1.9-6.5-4.9-10.4-5.2-6.7-0.6-13.8-0.4-20.4 0.9-6.1 1.3-11.9 4.3-17.9 6.7 0.4 1.3 0.7 2.8 0.9 4.1 6.2-0.6 12.5-0.8 18.5-1.9 6.4-1.3 11.4-1.1 14.6 7.2-8.2 0-15.5 0.2-23 0-27.6-0.3-55.3-1.1-82.9-1.3-3.6 0-6.9 1.5-12.5 2.6 4.5 3.6 6.7 5.2 9.9 7.6-3.8 0.6-6.2 0.6-7.9 1.5-2.6 1.3-4.8 3.4-7.4 5 2.8 1.7 5.2 4.5 8.2 4.7 4.8 0.5 10.1 0.2 14.7-1 2.3-0.5 5.6-4 5.5-5.9-1-8.3 3.7-9.6 8.7-9.6zm93.2-67.4c-0.7 14.5-0.5 14.1 11.8 16.7 3.7 0.8 6.7 4.1 10.3 6.1-0.4 1.2-0.6 2.3-1 3.4-6.7-7.3-11-4.1-14 3.1-2.4-3.1-4.3-5.3-7.1-8.9-2 3-3.5 5.2-5 7.5 0-1 0-1.9-0.2-2.8-5-1-10.3-3.2-14.8-2.1-1.8 0.4-4.1 9.1-2.4 11.7 1.9 3 7.9 3.7 12.2 4.8 2.6 0.8 5.6 0.2 8.4 0.2 14.3-0.3 16.2 1.5 15.8 15.6-0.3 10.6 1.2 12.2 9.2 12.4 4.3 3.6 6.9 5.8 9.7 8 1.1-3.7 3.7-7.8 3.2-11.3-0.8-3.9-4.3-7.4-6.9-11.5 9.7-4.5 10.4-12.8 8.4-21.7-3.4-14.8-12.5-23-28.8-22.1 3.2-2.4 5.8-4.4 8.6-6.5-0.4-0.7-0.8-1.6-1.1-2.4-5.3-0.2-10.7-0.2-16.3-0.2zm-150.5-4.1c2.6 10.3-0.8 15.4-11 16.6-6.7 0.7-6 5.5-6.2 9.4-0.2 3 1.7 6 2.6 8.9 2.5-2 4.7-4.1 7.1-6.1 1-0.7 1.9-1.3 4.3-3.2 2.3 5.1 4.1 9.3 6 13.6-3.9 1.1-7.7 2.2-11.6 3.3-0.5 0.2-1.3 0-1.8 0.2-1.9 1.1-3.8 2.6-5.5 3.7 1.7 1.7 3.2 4.5 4.9 4.7q24.6 1.1 49.3 1.1c1.1 0 3.7-4.7 3-5.8-3.2-5-7.1-9.4-11-14.8-2.6 2.8-4.5 5.7-7.3 7.6-2.3 1.7-5.4 2-8 3-0.8-2.5-2.3-4.9-2.3-7.3-0.2-4.2 0.6-8.5 1.1-13.9 3.4 5.9 5.1 14.3 12.9 5.2 1-1.1 6.2 0.7 8.8 2.2 2 1.1 3 4.1 5.6 8 2.8-10.2 2.6-17.6-5.4-22.1-5.6-2.9-11.6-4.4-10.1-12.8 0.2-0.9-3-3.3-4.5-3.3-7.3 0.5-14 1.3-20.9 1.8zm248.8-363.3c0.1-1.1 0.5-4.7 1.3-8.2 0.7-3.9-14.4-21.7-18.5-21.5-0.4 0-0.6 0.2-1 0.2-7.6 1.3-15.1 2.4-22.7 4.1-3.2 0.7-7.3 1.3-9.2 3.5-4.8 5.4-8.2 5.4-13.6 0.4-7.5-6.9-16.6-3.4-18.9 6.6-2 9.3-2.6 18 8.4 22.7 1.3 0.5 2.4 1.8 3.2 3.1 6.3 11.5 6.3 11.7 16.8 4.3 1.7 1.5 3.4 3.9 5.4 4.4 2.8 0.6 6-0.2 9-0.3-1.3-2.6-2.1-6.2-4.1-7.8-2.8-2.3-6.8-3-9.9-4.7-3.2-1.8-8.1-3.7-8.4-6.3-1-5.4 0.5-11.1 7.4-13.1 2.8 3.5 5.5 6.8 9.4 11.8 0.9-4.6 1.7-6.8 1.7-9.2-0.2-7.8 3.9-10.4 11-10.4 7.6 0 9.3 4.6 9.7 10.7 0.2 4.1 0.2 8.2 0.9 12.1 1.1 5.4 4.1 5.9 9 3.1 3.2-2.2 6.9-3.1 13.1-5.5zm33.9-262.5c4.3 4.8 6.4 8.7 9.4 9.8 5.4 2.1 11.4 3.2 17.2 3.2 6.1 0.2 7.4 2.8 7.1 8-0.4 5-1.3 11.1 5.9 11.1 7.7 0 17.4 5.2 22.5-4.8 2.8-5.8 4.6-6.5 9.1-2.1 1.3 1.3 3.6 1.7 5.4 2.6 0.8-2.2 2.3-4.2 2.1-6.5-0.4-6.5-5.1-8.7-10.9-8.9-8.9-0.3-14 4.5-15.3 13.9-10.4-15.5 7.3-18.9 10.7-27.8-11.4-5-11.4-5-18.9 3-7.8-3-15.7-5.8-24.3-9.1 0 3.7 0 6.3 0 10.6-4.4-2.8-7.8-4.7-10.8-6.9-9-6.9-14.8-5.9-19.6 4.3-3 6.3-5.2 12.8-7.7 19.3-4.8-0.2-12.1-3.9-10.1 5 0.6 2.8 7 5.3 11.1 6.1 1.8 0.4 5.4-3.5 6.7-6.1 3.5-7.6 6.7-16 10.4-24.7zm-277.3 371c-1.1-0.2-2.2-0.2-3.3-0.4 0-2.4 0.1-4.6 0-7-0.2-3.4-0.6-6.7-1-9.9q-8.1 2.5-16.2 5c0.9 2.5 2 5 2.8 7.5 0.3 0.9 0.9 2.2 0.5 2.7-3.1 5 0 6.2 4 7.8 1.6 0.8 2.9 3.7 3.7 5.8 1.3 4.2 1.3 9.1 3.2 13 1.3 2.7 5 6.1 7.8 6.3 7.1 0.2 14.4-1.3 21.7-2.1 0.3 0 0.7-1.1 0.7-1.6-0.2-4.9 0.4-9.9-0.7-14.5-0.4-1.7-5.1-2.2-7.5-3.5-6.7-3.4-6-9.7-3.7-14.3 1.5-3.5 6.5-5.4 10.1-8 0 4.1-0.2 8.2-0.4 13.7 10.8-2 10.4 7.8 14.4 13.8 1.1-6.7 2.2-13.6 3.3-19.9 2.6-0.7 4.9-1.3 7.1-1.8-0.9-2.1-1.7-4.3-2.8-6.2-6.9-10.2-17.7-6.5-27.3-7-6.5-0.4-11.9 2.4-12.5 10.6-0.5 3.3-2.6 6.6-3.9 10zm-84.2 325.9c2.6-1.3 4.1-1.5 4.8-2.4 2.3-2.6 4.1-5.4 6.2-8-3.4-1.5-7.1-4.3-10.3-3.9-2.6 0.2-6.5 4.1-6.9 6.9-1.3 8.7-1.3 17.8-1.3 26.7 0 3.9 0.9 9.3 6.9 6.7 5.1-2.3 9.7-5.8 14.2-9.1 12.9-10 33.6-6.9 43.9 5.9 3.2 3.9 9.2 6.3 14.4 7.8 4.7 1.3 9.9 0.7 14.7 0 2.8-0.6 5.5-3 8.3-4.6-2.1-3.4-3.6-7.3-6.4-9.5-2-1.7-7.3 0.2-8.8-1.7-7.1-7.9-14.4-13.9-25.9-9.4-16.7-10-32.7-8.2-48.8 3.1-1.7-2.8-3.1-5.2-5-8.5zm220 57.7c9.7-0.2 14.7 5.2 13.8 13.5-0.6 5.2-1.5 10.8 0 15.4 0.8 2.6 5.4 5 8.8 6 2.2 0.5 7.6-1.7 7.6-2.6-0.3-7.8 4-15.8-3.1-23.6-7.5-8.2-12.9-18.2-19.8-26.9-1.9-2.4-6-4.6-8.8-4.6-2.2 0-6.2 3.9-6.4 6.3-1.1 15.4-1.6 30.8-1.8 46.2 0 7 6.1 5.3 10.6 5.5 4.9 0.2 7.5-1.6 7.3-7-0.6-9.3 3-19.7-7.8-26-0.4 0.2-0.2-0.9-0.4-2.2zm-41.7-117.6c-2-4.8-3.3-10.6-4.6-10.6-6 0-12 1.5-18.1 2.4 0.5 3.7 0 8.5 2.2 11 9.3 10.5 8.6 21.3 3.2 33.2-1.1 2.4 0.2 6.3 1.7 8.7 0.5 0.9 5 0.2 7.4-0.8 3.2-1.1 5.8-3.3 9-4.2 13.2-4.1 15.1-6.1 15.3-20.1q0-6.4 0-12.8c0.7 0.2 1.5 0.6 2.2 0.8 1.7-3.9 4-7.6 4.5-11.5 0.2-1.9-3-4.1-4.6-6.1-3.2 3.3-6.2 6.6-10.1 10.9-2.1 0-5.6-0.6-8.1-0.9zm565.2 34.7c-1.7-1.1-2.8-2.6-4.1-2.6-25.8-1-51.4-1.7-77.2-2.1-2.4 0-6.7 3.6-6.9 5.6-0.2 3.3 1.3 7.8 3.8 10.4 2 2 6.3 2.4 9.5 2.4 18.3 0.2 36.6 0 54.9 0.2 10.1 0.3 15.5-5.6 20-13.9zm-353.4-255.3q1.1 1.1 2.3 2.3c9.3 2.9 18.6 5.7 27.2 8.5 6.8-1.3 13.7-4.5 20-3.4 6.2 1 10.8 2.8 17.9 1.2 7.7-1.7 16.9 0.1 25.6-0.4 11.2-0.8 22.6 6.7 34.6 1.5 0.9-0.4 2.4 0.3 3.5 0.7 7.3 2.8 12-0.7 16.7-5.9-8.1-3.4-134.9-8.9-143.1-6.7-1.5 0.7-3.2 1.7-4.7 2.2zm-115.8 372.1c1.5 0 3 0.2 4.5 0.2 0.6-4.3 1.5-8.5 1.5-12.8 0.2-20.9 0.4-41.9 0.4-63.1 0.2-24.4 0.5-48.7 0.2-73 0-3.4-3-8-6-9.7-2.2-1.3-9.2 0.4-9.7 2.1-1.1 3.3 0.2 7.9 1.3 11.6 2 7.3 6.3 14.3 6.5 21.4 0.8 36 0.4 71.9 0.4 108.1-0.2 5.4 0.6 10.2 0.9 15.2zm256.1-317c-4.7-10.9-17.8-1.3-20-13.2 3.2 0.6 5.2 1 7.1 1.5 15.5 3.6 22.6-2.4 21.7-18-0.6-10.3-3-11.8-11.6-6.3-2.3 1.5-2.1 6.2-3.8 8.8-1.8 2.7-4.4 6.3-7.1 6.6-2.8 0.4-6.1-2.4-8.7-4.6-1.5-1.3-1.3-4.5-3-5.6-2.8-2-6.9-4.8-9.4-3.9-5.2 2.1-14.3 4.5-10.2 12.1 4.3 8.2 11.2 16.3 19 20.8 6.6 3.5 16.1 1.4 26 1.8zm-214.6-266.3c3.9 4 6.9 8.1 10.8 11.1 2.3 1.8 6.2 3.1 9 2.4 2.2-0.6 5-4.1 5.2-6.5 0.8-5.8 1.1-11.9 0-17.4-0.5-2.8-4.6-6.3-7.6-6.7-7.7-0.9-15.5-0.9-23.2-0.2-2.8 0.2-7.1 3.5-7.3 5.8-0.9 7.2-1.3 15 0.4 21.8 0.9 3.7 6 7.3 10.1 9.1 2.6 1.1 6.5-0.7 11.7-1.6-11.9-10.4-11.9-10.4-9.1-17.8zm-179.9 432.9c0.2-11.9-4.3-15.2-14.5-12.1-4.9 1.5-6.7 4.7-3 8 6.5 5.9 7.3 13.2 7.8 21 0.2 2.9 2.5 5.7 3.8 8.7 2.6-1.7 5-3.5 7.8-5 2.3-1.1 4.7-2.4 7.1-2.6 0.8 0 2.8 3.5 2.4 5-0.5 2.4-2.2 5.2-4.3 6.3-2.6 1.3-6.5 0-8.9 1.5-1.7 1.1-3.4 6.1-2.6 7 5.6 6.2 21.3 2.3 23.9-5.7 6.5-19.1 0.7-29-19.5-32.1zm-88.1 15.6c-6.9 6.3-13.3 12.2-21.5 19.8 9.4 0.6 17.9 1.1 28.2 1.7-2.8-5.4-4.5-8.2-6-11 9.4-7 9.6-20.2 0.4-27.2-1.7-1.3-5.4-0.4-8 0.3-2.8 1-5.2 2.8-7.9 4.3-0.5-3.3-1.3-6.7-1.6-10-0.2-1.1 0.7-2.6 0.5-3.5-0.5-2.4-2-6.7-2.4-6.7-6.5 1.1-13.1 2.8-19.4 4.8-1 0.4-1.7 4.3-1 5.6 4.7 8.1 9.7 15.9 14.6 23.9 11.8-9.8 18.9-10.6 24.1-2zm243.9-658.5c-16.2 6.3-10.5 20.2-14.6 30.6 3-0.9 5.6-3 6.2-5.2 1.1-5-2.4-12.4 5.2-13.6 1.7-0.1 6 8.2 6.8 13 1.3 7.8 6.1 7.6 11.5 7.1 5.8-0.6 7.5-4.3 6.9-9.9-0.5-5.7 0.4-11.5-0.3-17.2-0.4-3-2.8-5.8-4.3-8.7q-1.4 0.5-2.8 1.1c-0.6 3.1-1.2 6.5-1.7 9.6-2.3-5.2-2.4-10.3-3.4-15.4-0.3-2.2-2.8-5.7-4.1-5.7-8 0.7-16 2.2-24.3 3.5-0.1 1.1-0.3 2.2-0.5 3.2 5.6 2.6 11.4 4.6 19.4 7.6zm-23.7 222.9c0.9-9.1 1.7-16.8 2.4-24.6 0.6-6-2.6-8-8.4-8.6-7.3-0.7-9.7 3-12.7 8.9-6 12.5 0.4 22.7 7.3 29.7 4.1 4.3 15.7 1.5 23.9 1.5 1.1 0 3.2-2.6 3.2-3.9 0-10.8-0.2-21.3-0.6-32.1-1.1-0.2-2.2-0.2-3.4-0.4-5.9 8.6 3.4 23.6-11.7 29.5zm94.9 338.9c1.3 0 2.8 0.2 4.1 0.2 0.5-4.1 0.7-8.1 2-12 1-2.8 3.2-5.2 5.6-9.1-1.1 13.5-2 24.3-3 35-0.5 5.4-1.1 11.3 7.1 11 6.6-0.4 13.5-1 12.9-10.6-0.5-9.3 0.4-18.6-0.5-27.6-0.4-3.9-3.2-10.6-5.8-11-6.8-1.1-13.9 0.6-20.8 1.3-0.7 0-1.5 2.6-1.5 4.1-0.3 5.9-0.1 12.4-0.1 18.7zm-147.2 154c0 0.7 0 1.3-0.2 2-9.3 0-18.7-0.3-28 0.2-2.4 0.2-4.9 3.5-7.3 5.2 2.6 2 5 5.6 7.7 5.8 21.4 0.7 42.7 1.1 64.2 1.1 3 0 6.4-1 8.8-2.4 1.7-1 2.8-3.9 2.8-6 0-1.1-3-2.9-4.7-2.9-14.4-1.2-28.7-1.9-43.3-3zm246-134.7c-2.3-0.9-4.3-2.4-6.6-2.8-2.4-0.3-6-0.3-7.3 1-1.5 1.6-2.2 5.5-1.1 7.4 0.9 1.8 4.5 3.3 6.7 3.1 12.5-0.7 18.2-10.3 13.9-22-0.8-2.1 0-6.3 1.1-6.9 2.2-0.9 6-0.7 8 0.6 2.6 1.8 3.4 6.1 6 7.7 3.5 2.3 7.8 3.2 12.1 4.1 0.6 0.2 2.8-4.6 2.6-4.8-3.3-2.2-6.9-4.3-11.9-7 5.2-1.7 10.4-3.2 15.7-4.9-2.3-2-4.3-2.7-6.6-2.7-11.4 0-22.7 0-34 0-10.2 0-15.1 5-15.5 18.3 5.1-5.4 9-9.3 13.1-13.5 1.3 8 2.4 14.4 3.8 22.4zm-143.3-295.1c0 1.1-0.2 2.2-0.2 3.3 7.1 0.4 14.2 1.7 20.9 0.8 2.1-0.4 3-7.4 4.3-11.3 0.2-0.6 0.2-1.5 0.6-1.7 12.1-8.9 3.4-20.6 3.4-30.8 0-1.8-7-3.5-10.9-5.4-0.9 2.6-2.8 5.2-3 7.8-0.7 14.1 1.3 29.3-15.1 37.3zm165.9 60.5c4.6 3.5 7.4 6.1 10.6 8.1 2.1 1.3 4.9 3.2 6.5 2.8 5.3-1.7 10.1-4.2 15-6.8 1.7-1 2.6-3 3.9-4.5-1.5-1.3-3-2.8-4.7-3.7-2.6-1.5-5.2-2.6-8-3.9 2.6-2.4 5.2-2.2 6.5-3.3 1.5-1.5 2.3-4.1 2.5-6.2 0-0.7-3.6-2.7-3.8-2.6-5 5.8-9.9 0.8-14.7 0-5.6-0.7-11.2-0.1-16.5-0.1 1 8.9 2.1 15.9 2.7 20.2zm-33.5 426.2h0.2c0-5.2 0.6-10.5-0.2-15.5-0.5-2.8-4.3-7.8-5.2-7.5-4.3 1.3-11 3.7-11.4 6.5-1.5 10.2-0.9 20.8-0.9 31.2 0 6.5 3.3 8.3 9.5 8.1 6.3-0.1 7.8-3.1 7.5-8.7-0.4-4.8 0.1-9.4 0.5-14.1zm-191.8-10.9c0 2.8 0.2 7.8 0 12.8-0.2 4.6-1.8 9.3-1.3 13.7 0.2 2.4 3.7 4.5 5.8 6.5 1.5-2.2 4.1-4.4 4.1-6.9 0-11.3-0.4-22.8-1.1-34.1-0.9-16.1-8.2-21.1-23.9-16.1-2.6 0.9-4.5 4.8-6.6 7.2 2.8 0.4 5.8 1.9 8.5 1.1 8.9-2.4 11.7-0.9 12.5 7.6-2.5-0.9-5.1-2-7.7-2.9-0.6 2.2-2 5.9-1.5 6.5 2.6 1.6 6 2.6 11.2 4.6zm-78.8-16c0 16-0.2 29.7 0 43.6 0.2 7.6 6.5 5.6 10.5 5.4 2.4-0.2 6.1-3.9 6.3-6.1 0.6-8.5 0.4-17.3-0.4-25.8-0.7-8.5-5.9-13.7-16.4-17.1zm401.9 22.9q0.6 0 1.1 0c0-6 0.8-11.9-0.2-17.7-0.5-3.5-3.3-8.5-5.9-9.1-5.8-1.3-7.9 3.4-7.9 8.8 0 12.4 0 24.6-0.3 37.1 0 4.8 1.8 8.5 6.9 7.2 2.6-0.6 5.8-4.3 6.1-6.9 0.8-6.5 0.2-13 0.2-19.4zm-590.7-0.6q-0.3 0-0.6 0c0 6.1 0.2 12.2 0 18.5-0.2 4.3-0.3 8.2 5.8 8.2 5.4 0 7.7-2.6 7.7-8 0-13.1 0.5-26.5 0.2-39.7 0-2.6-3.8-5.2-5.6-7.6-2.5 2.4-6.6 4.9-7.1 7.6-1 6.7-0.4 13.9-0.4 21zm30.1 0.2c0.5 0 0.9 0 1.5 0 0-7.4 0.3-14.9-0.2-22.1-0.2-2.2-3.2-5.9-5.1-6.1-2.2-0.2-6.7 2.8-6.7 4.3-0.4 15.2 0 30.4 0.7 45.6 0 1.5 4 3 6 4.4 1.3-2 3.8-3.9 3.9-6.1 0.2-6.5-0.1-13.2-0.1-20zm581.7-2.1c-0.7-7.7-0.7-13.7-2-19.4-0.4-2.1-3.6-4.7-5.5-4.7-1.6 0-4.8 3-5 5-1.3 13.8-2.2 27.7-2.4 41.4 0 2.2 3.3 4.6 5.2 7 2.2-1.8 6.2-3.3 6.7-5.7 1.7-8.3 2.3-16.9 3-23.6zm-129-539.4c-6.9-6.5-6.9-6.5-16.1 4.3-0.9-0.7-2.2-1.1-3-2-4.3-5.6-8.2-1.3-11.9 0.7-1.2 0.7-1.5 3-2.3 4.5 3.6 1.3 7.1 3.1 10.9 3.3 2.6 0.2 5.4-2 8.2-3.2 5.8 5.2 23.9 7.3 29.5 3 1.3-0.9 3-3.5 2.6-4.4-1.7-4.1-3.6-8.8-6.7-11.5-1.3-1-6.6 2.9-11.2 5.3zm171.2 468.6c-1.3 0.2-2.6 0.4-4.1 0.5-0.4 2.8-1.3 5.8-1.3 8.6-0.4 9.4-0.6 19.1-0.9 28.5-0.4 10.8-0.8 21.6-0.6 32.3 0 2.1 2.6 4.1 3.9 6.1 1.3-1.4 3.4-2.9 3.6-4.4 1.3-20.6 2.4-41.2 3-61.8 0.2-3.1-2.3-6.5-3.6-9.8zm-102.9-3c0.2-0.9 0.4-2 0.6-3-1.7-1.1-3.4-2.7-5.2-2.9q-23.9-2.2-47.7-3.9c-5.2-0.4-10.6 0-15.7 0.5-2.4 0.2-4.8 1.9-7.1 3 0.2 0.9 0.4 1.7 0.6 2.6 24.5 6.7 49.7 2.6 74.5 3.7zm-496 74.6q-0.3 0-0.6 0c0 7.4-0.3 14.8 0.2 22.1 0.2 2 2.8 4 4.5 6.1 1.7-1.7 5-3.4 5-5.2 0.8-14.5 1.3-28.8 1.3-43.2 0-2.1-3.3-4.3-5.2-6.3-1.7 2.4-4.7 4.6-5 7.2-0.8 6.3-0.2 12.8-0.2 19.3zm31.5-2.6q-0.2 0-0.5 0c0.9 8.5 1.7 17.1 2.8 25.6 0.2 1.7 2.4 3 3.9 4.4 1.3-1.1 3.6-2.2 3.7-3.5 1-15 1.9-30 2.3-45.1 0-1.6-3.4-4.8-5.2-4.8-1.7 0-4.7 3-5.1 5-1.3 6-1.3 12.3-1.9 18.4zm577.5-2.2c0.6 0.3 1.3 0.7 1.9 1.1 1.8-3.5 5-7.1 5.2-10.8 1.3-16.3 2.1-32.6 2.4-48.8 0-1.8-3-3.7-4.6-5.7-1.7 1.5-4.9 3-4.9 4.6-0.2 19.7 0 39.5 0 59.6zm-94.3 6.1q0.3 0 0.6 0c0-7.1 0.3-14.3-0.2-21.3-0.2-2.1-3-3.9-4.5-6-1.9 1.7-5.1 3.2-5.2 5-1 13.6-1.5 27.1-1.3 40.6 0 2.8 3.3 5.4 5 8.2 1.9-3 4.7-5.7 5.2-9.1 1-5.5 0.4-11.5 0.4-17.4zm-497.9 0c-0.4 0-0.8 0-1.3 0 0 6.5-0.4 13 0.2 19.5 0.2 2.6 2.6 5.2 3.9 7.7 2.2-2.5 5.8-5 6.5-7.9 1.2-4.3-0.2-9.1 0-13.8 0.2-8.9 1.2-17.8 0.8-26.7-0.2-2.4-3.8-4.6-5.6-6.8-1.5 2.4-3.9 4.6-4.1 7-0.8 6.9-0.4 13.9-0.4 21zm373.5-541.5q-0.5-1.4-1.1-2.8c-3.2 1-6.2 2.1-9.5 2.8-2.8 0.6-5.8 1.1-8.4 0.8-4.7-0.8-9.9-4.1-13.9-2.8-6.3 2-14.5 3.3-18.4 12 11 1.2 20.5 1.9 29.8 3.2 11.4 1.5 15-7.8 21.5-13.2zm89.3 541.5c0.4 0 0.9 0 1.3 0 0-7.1 0.4-14.1-0.2-21.2-0.2-2-3-3.9-4.7-5.7-1.6 1.8-5 3.5-5 5.4-0.8 14.1-0.9 28.2-0.8 42.3 0 1.8 3 3.9 4.5 5.7 1.7-2 4.5-4.1 4.7-6.3 0.6-6.7 0.2-13.5 0.2-20.2zm-54.5-0.4c-0.2 0-0.6 0-0.8 0 0 6.7-0.4 13.6 0.2 20.2 0.2 2.4 2.8 4.7 4.3 6.9 2-2.2 5.6-4.3 5.6-6.5 0.7-13.5 1.1-27.1 0.9-40.6 0-2.6-3.2-5-4.8-7.6-1.9 2.6-4.9 5.2-5.3 8.1-0.7 6.5-0.1 13-0.1 19.5zm-271-435.7c-6 6.9-1.7 9.8 3.1 12.6 2.1 1.1 4.9 0.9 6.8 2.2 6.5 4.7 12.8 3.4 18.6-0.7 5.8-4.1 7.9-14.7 4.1-22.6-1.6 3.9-2.6 7-4.2 9.6-1.5 2.2-3.8 4.1-5.8 6.1-2.1-2.8-2.1-3.7-2.1-4.6 0-2.6 0.2-5.4 0.2-8-3 1.5-6.2 2.8-8.8 4.8-1.9 1.7-2.6 4.5-4.1 6.9-2.8-2.2-5-3.9-7.8-6.3zm471 416.2c10.8-7.4 15.8-41 8.7-49.3-1.1-1.3-4.4-2.6-5.4-2-1.6 1.3-3 3.9-3.1 5.9-0.6 10.4-0.8 21-1 31.3 0 4.5 0.6 8.9 0.8 14.1zm-128.5-6.6c-1.1-0.6-2.3-1-3.2-1.5-1.9 2.6-5.2 5.2-5.4 7.9-0.9 13.6-1.1 26.9-1.1 40.5 0 2 3.3 4.1 5 5.9 1.5-2.2 4.3-4.2 4.3-6.5 0.9-12.6 1.3-25.2 1.5-37.6 0.2-3-0.7-6-1.1-8.7zm-429.2 54.1c0.9-0.2 1.7-0.5 2.6-0.7 3.9-16 5.6-32.1 1.1-48.4-0.5-2.1-3.1-3.6-4.8-5.2-1.1 2.2-3.2 4.6-3.2 6.8 0 13.6 0.4 27.1 0.9 40.5 0.2 2.4 2.1 4.6 3.4 7zm387.9-26.5c-0.2 0-0.2 0-0.4 0 0 6.9-0.2 13.5 0.2 20.4 0.2 1.9 2.4 3.7 3.8 5.4 1.6-1.7 4.8-3.5 5-5.4 0.7-13.9 0.9-27.6 0.9-41.6 0-2.4-3-4.6-4.5-7-1.6 2.6-4.4 5-4.6 7.8-0.8 6.9-0.4 13.5-0.4 20.4zm-407.9-1.1c0 0 0.2 0 0 0 0 6.5-0.3 13 0.2 19.3 0.2 2.4 2.3 4.8 3.4 7.2 1.8-2 5-4.1 5.2-6.3 0.7-13.7 0.9-27.6 0.7-41.4 0-2-3.3-4-5.2-5.9-1.5 2-3.9 3.9-4.1 5.9-0.4 6.9-0.2 14.1-0.2 21.2zm-45.7-259.5c2 4.8 3.1 8 4.6 10.6 1 1.4 3 2.4 4.5 3.7 1-1.5 2.4-2.8 2.8-4.3 2.3-11.7-0.4-14.8-12.5-15-4.1 0-8 0-12.1 0.3-10.9 1.2-13.9 6.3-10.5 15.6 5.1 0.2 9.7 0.4 15.3 0.8 1.7-2.4 3.9-6 7.9-11.7zm100.3 259.3h0.1c0-6.9 0.4-13.5-0.1-20.2-0.2-2.2-3.2-4.1-4.7-6.1-1.7 2.2-4.7 4.2-4.7 6.4-0.4 13.6-0.2 27.1 0.4 40.7 0 2 2.6 4.1 3.9 5.9 1.7-2 4.7-4.1 5.1-6.3 0.3-6.9 0-13.7 0-20.4zm317.4-26c-1.1-0.5-2.2-0.9-3.3-1.5-1.7 2.3-4.9 4.7-5.1 6.9-0.5 14.1-0.5 28.2-0.1 42.3 0 1.7 2.2 3.2 3.3 4.8 1.7-1.3 4.9-2.8 5.1-4.1 0.1-16.1 0.1-32.2 0.1-48.4zm-301.9-664.6c-1.3-0.2-2.5-0.5-3.8-0.7 1.5 3.3 2.3 7.8 4.9 9.8 3.2 2.4 7.8 3.7 11.9 4.1 3.6 0.4 9.2 0 10.5-2.2 2.4-4.1 4.3-10.1 2.8-14.3-1.5-4.5-5.6-10-12.5-3.2-3.6 3.4-9.2 4.5-13.8 6.5zm-124.4 689.5q0.3 0 0.5 0c0-7.1 0.2-14.1-0.1-21.3 0-1.7-1.9-3.4-3-4.9-1.7 1.5-4.9 2.8-4.9 4.3q-1.4 21.7-1.7 43.4c0 1.9 3 3.7 4.7 5.6 1.5-1.9 4.1-3.7 4.3-5.8 0.6-7 0.2-14.3 0.2-21.3zm570.5 26.1c1.3 0.4 2.6 0.6 3.8 1 1.5-3.9 4.1-7.8 4.4-11.9 1-11.3 1-22.8 0.8-34.3 0-2.2-2.8-4.5-4.5-6.5-1.9 2.2-5.4 4.4-5.4 6.8-0.6 11.7-0.6 23.4-0.4 35.3 0.2 3.1 1 6.3 1.3 9.6zm-391.8-227c-0.9-2.4-2.8-5-2.6-7.4 1.7-12.5-8.8-10.6-15.1-12.3-1.7-0.5-6.9 3.9-7.1 6.5-1.7 13.2 9.7 19.3 24.8 13.2zm-65.4 197.7q-0.2 0-0.5 0c0.4 8.4 0.5 16.7 1.5 24.9 0.2 2 3 3.9 4.5 5.7 1.3-1.8 3.3-3.5 3.5-5.5 0.9-13.8 1.7-27.7 1.9-41.4 0-2.2-3.2-4.6-4.9-6.9-1.7 2.3-4.5 4.1-4.8 6.5-1 5.6-0.8 11.2-1.2 16.7zm-19.4 5.4q0.3 0 0.6 0c0-7 0.2-14.1-0.2-21.3-0.2-2.1-2.3-3.9-3.4-6-1.5 1.9-4.1 3.8-4.3 5.8-1.3 13.2-2.4 26.3-3 39.7-0.1 2.6 2.8 5.2 4.3 7.8 1.9-2.6 5.3-4.8 5.6-7.6 1-6 0.4-12.1 0.4-18.4zm358.2-29.5c-1.5 0.6-3.2 1.1-4.6 1.9 0 10.7 0 21.5 0 32.1 0 5.2 0 10.5 0.5 15.7 0.2 1.9 2.3 3.7 3.6 5.4 1.5-2 4.1-3.9 4.1-5.9 0.9-13.2 1.5-26.6 1.3-39.7 0-3.2-3.2-6.3-4.9-9.5zm-348.8-381.7c-0.4 0.3-3.6 2-4 4.1-0.7 4.6 0 9.6-0.3 14.4-0.2 2.6-0.8 5.2-1.5 7.6-0.8 2.3-2.8 4.7-2.5 6.5 0.4 1.9 3.2 4.3 5.1 4.3 1.7 0 4.5-2.4 5-4.3 2.8-8.3 5.1-16.9 7.5-25.4 1.7-5.7-1.3-7.8-9.3-7.2zm-104.8 210.9c17-3.2 16.8-3.9 9.5-16.5-4.3-7.6-10.1-7.4-16.4-5.4-7.3 2.4-4.5 9.3-2.8 13.3 1.3 3.4 6.3 5.6 9.7 8.6zm28.7-34c8.6 7.6 18.5 7.3 24.9 0.8 0-7.3 0.4-12.6-0.2-18-0.4-2.6-2.4-5-3.9-7.4-2.1 1.4-5.6 2.7-5.8 4.6-0.9 9.3-5.1 15.6-14.2 18.6-0.6 0-0.6 0.9-0.8 1.4zm374.7-68.4c0 2.2-0.8 7.6 0.2 8 3.5 1.3 8 1.8 11.4 0.5 2-0.7 4.4-5.9 3.7-8.1-2.4-6.7-6.2-12.8-9.5-19.1-4.5 1.8-8.4 3.7-14 6.1 2.8 4.2 5.4 8.3 8.2 12.6zm-3-456.1c6-7.1 7.5-45.9 2.1-52.7-7.1 9.3-8.5 46.4-2.1 52.7zm-271.4 757.5q-0.2 0-0.5 0c0 6.9-0.4 13.6 0.2 20.4 0.1 2.2 2.4 4.5 3.5 6.5 1.5-2 4.1-3.9 4.1-5.9 0.4-13.9 0.6-27.9 0.2-41.6 0-1.8-2.2-3.7-3.5-5.7-1.4 2-4 3.9-4 6.1-0.3 6.7 0 13.5 0 20.2zm-27.6-492.5c0-10.4-1.7-11.5-9.3-7.8-1 0.6-2.1 1.2-3.2 1.2-5.8 0-11.8-0.6-17.6-0.2-2.2 0.2-5 1.6-6.5 3.3-0.8 0.9 0.2 5.2 1.3 5.6 2.4 0.9 5.8 1.1 7.8 0 6.8-4.3 12.4-1.1 18.2 1.6 2 1 5.2 2.3 6.3 1.3 1.9-1.1 2.4-4.2 3-5zm494.2 420.4c-1.9 0-3.6 0-5.5 0 0 27.2 0 54.7 0 81.9 0.8 0 1.4 0 2.1 0.2 1.1-27.4 2.2-54.7 3.4-82.1zm-378.4-671.5c2.8 1.6 5.2 2.9 7.8 4.4 2.3-4.2 6.2-8.5 6-12.6-0.2-2.8-6.2-7-9.7-7-3.4 0-8.4 3.7-10.1 7-2.2 4.7-4.1 11.1 3.2 16 1.3-3.6 2.4-6.3 2.8-7.8zm154.2 430.5c-2.4-5-4.6-10.2-7.4-15-1.1-2.1-4.3-5.2-5.4-4.8-2.5 0.9-5.3 3.3-6.4 5.7-2.6 5.9 1.7 15.6 8.6 19.5 2.2 1.3 5.2 2.2 7.5 1.7 1.5-0.4 1.8-3.9 3.1-7.1zm281.1 277.7c11.4-7.6 15.7-18.6 12-29-0.8-2-3.9-4.8-5.6-4.6-2.3 0.4-6 3.2-6 5-0.8 8.9-0.4 18-0.4 28.6zm-524.4-3.7c0-1 0.2-1.9 0.2-2.8-2.1-1.1-4.7-1.7-6.2-3.3-5.6-6.9-13-4.1-20-3.9-1.8 0-4.8 2.9-5.2 4.8-0.4 2 1.3 6.3 2.8 6.7 9.7 2 19.4 2.4 28.4-1.5zm23.2-508.1c-3.6-0.7-6.6-2-9.4-2-2 0-5.2 0.7-6 2.2-0.7 1.3 0.4 4.4 1.5 6.1 2.7 3.4 5.6 7.8 9.2 8.6 4.8 0.9 11.8 0.5 14.9-2.3 3.4-3.1 1.7-8.9-4.5-11.7-1.4 3.2-2.8 5.8-4.1 8.4q-1.1-0.3-2.2-0.6c0.4-2.6 0.4-5.4 0.6-8.7zm419 355.2c-5.2-4.6-8-7-11-9.6-6.5-5.8-18.8-3.2-21.6 4.8-0.6 1.7 2.6 6.5 4.3 6.5 8.4 0 17-0.9 28.3-1.7zm-435.5-247c-8.2 1.1-15.9 1.4-23.1 3.7-2.5 0.7-3.6 5.7-5.3 8.9 3 1.1 6.2 3.3 9 2.9 5.4-0.5 10.8-2.6 17.9-4.6 0.2-2.2 1-7.2 1.5-10.9zm271.6 43.4c0-0.2 0-0.4 0.2-0.6 0.9 0 1.8 0.6 2.8 0.2 2.9-0.9 5.7-2.2 8.6-3.4-2.7-1.8-5.1-4.8-7.9-5.5-8.4-2.1-16.8-3.4-25.4-4.5-1.7-0.2-3.9 2.3-5.4 3.9-0.4 0.6 1.1 3.7 2.2 4.1 8.2 2.2 16.5 3.9 24.9 5.8zm-89.1 302.5c0.2 0 0.5 0 0.7-0.2-0.5-4.6-0.7-9.3-1.8-13.7-0.4-1.5-2.5-2.8-3.8-4.1-1.3 1.3-3.9 2.8-3.9 4.1 0 8.9 0.6 17.8 1.5 26.7 0.2 1.7 3.4 2.8 5 4.3 1.4-2.1 3.4-4.1 3.6-6.3 0.4-3.6-0.8-7.3-1.3-10.8zm-294-227.2c-3.1-3.2-6.1-8.6-9.7-9.1-8.6-1.5-8.4 6.5-9.1 11.8-1 5.6 2.4 8.6 8.2 8.4 6.3 0 8.8-3.5 10.6-11.1zm92.5 8.1c0 12.6 6.7 18.9 17 16.7 1.8-0.3 3.5-2.6 4.8-4.4 0.2-0.4-2.2-3.7-3-3.6-10.2 1.5-10.8-4.8-11-12.2 0-1.7-2.8-3.3-4.3-4.8-1.1 1.7-2.4 3.1-3.2 5-0.5 1.1-0.1 2.8-0.3 3.3zm253.8-340.3c0-1.7 0.4-3 0-4.1-3-6.2-23.4-11-28.8-6.9-0.7 0.6-1.5 2.4-1.1 3 0.7 1.1 2.1 2.2 3.4 2.6 2.8 0.7 7.2 0.2 8.2 1.8 5 9.3 11.6 5.2 18.3 3.6zm137.2 385.6q-0.2 1.7-0.5 3.3c2.6 1.9 5.6 5.6 7.8 5.2 6-1.1 12-3.5 17.2-6.5 1.3-0.7 0.2-5.9 0.2-8.9-9.9 2.6-17.2 4.7-24.7 6.9zm11.6 185.5c-0.2 1.1-0.2 2-0.3 3.1 3.9 0.8 7.6 1.5 11.5 2.4 6.8 1.7 13.7 3.4 20.4 5.4 2.4 0.8 4.7 1.9 7.1 2.8 0.7-1.8 2.6-4.4 1.9-5.6-1.5-2.2-4-5-6.4-5.3-8.8-1.9-17.6-3-26.5-3.9-2.4-0.6-5.1 0.5-7.7 1.1zm-428.8-424.4c10.5-18.6 9.4-20.8-8.2-21-2.4 0-5-0.4-7.5 0.2-1.8 0.6-3.3 2.2-5 3.5 0 1-0.2 1.9-0.2 2.8 12.3-3.1 16.3 5.2 20.9 14.5zm57.9 66.6c-0.5-0.4-0.9-0.6-1.5-1-1.7 2.8-5.6 6.3-4.8 8.2 1.3 3.3 5.2 5.8 8 8.7 2.4-3.1 5.2-6.1 6.9-9.6 1.1-2.3 0.2-5.4 0.2-8.2 0-6.3-3.4-8-9.7-6.1 0.2 2.8 0.5 5.4 0.9 8zm-136.5 99.4c4.5 0.5 8.6 1.7 12.3 1.1 2.8-0.4 6.8-2.8 7.3-5 0.6-2.4-1.5-6.7-3.7-8.2-7.7-5.2-15.7 1-15.9 12.1zm27.5-88.9q-0.9-0.5-1.7-1.1c1.1-2.8 2.8-5.4 3.3-8.1 0.6-2.4-0.2-5.2-0.3-7.8-2.1 1.6-4.5 3.3-6.2 5.4-1.1 1.3-2.4 3.5-2.1 5 1.2 4.8 3 9.6 5.1 14.2 0.2 0.4 5.2 0 6.3-1.4 2.1-2.8 3-6.5 4.3-10.1-0.9-0.3-1.6-0.7-2.6-1.1-2.2 1.7-4.1 3.4-6.1 5zm30.4 352.1c-0.4-0.9-0.6-2-0.9-3-8.8 1-17.6 1.5-26.2 2.8-1.7 0.2-2.8 3.2-4.1 5 2.1 1 4.1 2.8 6.2 2.6 6.7-0.5 13.6-1.6 20.1-3.1 1.9-0.4 3.2-2.8 4.9-4.3zm164.7-531.2c-4.3-5.2-6.9-8.2-9.3-11.4-3 3.2-7.9 6.2-8.6 9.9-0.6 2.4 4.3 7 7.6 8.7 1.5 0.5 5.5-3.7 10.3-7.2zm-212.9 466.8c-3.9 2.8-6.7 4.9-9.7 6.9 3.4 3.7 6.5 7.4 9.9 11.1 3.2-3.7 6.3-7.6 9.5-11.3-2.8-2-5.6-3.9-9.7-6.7zm418.2-319.4c-0.4-1.1-1-2.2-1.3-3.3-7 0-13.7-0.2-20.6 0.2-1.9 0.2-3.5 2.4-5.2 3.5 1.7 1.8 3.3 5 5.2 5.2 5.2 0.5 10.5 0.2 15.7-0.8 2.2-0.3 4.1-3.1 6.2-4.8zm-352.8 205.4c-2.4 4.8-0.2 23 4.3 26.1 2.2 1.5 6.1 0.9 9.1 0.6 0.4 0 1.3-4.7 0.4-6.3-4.3-7.3-9.3-13.9-13.8-20.4zm-126.8 135.6c3.1 6.1 5.8 11.6 9.1 16.6 0.6 1 6.7 0 7.3-1.2 4.1-11.9-2.8-18.8-16.4-15.4zm510.2-57c5-1.8 8.8-2.8 12.1-4.6 0.6-0.4 0-5.4-0.7-5.4-6-1.3-12.2-2-18.3-2.4-0.6 0-2.4 4.4-1.9 5 2.4 3 5.8 5 8.8 7.4zm-89.6-407.5c-0.2-5.8-12.9-14.3-16.5-12.4-1.3 0.7-2.8 2.6-2.8 4-0.2 1.5 1.1 3.2 2.3 4.5 2 2.2 4.1 4.4 6.5 5.9 2 1.3 4.8 3 6.9 2.4 1.5-0.5 2.8-3.5 3.6-4.4zm-281.1-108.2c-1-1.6-2.4-4-3.9-6.5-2.3 1.7-4.7 3.4-6.8 5.4-0.9 1-1.8 3-1.5 4.3 1.2 4.1 2.8 8 4.3 11.9 2.3-2.8 4.7-5.4 6.6-8.4 0.7-1.5 0.5-3.7 1.3-6.7zm423.4 519.2c4.1-3.3 7.1-5.7 10.2-8.3-4.4-2.1-8.9-4.7-13.6-5.6-1.7-0.3-4.3 3.5-6.3 5.6 2.8 2.6 5.7 5.2 9.7 8.3zm-370.9-214c-5.5 5.4-16.3 0.2-13.3 11.7 0.7 2.7 5.2 7.4 6.3 7 7.1-2.8 7.3-9.3 7-18.7zm-50.8-458.9c-7.7 8.7-7.1 27.2 1.1 33.5-2.8-11.5 4.3-22-1.1-33.5zm-51.2 418.1c3.2 3.7 5.6 6.6 8 9.4 2.1-2.2 6-5 5.6-6.7-1.1-4.4-4.1-8.3-6.3-12.6-2.3 3-4.3 5.8-7.3 9.9zm446.3 255.8c4-4.1 7.5-6.3 8.3-9.1 0.3-1.7-3.8-5.6-6.4-6.5-4.1-1.1-9.7-1.1-9.3 5.2 0.2 2.9 3.9 5.7 7.4 10.4zm-102.3-308.7c4.1-3.5 6.5-5.7 9-7.8-3.8-2.4-7.1-5.7-11.2-7-1.7-0.6-4.7 3.5-7.1 5.5 2.6 2.6 5.4 5.4 9.3 9.3zm30.3-174.2c-0.6-9.1-9.8-11.3-23.8-5.4 3.2 5.6 3.2 5.6 23.8 5.4zm14.1 367.5c4.3-3.4 7-5.2 9.6-7.2-3.9-3.4-7.7-6.7-11.6-10.3-1.9 2.5-5.6 5.4-5.2 7.3 0.9 3.3 4.3 6.1 7.2 10.2zm-286.8-122.8c-8.6 1.1-8.8 6.5-8 11.3 0.3 2.6 3.5 4.6 5.4 6.9 2-4.5 4.5-8.8 5.9-13.4 0.4-1.3-2.4-3.7-3.3-4.8zm193.8-319.8c1.5-0.7 4-2 6.4-3.3q-3.3-2.9-6.9-5.4c-1.7-1.1-3.8-2.6-5.6-2.8-2.3-0.2-4.5 0.9-6.7 1.5 0.7 2.6 0.5 6.5 2.4 7.8 2 1.5 5.8 1.3 10.4 2.2zm-165.2 425.1c3.9-4.6 6.9-7.6 8.9-11.1 0.4-0.5-4.5-5.4-5-5-4.1 2.6-7.7 5.9-11.4 8.9 1.9 1.7 3.7 3.5 7.5 7.2zm-100.1 50.1c-1.5-0.3-3-0.5-4.5-0.9-1.5 5.9-3.4 12.1-4.3 18.2-0.4 1.8 1.5 4.2 2.4 6.3 1.9-1.5 5-3 5.2-4.8 1-6.2 0.8-12.5 1.2-18.8zm-79.6 16.2c-0.2 0.3-0.2 0.5-0.4 0.9-1.5 0-3.2-0.4-4.6 0-2.3 0.7-4.3 2-6.4 3.2 1.9 1.1 3.6 2.4 5.4 3.5 1.1 0.5 2.3 0.9 3.6 1.1 4.3 0.2 8.7 0.4 13 0.2 0.4 0 1.2-4.7 0.8-4.8-3.6-1.7-7.5-2.8-11.4-4.1zm188.1-62c-10.3-5-17.6-0.5-25.1 2.4-0.7 0.4-1.5 2.4-1.3 3 0.6 1.1 2.1 2.6 3.2 2.6 7.8-0.2 15.7-1.1 23.2-8zm161.3-147.8c-0.2-1.1-0.3-2.1-0.5-3.2-0.2-3.1-0.4-6.3-0.8-9.2-0.4-2.1-1.3-4.1-2-6.2-2.5 1-6.6 1.7-6.9 3.2-0.6 3.9-0.8 8.7 0.9 12 1.1 2.3 6.1 2.4 9.3 3.4zm-7.6 399c-5.6-3.9-9-7.1-13.1-8.7-0.8-0.4-3.9 4.4-5.8 7 3.6 2.2 7.1 5 11 6.5 1.1 0.4 3.8-2.4 7.9-4.8zm81.4-272c0.6 10.6 4.8 14 12.3 10.4 2.1-0.9 3.4-3.7 4.9-5.5-2.3-1.7-4.3-3.9-6.7-4.7-3-0.7-6.6-0.2-10.5-0.2zm-350.4-220c-1.1 1.7-2.4 4.1-3.9 6.5 0.6 0.8 1.1 1.5 1.7 2.1 2.6-1.3 6.7-2.1 7.6-4.1 1.4-2.8 1.4-7.2-0.1-9.8-1.3-2.3-5.5-3.2-8.4-3.9-1-0.2-2.5 1.8-3.8 2.9 2.3 1.9 4.3 3.7 6.9 6.3zm326.3 86.5c3.7-3 8-5 7.8-6.5-0.5-7.1-7.1-5.2-11.3-5.6-2.1-0.2-4.5 2.3-6.8 3.6 3.2 2.6 6.2 5 10.3 8.5zm0.4-378.4c3-8 5.6-16-1.7-22.1-1.3-1.1-4.1-0.4-6.4-0.4 0.4 2.1 0.2 4.3 1 6.2 1.3 3.1 3 6.3 4.5 9.4 0.9 2.2 1.6 4.7 2.6 6.9zm-270.3 448.5c-5.4 1.7-9.9 3.2-17.5 5.6 4.6 3.7 8.6 8.5 10.6 7.9 5.6-1.6 9.5-6.3 6.9-13.5zm-62.2-97.8c0 1.9 0.2 3.6 0.2 5.4 6.2 0 12.5 0.2 18.7-0.2 0.9 0 2.6-1.8 2.6-2.9 0-1.1-1.7-3.2-2.6-3.2-6.2 0.4-12.5 0.8-18.9 0.9zm236.1-155.8q1.4 0.3 2.8 0.6c6-6.1 1.9-14.5 3.4-21.7 0.2-1.3-2.8-3.4-4.3-4.8-0.6 0.3-1.3 0.7-1.9 1.1 0 8.1 0 16.5 0 24.8zm111.7 279.9c-7.9-9-16.6-8.7-22 0 7.2 0 14 0 22 0zm-419.1 307c-3.4 3.2-5.4 4.9-7.3 6.7 2.6 2.4 4.9 5.6 7.9 6.7 1.6 0.5 4.6-2.4 6.9-3.9-2.3-2.8-4.3-5.4-7.5-9.5zm448.6-142.1c-3 3.8-4.9 6-6.7 8.2 3 2 5.8 5 8.9 5.6 2.1 0.3 4.7-3.4 6.9-5.2-2.6-2.2-5-4.7-9.1-8.6zm6.9-259.1c6 5.4 16.8 5.4 25.2-0.9-3.3-1.7-6.1-4.3-8.6-3.9-5.6 0.7-10.8 3-16.6 4.8zm-272.5 201.3c5.3-14.1 2.1-19.3-10.6-19.9 3.7 7.1 7.1 13.4 10.6 19.9zm9.7-331.3c1.5-0.8 5.6-2.2 5.5-2.8-1-4.8-2.3-9.8-4.5-14.3-0.8-1.5-4.7-1.3-7.9-1.8 2.5 6.6 4.3 11.6 6.9 18.9zm132.6 521.8c-2.6-3.2-4.4-5.4-6.1-7.4-2.3 3.3-5.3 6.3-6.6 10-0.5 1.3 3.2 4 4.9 6.3 2.4-2.8 4.7-5.6 7.8-8.9zm-98-777.8c-3.4 3.9-6.9 6.3-7.1 8.9-0.2 2 3.7 4.5 6 6.7 2.4-2.6 5.6-5 7.2-8.2 0.4-0.7-3.1-3.7-6.1-7.4zm-49.9 610.6c-4.8-6.3-16.8-9.2-20-6.1-0.9 0.9 0 6 0.2 6 6.2 0.1 12.2 0.1 19.8 0.1zm294.7-144.1c1.3 1.1 2.8 2.4 4.1 3.5 3.6-2.7 6.9-5.7 10.5-8.5-2.8-1.8-5.6-3.9-8.6-5.7-1.9 3.5-3.9 7.2-6 10.7zm-91.7 96.5c-3.9-3.2-6.3-6.5-8.6-6.5-2.2 0-5.8 3.7-5.9 5.9-0.2 2.2 3.3 6.1 5.4 6.3 2.2 0.4 5-2.8 9.1-5.7zm-256.6-123.8c1.7 0.6 3.4 1.2 5.1 1.5 2.2-5.9 4.4-12 6.3-18 0.2-0.7-1.3-2.7-2.4-3.1-1.1-0.4-3.9 0-4.1 0.7-1.9 6.3-3.4 12.6-4.9 18.9zm363.3 38.6q0.3 1.9 0.3 3.9c4.7 0.4 9.4 1.3 13.9 1 1.5-0.2 3.9-3.8 3.9-5.6 0-1.5-3.6-4.5-5.1-4.1-4.4 0.9-8.5 3.2-13 4.8zm-418.9 104.3c-3 4.4-6 7-5.8 9.4 0.2 2.4 3.3 4.9 5.2 7.3 2.1-2.6 5.1-5 5.8-8 0.4-1.7-2.6-4.5-5.2-8.7zm463.3 24.3c6 1.5 10.7 3.1 15.1 3.3 1.4 0 2.8-3.9 4.3-5.9-2.2-1.1-4.6-3.7-6.5-3.4-3.7 1-7.3 3.4-12.9 6zm-364.9-22.7c-2.1 6-3.6 11.5 3.7 14.1 1.5 0.6 5.6-1.6 5.8-3.1 1.1-6.1-0.9-10.8-9.5-11zm-31.6-296.2c-9.3 3.4-12.5 6.9-9.5 12.4 0.9 1.9 4.7 2.3 7.3 3.4 0.7-4.7 1.3-9.1 2.2-15.8zm390.2 317.2c-5.8-0.5-10.5-1.1-15.2-1.1-1.3 0-2.9 1.8-3.7 3.1-0.4 0.8 0.8 3.2 1.7 3.4 6.1 1.8 12.5 3.9 17.2-5.4zm-68.8-9.3c-3.5 2.3-6.1 3.9-8.5 5.6 2.4 1.9 4.8 5 7 5 3-0.2 6-3 9-4.6-2.2-1.9-4.5-3.6-7.5-6zm-155.2-521c-1.5-0.4-2.8-0.6-4.3-0.9-1.8 4.4-4.1 8.7-5.6 13.1-0.3 1.3 1.4 3.7 2.8 4.9 0.4 0.3 3.8-1.2 4.2-2.3 1.3-4.8 2-9.8 2.9-14.8zm77.2 566.7c-7.1 6.5-7.9 11.6-1.7 15.9 1.1 0.8 3.7-0.5 5.6-0.9q-2-7.5-3.9-15zm-282.8-110c9.5-8.2 10.3-14.1 2.3-21-0.6 6.3-1.3 12.4-2.3 21zm360.1-49.4c8.6 0 14.9 0 22.2 0-6.3-7.2-12.9-7.6-22.2 0zm-284.3-38.2c1.5 0.6 3 1.1 4.3 1.7 4.9-3 7-7.6 6-13.4-0.2-1.3-3.7-1.8-5.8-2.8-1.5 4.7-3 9.7-4.5 14.5zm-95.2-189.9c3.2-4.9 6.3-7.4 6.5-10.2 0.2-2.1-3.3-4.5-5.2-6.9-1.9 3-4.3 5.9-5.4 9.3-0.4 1.3 1.9 3.7 4.1 7.8zm275.5 86.8c-2.6 3.7-5.3 6.1-4.9 6.8 1.9 3 4.5 5.6 7.3 8 0.2 0.2 4.7-3.3 4.5-3.9-1.5-3.3-3.8-6.1-6.9-10.9zm31.9 251.9c-2.6-3.5-4.5-5.6-6.2-7.8-2.4 2.2-5.7 4.3-6.9 7-0.5 1.5 3 6.3 4.7 6.3 2.6-0.1 5-3.1 8.4-5.5zm-182.3-283.3c0-1.3 0-2.7 0-4-4.6-1.2-9.3-2.6-14-3.4-1.3-0.2-3.3 1.1-4.3 2.2-0.5 0.6 0.6 3.6 1.1 3.7 5.6 0.6 11.4 1 17.2 1.5zm128.1-49.7c1.2 0.4 2.1 0.8 3.2 1.1 1.9-4 4.3-7.9 5.6-12 0.4-1.1-2.4-3.7-4.3-4.7-0.7-0.3-3.9 2.1-4.1 3.4-0.7 4.1-0.4 8.1-0.4 12.2zm146.6 324.6c-3.7 3-6.3 5-8.9 6.9 2.6 1.5 5.2 4.1 8 4.3 2.3 0.1 4.7-2.6 6.9-4.1-1.7-2.1-3.3-4.1-6-7.1zm-274.3-434.6c3.7 3 5.8 4.7 7.8 6.3 1.7-2.2 4.7-4.2 4.7-6.5 0-2.2-3-4.4-4.5-6.6-2.2 1.8-4.3 3.7-8 6.8zm-33.4 87.6c0.3 5.4 0.7 9.3 0.9 13.3 2.2-0.3 5.6-0.2 6.2-1.3 2.6-4.8 1.8-9.1-7.1-12zm450.1 510.4c-3.8-2.7-5.8-4.4-7.9-6.1-1.7 2.3-4.3 4.5-4.5 7.1-0.2 1.5 3.4 5 5.1 4.8 2-0.2 3.9-3 7.3-5.8zm-419.5-391.9c2.8-5.4 5-8 5.4-10.8 0.2-1.8-2.4-3.8-3.7-5.9-2.1 2.1-5.1 3.9-5.6 6.5-0.6 2 1.8 4.8 3.9 10.2zm-100.5 191.4c2.8-2.2 4.9-3.9 6.9-5.3-2.2-1.7-4.1-4.5-6.5-4.7-1.9-0.2-3.9 2.6-6 4.1 1.7 1.7 3.2 3.3 5.6 5.9zm-1.1-262.4c-2.6 3.1-4.5 5.2-6.2 7.2 1.9 1.3 4.1 4.1 5.8 3.7 2.3-0.4 4.3-2.8 6.4-4.4-1.7-1.7-3.2-3.6-6-6.5zm253.4-31.8c3.2-2.6 5.1-4.2 7.1-5.9-1.8-1.8-3.7-5-5.6-5.2-2 0-4.3 2.8-6.5 4.5 1.3 1.8 2.6 3.7 5 6.6zm-177.8 452.6c0.2 1.7 0.4 3.6 0.6 5.2 3.9-0.3 7.7-0.5 11.6-0.9-0.2-1.8-0.4-3.9-0.6-5.7-3.9 0.5-7.6 1.1-11.6 1.4zm-2.6-414.3c-0.2 2-0.3 3.8-0.5 5.9 3.7 0.4 7.6 1.1 11.4 0.9 0.3 0 0.7-4.4 1.1-6.8-3.9 0-8.1 0-12 0zm-139.9 175.4c3.2-2.2 5.5-3.7 7.7-5.4-2.6-1.4-5.2-3.7-8-3.8-1.9-0.2-4.1 2.4-6 3.7 1.7 1.6 3.7 3.3 6.3 5.5zm-0.1 296.4c-3.4-2.4-5.5-5.3-7.3-5.1-1.9 0.1-4.7 3.1-4.9 5.1-0.2 1.9 2.6 4.1 4.1 6 2.5-1.7 4.7-3.4 8.1-6zm34.1-471.8c-8.2 8.7-8.2 8.7 0 14.2 0-5.5 0-10 0-14.2zm45.6 181.4c0 1.6 0 3.3 0.2 5 4.1-0.2 8-0.6 12.1-1.1 0.2 0 0-3 0-4.7-4.1 0.4-8.2 0.6-12.3 0.8zm-42.6-140.1c1.3-9.3-3.3-10.6-8-10.4-1.1 0-2.1 3.4-3.2 5.2 3.6 1.5 6.9 3.2 11.2 5.2zm342.2 324.4c-1-1.4-1.7-2.9-2.6-4.4-2.1-1.3-4.5-4.1-6-3.7-1.9 0.5-4.1 3.7-4.1 5.7 0 1.9 3 4.7 4.8 4.9 2.4 0.3 5.3-1.5 7.9-2.5zm-358.6-313.3c1.5 1 2.8 2.1 4.3 3q3.6-4.4 7.3-8.9c-2.1-0.9-5.5-3-6-2.4-2.4 2.4-3.9 5.6-5.6 8.3zm289.3-2.4c-1.9 0.2-3.6 0.4-5.4 0.4 0 3.5 0 7.2 0 10.8 2.2-0.2 4.4-0.2 6.7-0.4-0.4-3.5-1-7.1-1.3-10.8zm-131.7-266.5c-3-2.4-5-5-6.3-4.8-2.5 0.5-4.7 2.7-6.9 4.4 1.6 1.7 3.3 4.5 5.2 4.7 2.2 0.1 4.5-2.3 8-4.3zm-84.8 174.7c1.1 0.6 2.5 1.3 3.6 1.9 1.1-2.4 3.3-4.8 3.1-7.1-0.1-2-2.8-5.2-4.6-5.4-1.7-0.1-5.1 2.6-5.4 4.5-0.6 1.7 2 4.1 3.3 6.1zm77.7 187.6c-3.5-2.1-5.4-4.3-6.5-3.9-2.5 1.1-4.5 3.1-6.7 4.8 1.8 1.1 3.7 3.3 5.4 3.3 2 0 4.1-2 7.8-4.2zm186.6 283c-1.5 0.2-3.2 0.4-4.7 0.4 0.6 4.2 1.1 8.7 1.7 13 1.3-0.2 3.9-0.6 3.9-0.8 0-4.1-0.5-8.3-0.9-12.6zm104-258c0.4 1.1 0.8 2.2 1.1 3.1 3.8-0.1 7.3-0.5 11.1-0.7 0.1-0.9 0.5-1.7 0.7-2.6-1.9-1.7-3.9-4.6-5.4-4.4-2.6 0.5-5.1 2.9-7.5 4.6zm-277.7-218c-2.4-1.8-4.3-4.4-5.8-4-1.7 0.3-4.1 2.9-4.1 4.4 0.2 2.1 2.4 4.1 3.7 6.1 1.9-1.8 3.6-3.7 6.2-6.5zm329.3 349.7c-2.8-2.6-4.7-5.8-6.2-5.6-2.1 0.4-3.6 3-5.4 4.8 1.8 1.7 3.3 4.1 5.6 5.1 0.9 0.3 3.2-2.3 6-4.3zm-375.1-120.2c-0.1 1.7-0.3 3.3-0.7 5 4.3 0.6 8.6 0.9 13.1 1.5q0.3-2.2 0.5-4.5c-4.3-0.5-8.6-1.3-12.9-2zm390.4 184.7c-4.3-2-6.6-4-8.6-3.9-2.1 0.2-3.8 2.8-5.6 4.5 2.2 1.3 4.3 3.3 6.5 3.5 1.7 0.4 3.8-1.8 7.7-4.1zm-493.1-118.9c-0.3 1.7-0.7 3.4-1.1 5.2 4.3 0.6 8.4 1.3 12.7 1.7 0.2 0 0.6-2.6 0.9-3.9-4.1-0.9-8.4-1.8-12.5-3zm308.6-188.2c1.6 0.3 3.1 0.9 4.8 1.3 0.8-3.9 1.5-7.8 2.4-11.7-1.5-0.4-2.8-0.8-4.3-0.9-1.1 3.8-2 7.6-2.9 11.3zm-49-246.6c1.7 0 3.4 0.2 5.3 0.2q0-6.4 0-12.8c-1.4 0.2-4 0.2-4 0.6-0.7 4.1-0.9 8.2-1.3 12zm-326.1 653.7q-0.8 2.5-1.6 5c3.5 1.1 6.9 2.3 10.4 3 0.4 0 1.3-2.8 2.1-4.3-3.8-1.5-7.3-2.6-10.9-3.7z"/><path class="a" d="m229.2 345.2c-10.1-13.3-19.2-25.4-28.6-37.6-5.8-7.6-12.1-14.9-17.2-22.8-1.5-2.5-1.5-7.6 0-10.1 4.1-6.8 9.6-12.9 14.2-19.3 3.4-4.4 6.6-5.7 11.6-1.8 26 20.4 52.1 40.4 77.9 61 1.7 1.3 3 6.3 1.9 7.8-3.4 5.4-8.1 9.8-12.7 15.2-19.8-15.6-39.1-30.8-58.5-46-0.9 0.8-1.7 1.7-2.6 2.4 4.5 6.2 8.9 12.3 13.6 18.4 9.7 12.4 19.3 24.9 29.2 36.9 3.9 4.8 3.9 8-0.2 12.8-14.2 16.5-13.9 16.1-37.2 4.1-15.9-8.2-32.5-14.8-48.7-22.3q-0.9 0.9-1.7 1.7c1.7 1.9 3 4.3 5 5.8 16.3 12.2 32.5 24.4 48.9 36.3 5.8 4.3 9 7.8 2.1 13.5-1.7 1.3-2.6 3.6-3.7 5.4-3.8 6.9-7.5 7.1-13.9 1.9-24-19.7-48.9-39.2-73.9-58.1-5.6-4.2-6-7.6-1.9-12.8 4.5-5.5 8.2-11.5 12.9-16.9 3.6-4 6.7-7 14-3.3 21.1 10.4 43 19.1 64.4 28.4 0.8 0.2 1.7-0.2 5.1-0.6z"/><path class="a" d="m876.7 39.9c-4.8 15-9.9 30.1-14.7 45.1-3 9.1-5.8 18.2-9.4 27.1-0.9 2-4.6 4.2-7.3 4.2-6.1 0-12.5-0.5-18.4-2-1.9-0.4-3.6-4.5-4-7.1-3.9-22-7.6-44.3-11.4-66.5-0.3-1.7-1.1-3.4-3.5-5.2-0.8 2.9-1.9 5.9-2.1 9.1-1.1 20-2.2 40-2.8 60.1-0.1 8.7-4.3 10.3-11.7 9-13.8-2.4-14-2.2-13.3-16.1 1.3-26.2 3-52.3 4.7-78.6 0.4-4.7 0.9-9.3 2.6-13.6 0.9-2.2 4.3-5.2 6.3-5.2 9 0.2 18.2 1.1 26.9 2.6 2.5 0.4 5.6 3.9 6.2 6.3 4.1 19.7 7.7 39.3 11.4 59 0.7 4.1 1.9 8 2.8 12.1 0.9 0 2.1 0.2 3 0.2 3.5-9.9 7.3-19.9 10.8-29.7 4.9-13.4 9.2-26.7 14.4-39.7 0.9-2.4 5-5 7.8-5 7.5-0.2 15 1.5 22.3 1.3 7.4-0.2 10.1 2.2 9.5 9.6-1.9 23.8-3.6 47.5-5.2 71.1-0.6 8.3-1.5 16.7-1.9 24.8-0.4 5-2.6 7.4-7.7 6.7-2.4-0.4-5-1.1-7.2-0.7-7.9 0.7-9.9-3.2-9.2-10.1 1.7-18.1 3.2-36.1 4.5-54.3 0.4-4.7 0-9.5 0-14.1-1.3-0.2-2.3-0.4-3.4-0.4z"/><path class="a" d="m1498.1 591.4c-4.7-0.4-9.5-0.9-14.2-0.9-20 0.3-39.8 0.5-59.8 1.3-6.5 0.1-10.8-1-11.5-8.6-0.4-3.5-1.9-7-3-10.5-1.5-5.1 0.2-7.8 4.8-10.4 19.8-10.8 39.2-22.1 58.8-33.2 2.1-1.1 3.8-2.6 4.7-6-25.4 7.3-51 14.7-77.1 22.3-0.6-4.1-0.8-6.1-1.1-8.2-3.6-15.9-3.8-16.3 11.7-20.9 27.3-8.2 54.8-15.6 82-23.6 7.3-2 12-0.7 13.3 7.8 1.3 8.7 7.1 18.7 4.5 25.6-2.7 6.7-13.3 10.8-21 15.2-13.4 8.2-27.2 15.8-40.7 23.8-2 1.2-3.9 3.1-7.4 6.3 15.1 0 27.8 0.1 40.3 0 12.7-0.2 25.4-1 38.1-0.8 2.6 0 6.7 3 7.7 5.6 2.8 7.4 4.3 15.4 6.7 23 1.8 5.7 0.2 8.3-5.6 10-25 7-49.9 14.3-74.7 21.5-6.6 1.9-13.1 3.5-19.8 5-4.9 1.3-7.9 0.6-8.8-5.7-2.2-15.4-2.8-15.8 12.7-20.4 19.8-6 39.6-11.2 59.6-16.7-0.4-0.2-0.2-0.8-0.2-1.5z"/><path class="a" d="m1110.1 152.4c10.9-22.7 20.6-42.9 30.3-63.1 23.5 10.6 23.7 10.6 13.6 31.9-11.9 25.2-24.1 50.3-36.6 75.1-0.9 1.9-6.3 3-8.9 2.1-6.2-2.1-12.4-4.8-17.4-8.6-2.6-1.8-3.9-6.6-4.1-10.3-1.5-19.7-2.4-39.4-3.8-59.2-0.1-2.8-1.1-5.6-1.8-8.4-0.8-0.2-1.7-0.2-2.4-0.3-4.9 10.4-9.6 20.7-14.4 31.3-3.4 7.2-6.9 14.5-10.3 21.7-0.2 0.6-0.6 1.1-0.9 1.7-7.5 7.2-12.2-2.4-18.1-3.4-3.4-0.5-8.8-3.5-5.5-10.2 14.8-29.6 29.2-59.5 44.3-89 1.1-2 6.2-3.3 9-2.8 3.7 0.6 7.1 3.4 10.8 5 8.2 3.6 11.2 9.3 11.4 18.4 0.2 20 2 40.1 3.3 60.1-0.5 1.9 0.2 3.3 1.5 8z"/><path class="a" d="m1408.6 971.8c3.5-13.1 8.2-31.7 13.8-49.9 0.6-1.6 6.3-3.3 9.1-2.6 20.4 5 40.8 10.6 61.1 16 10.9 2.8 21.7 5.4 32.3 8.7 2.6 0.9 6.4 5.4 6 7.1-5.4 19.1-9.7 38.7-17.7 56.7-8.6 19.1-27.3 24.7-47.1 21.9-17.4-2.4-34.6-7-47.3-20.8-8.5-8.9-10-20-10.2-37.1zm22.4 3c0.9 2.4 1.9 5.6 3.2 8.5 4.4 11.3 15.1 13.8 25.2 16.7 24.4 7.3 39.4-2.4 42.4-27.4 0.3-2.4-2.8-7.1-5.3-7.8-16.8-5-33.9-9.5-51.1-13.6-2.8-0.7-8.4 1.2-9.4 3.2-2.4 5.9-3.1 12.8-5 20.4z"/><path class="a" d="m153.6 540.6c-3.4 9.4-6 17.4-9.4 25.2-0.5 1.3-3.5 2-5.4 2.4-9.1 1.5-18.3 2.8-27.4 4.3-6.4 1.1-11.1 4.4-11.6 11.3-0.4 6.5 5 6.5 9.5 7.8 7.1 2 14 4.8 21.1 7.2 0.6 0.2 1.3 0.4 1.7 0.7 7.1 8-1.5 14.9-1.9 22.5 0 1.7-5.4 5-7.8 4.6-11.8-2.6-23.4-6.1-34.9-9.2-19.5-5.4-38.7-10.8-58.1-15.8-7.7-2.1-8.8-5.4-6.4-12.6 5.6-16.5 9.9-33.4 15.5-49.9 4.9-14.3 12.7-20.2 25.2-20.6 13.9-0.4 22.4 5.7 29 18.9 1.3 2.6 5.8 5.4 8.8 5.2 14.2-0.2 28.5-1.1 42.7-1.9 2.5-0.3 4.7-0.1 9.4-0.1zm-75.9 18.9c0.2-10-3.1-13.6-12.8-13.7-8.8-0.2-17.8 12.6-18.2 25.7-0.2 5 9 10.1 19.5 10.4 6.5 0.6 11.4-8.5 11.5-22.4z"/><path class="a" d="m356.2 151c-1.9-32.8 29.7-55.1 57.9-56.5 33.4-1.7 59.4 31.5 60.1 64 0.8 30.4-25.2 53.7-58.8 55.6-33.1 1.7-58.6-36-59.2-63.1zm63.1 41c13.5-1.8 28.4-13.9 28-25-0.5-18.9-7.6-34.7-24.2-45.3-10.1-6.3-19.7-4.2-28.8 2.1-9 6.1-14.6 15.2-10.8 25.4 4.1 11.5 10.6 22.6 17.9 32.6 3.9 5 11.9 6.9 17.9 10.2z"/><path class="a" d="m121.2 878.5c1.5 7.1 3 12.6 4 18.4 0.9 5 0.1 9.1-6.6 9.6-31.5 3-63.1 6.1-94.5 9.5-8.4 0.9-13.4-0.8-12.3-10.4 0.2-1.1-0.4-2.4-0.6-3.7-1.5-11.9-1.3-11.9 10.3-12.8 6.7-0.6 13.6-1.3 20.4-2.1 6.1-0.5 8.7-3.7 8-9.8-1.1-8.9-1.7-17.8-3.7-26.5-0.6-2.4-4.9-5.8-7.5-5.8-7.1 0-14.2 1.2-21.1 2.8-8 1.9-12.2 0.8-12.9-8.5-2.1-22.8-3.9-17.8 15.9-20.2 28-3.4 56.2-5.8 84.4-8.7 6.9-0.8 10.5-0.6 11 8.5 0.9 18 1.9 18-16.2 20q-10.7 1.1-21.3 1.7c-6 0.2-8.4 2.8-7.7 8.7 1.1 8.5 2.1 17.3 2.6 25.8 0.4 6.3 3.6 7.8 9.2 7.2 12.7-1.5 25.6-2.6 38.6-3.7z"/><path class="a" d="m1452.7 813.8c25.2 2.8 50.6 5.4 75.8 8.1 2.4 0.2 4.9 0.8 7.5 1 15.3 0.7 14.9 0.7 13.2 16.3-2.2 19.8-4.3 39.9-5.6 59.9-0.5 9.3-5.8 8.2-11.9 8.2-6.7-0.2-11.8-0.8-10.7-9.5 1.7-13.2 2.8-26.3 4.3-39.5 0.8-6.5-0.9-10-8.4-9.5-6.3 0.6-14-2.7-14.4 8.8-0.3 11.8-2 23.9-3.9 35.6-0.4 2-3.7 4.6-6.3 5.4-2.8 0.7-6.6 0.5-9-1-2.4-1.5-5.6-4.8-5.4-7.2 1.1-13.2 3-26.2 4.7-39.3 0.1-1.1-0.2-3.2-0.8-3.4-6.3-1.6-12.7-3.9-19-4.2-2.5-0.2-6.8 4.4-7.1 7.2q-3.1 21.1-4.5 42.3c-0.9 12.8-9.5 5.9-15.1 6.5-7.1 0.7-6.6-3.9-6-9.1 2.2-20.6 4.1-41 5.8-61.6 1.1-15.8 0.7-15.8 16.8-15z"/><path class="a" d="m719.5 2.8c6.5 0 13.2 0.4 20.1-0.2 6.4-0.3 8.4 2.5 8.6 8 0 5.4 2.1 11.9-6.7 12.6-13.1 1.1-26 2.4-39 2.6-8.8 0.2-11 3.9-11 12.1 0.1 8.2 2.9 10.9 11 10.4 11.4-1 22.9-1 34.5-1.5 4.9-0.2 9.7-0.9 9 6.5-0.6 5.7 2.6 12.8-7.9 13.3-11.7 0.6-23.5 2.5-35.3 3-6.1 0.4-8.2 3-7.8 8.5 0.2 2.8 0.4 5.6 0.2 8.4-0.4 8.3 3.9 9.8 11.2 9.1 13.8-1.3 27.8-1.9 41.8-3.4 6-0.5 7.7 1.7 7.7 7.3 0.4 16.7 1.7 14.1-13.8 14.8-21.1 1.1-42.2 2.4-63.2 4.3-6.9 0.5-9.5-1.5-9.9-8.4-1.8-31.7-4.1-63.4-6.3-95.1-0.4-4.8-0.4-8.4 6.2-8.7 16.8-0.8 33.4-2.3 50.6-3.6z"/><path class="a" d="m1003.5 150.9c-16.2-4.2-32.1-8.3-48-12.6-7.8-2-15.5-4.4-23.3-6.3-5.6-1.3-8-4.3-6.3-10 8.2-29.3 16.2-58.6 24.4-87.7 0.6-2.1 1.1-4.3 1.3-6.3 0.4-5.1 2.8-6.4 7.5-5.2 23.9 6.5 47.8 12.8 71.7 19.4 1.7 0.6 3.4 4.5 3.6 6.9 0.1 2.6-1.7 5.2-2.1 8-0.9 6.5-4.3 7-9.9 5.4-12.7-3.8-25.8-7.1-38.5-10.8-9.3-2.8-11.2 3.5-13.2 10-2.3 7.2 1.5 9.8 8 11.5 12 3 23.9 6.3 35.9 9.8 1.8 0.6 4.1 3 4.4 4.9 1.4 9.6-5.4 15.9-14.7 13.5-9.5-2.4-19.2-5-28.6-8.2-7.5-2.5-12.7-1.4-14.9 6.9-0.8 3-3.2 5.9-2.8 8.7 0.5 3.2 2.6 7.8 5 8.6 14.2 4.2 28.8 7.4 43 11.6 2.8 1 7.1 6.7 6.9 7.1-4.1 4.6 0.4 14.5-9.4 14.8z"/><path class="a" d="m45.6 702.9c6 0 10.3 0.4 14.6 0 6.2-0.6 8.4 1.7 8 8-0.5 12.1-0.2 24.2-0.9 36.3-0.4 6.9 1.7 9.9 8.6 9.3 1.9-0.2 3.7 0 5.6 0.2 8 0.6 12.7-0.9 11.9-11.2-0.9-13.2 0.8-26.6 0.6-39.8-0.2-8.2 4.9-8.4 10.3-7.8 5.6 0.3 12.3-0.8 11.9 8.7-1.1 24.2-1.7 48.3-3 72.5-0.1 2.2-4.3 6.3-6.7 6.3q-49.8-1.1-99.7-3.4c-2.1-0.5-5.8-4.2-5.8-6.3 0.4-24.2 1.3-48.2 2.2-72.4 0.2-7.1 4.9-7.3 10.5-6.9 5.4 0.5 10.8-0.2 10.5 8-0.6 14-0.2 27.9-1 41.9-0.3 8.2 4.3 9.1 10.5 9.1 6.3 0 12.1-0.2 11.9-8.9-0.2-14.2 0-28.3 0-43.6z"/><path class="a" d="m1288 201.3c24.6 1.3 58.8 32.6 49.3 60.7-4.1 11.8-6 12.6-15.7 4.8-6.2-5-11.2-8.6-7.3-18.4 3.4-8.3-10.6-22.6-20.2-22.4-7.1 0-11.6 6.8-8.4 13.7 5.3 11.3 10.5 22.8 16.6 33.8 10.3 18.1 6.4 30.6-5.2 41.5-9.3 8.9-28.2 9.7-41.8 1.3-14.4-8.9-26.2-20.2-32.7-36.4-2.6-6.6 1.5-26.3 6.9-31.3 0.8-0.6 1.9-1.7 2.1-1.5 5.4 3.5 11.2 6.9 16 11.3 1.9 1.7 2.6 6.2 1.7 8.8-4.9 13.3 3.9 30 18.1 32.2 3.4 0.6 8.4-1.3 10.5-3.9 1.8-2.2 2.4-7.6 0.9-10.4-5.2-11.1-11.6-21.7-17.2-32.6-7.6-15.2-5.4-31.2 6.9-41.2 5.6-4.6 12.9-6.8 19.5-10z"/><path class="a" d="m205.9 430.6c-3.9 8.3-6.9 16.3-11.2 23.5-1 1.7-6.4 2.3-9 1.3-9.9-3.9-15.7-0.7-19.8 8.7-2.8 6.9-7.1 13-10.1 19.7-0.9 2-0.3 5.6 0.8 7.4 3.3 4.8 11.2 9.7 10.6 13.8-0.9 7.6-6.5 14.8-13.4 23.9-4.1-5.2-8.1-10.6-12.5-15.4-20.4-21.9-40.9-43.8-61.7-65.1-4.3-4.5-5.6-8.2-2.2-13.6 2.6-4 3.7-9.2 6.7-12.9 2.4-2.8 6.9-6 10.1-5.8 19.4 1.7 38.8 4.3 58.1 6.7 15.7 2 31.4 4.1 47 6.3 1.7 0.2 3.4 0.7 6.6 1.5zm-95.5 11.5c-0.5 0.9-0.9 2-1.5 2.9 8.1 8.2 16.1 16.5 24.3 24.3 0.8 0.8 4.9 0 5.4-1.1 2.8-5 5.1-10.4 7.1-15.7 0.4-1.2-1.5-4.5-2.8-4.7-10.8-2.2-21.6-3.9-32.5-5.7z"/><path class="a" d="m560.9 71.9c0.4 16.9 4.7 28.9 13.8 39 6.7 7.4 15.5 9.1 24.7 6.3 8.6-2.6 15.7-7.3 17-17.7 0.7-5.7 19-14.8 23.1-11.3 2.1 1.7 2.6 6.2 2.5 9.1-1.2 21-19.3 39.5-40.9 42.9-22.5 3.3-41.9-1.9-54.8-21.4-12.9-19.6-17-40.6-8.4-64 8.4-23.7 48.2-40.6 70.1-29.3 7.8 4.1 14 11.5 20.5 17.8 1.3 1.2 1.3 5.8 1.3 5.8-7.8 1.8-18.7 7.2-23.3 4.1-11.1-7.4-21.5-9.1-32.3-4.1-10.5 4.4-13.9 14.8-13.3 22.8z"/><path class="a" d="m311.8 289.6c-26.4 0-52.9-24.7-60.2-49.2-7.4-25.4 3.9-50.2 28.6-64 14.8-8.1 30.1-9.1 45 0 5.1 3 5.8 5.6 1.3 9.9-6.9 6.6-12.3 12.2-24.3 8.7-14.9-4.5-30 14.1-26.1 30.6 3.9 16.9 14.9 28.7 30.8 35.8 9 3.9 17.4 2 25-4.6 7.3-6.4 10.7-13.4 8.6-22.9-1.3-5.9 8.1-20.4 14-20.5 2.6 0 6.4 4 7.5 7 10.6 29.5-6.9 51.8-29.3 62.7-6.6 3.1-14 4.4-20.9 6.5z"/><path class="a" d="m1268.3 170.7c-5 7-7.6 12-11.7 15.4-1.5 1.3-7-0.8-9.8-2.6-18.8-12.8-18.6-12.8-31.9 5.9-11.6 16.3-23.3 32.5-34.7 48.8-3.2 4.6-6.2 5.2-10.9 2.6-17.3-9.6-17.3-10.2-5.9-26.2 12.5-17.6 24.6-35.4 37.1-53 3.4-4.6 3.8-8.2-1.7-11.5-5-3.2-9.7-6.7-14.7-9.6-5.6-3.4-5.2-7.3-1.1-11.4 3.7-3.5 4.6-13.1 13.6-6.8 21.5 15 43.1 29.8 64.6 44.7 2.3 1.6 4.7 2.6 7.1 3.7z"/><path class="a" d="m1552.8 747.6c0 13-0.4 25.9 0.2 38.9 0.4 10.6-7.1 7.8-12.7 8.4-5.8 0.5-9-1-9-8 0-28.9 2.1-23.7-25.4-23.6-18.8 0.2-37.9 1.2-56.7 2.1-7.3 0.4-10.7-1.7-10.5-9.9 0.2-17.4-0.2-17.2 17.7-17.8 21.7-0.7 43.6-2 65.2-2.6 6.2-0.1 8.4-2.6 7.7-8.3-0.4-3.9-0.4-8-0.4-12.1-0.4-12-0.4-11.6 11.8-12.6 7.6-0.5 10.6 1.3 10.1 9.5-0.8 12-0.2 24.1-0.2 36.2 0.5-0.2 1.5-0.2 2.2-0.2z"/><path class="a" d="m145.8 978c-25.3 6.6-49.2 12.8-72.9 19.2-14.5 3.9-14.5 4.3-10.2 18.2 1.6 5.2 2.8 10.8 4.2 17.1-4.8 1.3-9.1 2.4-13.6 3.7-4.8 1.3-7.3 0-8.6-5.2-6.7-25.4-13.6-50.6-20.7-75.9-1.5-5.5 0.4-8.1 6-8.7 5.4-0.5 12.1-6.5 14.9 3.5 1.5 5.1 3.2 10.1 3.7 15.3 1 8.5 5.5 9 12.4 7.2 22-6.1 44.4-11.5 66.3-18.6 9.9-3.1 14-0.3 15.8 8.6 1.2 4.8 1.7 9.6 2.7 15.6z"/><path class="a" d="m1318.6 390.7c6.5-4.6 12.7-9.3 19-13.4 23-14.6 46-28.7 68.9-43.6 5.5-3.5 9-3.3 11.8 2.6 0.9 1.9 2.6 3.6 3.9 5.2 6.4 8.8 5.8 11.3-3 16.9-19.6 12.3-39 24.7-58.6 36.9-5.2 3.4-6.7 6.7-2.4 12.8 8.6 12.3 16.2 25.3 24.6 38.6-5 3.7-8.9 7.4-13.6 9.5-2.3 0.9-7.1-1-8.6-3.2-14-20-27.3-40.4-42-62.3z"/><path class="a" d="m1381.7 497.1c-1.5-2.3-3.7-4.5-5.2-7.3-8.4-16.4-8.2-16.2 8.2-23.7 26.3-12.1 52.9-24.2 79-36.8 4.7-2.3 7.7-1.9 10.1 2.2 2.6 4.5 5.4 9.3 6.3 14.2 0.6 2.6-2 7.4-4.4 8.5-29.5 14.2-59.2 27.8-88.9 41.6-1.2 0.5-2.5 0.5-5.1 1.3z"/><path class="a" d="m1542.9 648.7c5.8 26.3 5.8 26.4-18.9 29.8-27.1 3.7-54.1 6.5-81.2 10-6.2 0.8-8.8-0.9-8.8-6.8 0-1.9-0.8-3.6-1.1-5.4-2.3-12.7-1.3-13.5 11.2-15.1 27.2-3.6 54.5-7.7 81.8-11.4 5.2-0.7 10.8-0.7 17-1.1z"/><path class="a" d="m816.8 397.7c0-10.7 0-20.5 0-29.8 5.8 4.8 11 8.3 15.1 13 1.3 1.5 0 5.4 0 8.2-7.7-1.9-9.7 5.4-14.2 8.7-0.4 0.2-1.3-0.1-0.9-0.1z"/><path class="a" d="m777.1 545.6c-3.3 1.7-6.7 4.7-10.2 5-6.2 0.8-7.7-3.7-7.5-8.9 0.2-6.1 3.9-9.9 9.3-8.8 3.4 0.8 6 5.6 9 8.6-0.4 1.3-0.4 2.8-0.6 4.1z"/><path class="a" d="m847.9 369.3c3.9 10.1 7.5 20 11.4 30.4-4.5 3.7-7.6 0.6-9.9-3.7-2.4-4.9-4.1-10.1-6-15.1-1.8-4.7-2.4-8.8 4.5-11.6z"/><path class="a" d="m869.6 392.1c-2.6-7.5-5.2-14.9-7.7-22.6 1.4-0.5 2.5-1.3 3.8-1.8 3.2 5.6 6.7 10.8 9.1 16.7 0.8 2.1-1.7 5.4-2.6 8.1-0.9 0-1.9-0.2-2.6-0.4z"/><path class="a" d="m642.3 371.6c-1.8 5.2-3.9 10.4-6.3 17.1-6.5-9.5-5.6-12.5 3-18.2q1.6 0.2 3.3 1.1z"/><path class="a" d="m650.6 387.1c-0.4-7.9-0.8-14.4-1.2-20.7 6.6 1.1 8.2 11.7 1.2 20.7z"/><path class="a" d="m786.3 540.7c1.9 3 3.6 5.8 5.4 8.8-2 0.7-4.1 1.5-6.1 2.1-1-3.2-1.9-6.2-2.8-9.4 1.1-0.5 2.2-1.1 3.5-1.5z"/><path class="a" d="m831.1 1421.8c-9.1 19.1-18.3 38.3-27.3 57.4-6.3 13.3-12.1 26.9-19 39.8-1.1 2.3-6.4 3.4-9.5 3.2-8.1-0.4-16.3-1.3-24.1-2.8-0.8-0.2-1-4.6-1.1-7-1.9-25.8-3.8-51.8-5.6-77.8-0.2-3.3-0.8-6.5-1.4-9.8-1.1-0.2-2-0.2-3.1-0.4-2.3 10.8-4.7 21.6-6.6 32.5-3.5 19.1-6.7 38.2-10.6 57.3-0.6 2.8-4.1 7.2-6.5 7.2-10.9 0.8-21.7 0.4-34 0.4 2-11.3 3.7-21.7 5.8-32.1 5.6-28.7 11.3-57.5 17.1-86.2 1.3-6.9 3.6-13.7 4.3-20.8 0.6-7.4 3.8-9.8 11.2-9.6 15.9 0.5 31.6 0.1 48.6 0.1 2.4 29.9 4.7 59.2 7.1 88.3 0.9 0.2 1.9 0.2 2.8 0.4 5.2-10.8 10.6-21.5 15.9-32.3 8.2-16.5 16.8-33 24.8-49.5 2.4-5 4.9-6.9 10.5-6.7q21 0.6 42 0c6.9-0.2 8.6 2.4 7.3 9.1q-13.8 66-26.7 132.3c-1.2 5.9-3.8 7.8-9.4 7.6-6.9-0.2-13.6-0.2-20.5 0.3-6 0.4-8-1.6-6.9-7.6 4.3-21.8 8.2-43.5 12.3-65.4 1.7-8.9 3.4-18 5-26.9-0.7-0.6-1.6-0.8-2.4-1z"/><path class="a" d="m1127.9 1526.1c-20.6 1.5-39.4-4.7-54-19.3-18.5-18.8-21.8-42.5-17.5-67.2 5.9-33.9 24.6-59 59.2-67.3 34-8.2 71.7-2.8 88.9 32.8 9.1 19 8.9 39.2 4.1 59.6-3.6 15-9.9 28.4-21.5 38.9-16.6 15.2-35.9 23.8-59.2 22.5zm9.7-121.7c-4.3 1.3-9 2-13.1 3.7-23.7 10-28.4 58.4-16.6 72.9 8.4 10.4 26.5 12.6 37.4 4.3 19.9-15.4 20.1-36.9 18.6-58.7-0.9-14.4-11-21.7-26.3-22.2z"/><path class="a" d="m429.2 1372.3c18.5 1.5 37.2 2 55.7 4.4 17.5 2.5 22.9 18.2 21.1 32.5-2.6 19.9-12.7 35.4-32.9 42.7-5 1.8-6.2 5.2-3.9 10.2 7.8 17.2 15.1 34.8 23 52.1 2.9 6.5 1.3 8.2-5.5 8-10.4-0.4-21.1-0.4-31.7 0.2-7.8 0.5-12-2.5-14.2-9.9-4.3-13.5-8.6-26.9-14-39.9-1.7-4-6.4-8.3-10.5-9.6-7.1-2.2-11.4 0-12.5 9.3-1.5 14.6-5.2 28.9-8.9 43.2-0.8 2.8-5.6 6.3-9 6.5-9.2 0.9-18.7 0-28 0.4-6.7 0.1-9-2.5-7.7-8.9 3.4-16.7 6.6-33.2 9.9-49.9 5.4-27.1 11.6-54.2 16.3-81.7 1.3-7.6 4.3-8.9 10.8-8.7 14 0.4 28 0 42 0q0-0.3 0-0.9zm6 29.9q0-0.3 0-0.6c-3.7 0-7.5-0.6-11.2 0.2-2.4 0.4-6 2-6.5 3.7-1.9 7.4-3.4 15-4 22.6-0.2 1.9 4 6 6.2 5.8 9.1-0.2 18.7-0.9 27.6-2.6 8.1-1.5 12.9-10.6 11.6-19.5-1.1-8.5-7.8-9.1-14.5-9.6-3-0.2-6 0-9.2 0z"/><path class="a" d="m1042.7 1468.6c-6.7 12-12.3 23-18.6 33.4-6.9 10.9-18.3 16.5-30.1 20.4-29.1 9.6-69.3 5-88.5-22.3-13.8-19.7-14.2-41.9-10.7-64 3.8-23.4 16.8-41.9 36.8-55.5 21.1-14.2 72.5-17.2 94 6.2 9.7 10.5 15.8 22.6 16.8 36.9 0.2 1.8-3.4 5.4-5.4 5.4-11.3 0.1-22.5 0-33.7-1-2-0.2-5-3.5-5.8-5.9-5.7-17.8-24.8-23.6-39.7-12.1-15.2 11.5-17.4 28.4-19.1 45.3-0.9 9.6 0.8 19.1 7.1 26.9 11.4 14.1 34.2 10.9 43.9-5.8 4.5-7.4 9.3-10.5 17.7-9.8 8.4 0.6 16.9 0 25.3 0.2 2.6 0 5.2 0.9 10 1.7z"/><path class="a" d="m512.3 1522.6c12.7-25.1 23.9-47 34.8-68.9 12.1-24.4 23.9-49.1 36.4-73.6 1.5-3 6.1-5.9 9.5-6.1 10.5-1 21.1-0.2 31.7-0.6 6.8-0.2 9.9 2.2 11.2 9.1 6.8 36.4 14.1 72.5 21.2 108.9 1.4 7.8 3.1 15.6 5.4 23.2 1.6 5.5-0.4 7.8-5.6 7.8-10.7 0-21.1 0.2-31.8-0.8-2.2-0.2-5.8-4.6-5.8-7-0.3-8.2-4.3-10.8-11.9-10.6q-15.4 0.3-30.8 0c-6.4-0.2-10.9 1.7-12.6 8.4-2 8.1-7.6 10.7-15.8 10.3-11-0.5-22.4-0.1-35.9-0.1zm91.9-101.9c-3 3.5-5 5.2-6 7.4-5.8 13.6-11.2 27.3-16.8 40.8-2 5.1 0.2 7.1 4.9 7.3 6.1 0.2 12.5 0.7 18.6-0.4 2.7-0.5 7-5.2 6.6-7.4-1.7-15-4.3-29.9-7.3-47.7z"/><path class="a" d="m813 930.7c0-7.8 0-15.4 0-23.2 0.9 0 1.7 0 2.6 0 0 7.8 0 15.4 0 23.2-0.7 0-1.7 0-2.6 0z"/><path class="a" d="m887.3 507.6c1.7-2.8 3.4-5.6 5.1-8.7-1.3-3.4-10.1-7.5 0.6-10.7 2-0.5 4.4-0.7 6.7-0.9 0.2 2.3 0.2 4.7 0.9 6.9 0.9 2.8 2.4 5.6 3.9 8.2 1.7 2.6 4.3 4.8 5.8 7.6 0.4 0.8-1.1 3.4-2.4 4.3-0.6 0.6-3.6-0.5-3.7-1.3-2.7-9.7-9-5.9-15-3.3-0.7-0.8-1.3-1.3-1.9-2.1z"/><path class="a" d="m873.2 487.3c1.1 2.8 2.4 5.4 3.1 8.2 1 3.2 1.9 6.3 2.3 9.7 0.2 2.6 0.4 6.3-1.3 7.8-1.9 1.7-6.2 2.6-8.2 1.5-1.7-0.7-2.6-5-2.5-7.6 0.8-6.4 2.5-12.5 3.8-18.7 0.9-0.3 1.8-0.5 2.8-0.9z"/><path class="a" d="m867.4 1174.1c-1.5-9.2 2-11.8 12.3-9.7-4.3 3.3-8.1 6.3-12.3 9.7z"/><path class="a" d="m751.6 489.4c2.4 3.5 4.1 6.1 6.1 8.9 5.3-3.9 3-16.4 13.1-11.9 3.7 1.7 5.1 9.1 8.6 16.4-11 0-18.7 1.1-26-0.4-8-1.6-4.4-7.2-1.8-13z"/><path class="a" d="m759.8 476c25.4-4.6 32.7 2.8 27.3 26.6-1.7-8-1-16.3-4.9-20.1-4.5-4.3-13-4.1-22.4-6.5z"/><path class="a" d="m650.3 1097.1c0.4-3.6-0.1-7.5 1.4-10.4 0.7-1.7 4.8-1.9 9.1-3.4-3.7 6-5.8 9.5-8 13-0.8 0.2-1.5 0.4-2.5 0.8z"/></svg>